<?xml version="1.0" encoding="UTF-8"?>
<svg id="OBJECTS" xmlns="http://www.w3.org/2000/svg" xmlns:xlink="http://www.w3.org/1999/xlink" viewBox="0 0 221.71 135.94">
  <defs>
    <style>
      .cls-1 {
        fill: #fff;
        stroke-width: 0px;
      }
    </style>
  </defs>
  <path class="cls-1" d="M213.61,70.63c0-16.69-13.53-30.22-30.22-30.22-12.38,0-23.01,7.45-27.68,18.1-.41-.2-.83-.39-1.25-.57-1.7-4.23-4.68-7.8-8.47-10.23,1.02-2.97,1.58-6.16,1.58-9.48,0-16.17-13.11-29.27-29.27-29.27-14.13,0-25.93,10.02-28.67,23.34-4.6-3.89-10.54-6.23-17.03-6.23-11.79,0-21.77,7.73-25.16,18.4-10.12,2.43-18.17,10.15-21.09,20.07-1.66-.54-3.42-.85-5.26-.85-9.32,0-16.87,7.55-16.87,16.87s7.55,16.87,16.87,16.87c4.63,0,8.81-1.86,11.86-4.88,2.66,2.87,5.9,5.19,9.52,6.8.96,14.72,13.2,26.36,28.16,26.36,5.74,0,11.07-1.72,15.53-4.66.92.12,1.86.18,2.82.18,3.52,0,6.84-.81,9.8-2.25,3.75,2.21,8.11,3.48,12.77,3.48,7.19,0,13.67-3.01,18.26-7.84,2.24,1.64,4.99,2.61,7.97,2.61,5.86,0,10.84-3.74,12.72-8.96,2.63-.65,5.1-1.69,7.36-3.06,2.32,8.67,10.22,15.07,19.62,15.07,11.23,0,20.34-9.1,20.34-20.34,0-.91-.08-1.79-.2-2.67,9.51-5.09,15.98-15.11,15.98-26.65Z"/>
</svg>