<?xml version="1.0" encoding="UTF-8"?>
<svg id="OBJECTS" xmlns="http://www.w3.org/2000/svg" xmlns:xlink="http://www.w3.org/1999/xlink" viewBox="0 0 222 169.2">
  <defs>
    <style>
      .cls-1 {
        fill: #fff;
        stroke-width: 0px;
      }
    </style>
  </defs>
  <path class="cls-1" d="M200.96,84.01c0-6.52-2.53-12.44-6.65-16.86,3.81-4.61,6.1-10.53,6.1-16.98,0-14.74-11.95-26.69-26.69-26.69-7.82,0-14.86,3.37-19.74,8.73-1.27-9.67-9.53-17.14-19.55-17.14-6.22,0-11.77,2.88-15.38,7.38-11.07,1.05-19.84,9.94-20.71,21.05-.85.27-1.67.59-2.47.97-2.46-2.5-5.88-4.05-9.67-4.05-4.84,0-9.08,2.54-11.48,6.35-.78.35-1.53.73-2.27,1.14-2.05-1.13-4.4-1.77-6.91-1.77-2.37,0-4.59.58-6.56,1.59-3.23-2.43-7.25-3.87-11.61-3.87-6.04,0-11.44,2.77-14.98,7.11-8.44,3.01-14.48,11.06-14.48,20.54,0,2.77.52,5.41,1.46,7.84-2.57,2.33-4.2,5.68-4.2,9.42,0,7.02,5.69,12.71,12.71,12.71,2.89,0,5.54-.98,7.68-2.6,3.54,4.83,9.1,8.08,15.43,8.54,4.64,8.46,13.63,14.19,23.95,14.19,1.44,0,2.85-.11,4.23-.33,2.19,1.79,4.99,2.86,8.04,2.86,2.1,0,4.08-.52,5.83-1.42,5.01,6.08,12.6,9.96,21.09,9.96.57,0,1.14-.02,1.71-.06.25,8.51,7.21,15.34,15.78,15.34s15.8-7.08,15.8-15.8c0-1.23-.16-2.43-.42-3.58,3.05-.82,5.87-2.23,8.32-4.09,2.21,3,5.76,4.95,9.77,4.95,6.71,0,12.15-5.44,12.15-12.15,0-3.43-1.43-6.53-3.72-8.74.9.1,1.82.16,2.74.16,13.65,0,24.72-11.07,24.72-24.72Z"/>
</svg>