<?xml version="1.0" encoding="UTF-8"?>
<svg id="OBJECTS" xmlns="http://www.w3.org/2000/svg" xmlns:xlink="http://www.w3.org/1999/xlink" viewBox="0 0 237.69 160.8">
  <defs>
    <style>
      .cls-1 {
        fill: #fff;
        stroke-width: 0px;
      }
    </style>
  </defs>
  <path class="cls-1" d="M223.84,86.48c0,11.52-9.34,20.86-20.86,20.86-3.29,0-6.41-.77-9.18-2.13-1.95,1.69-4.28,2.94-6.85,3.63.22,1.39.34,2.81.34,4.26,0,14.66-11.89,26.55-26.55,26.55-7.65,0-14.54-3.24-19.38-8.41-4.01,2.65-8.81,4.2-13.97,4.2-2.37,0-4.66-.33-6.83-.94-3.99,2.76-8.82,4.38-14.04,4.38-7.83,0-14.81-3.65-19.33-9.35-1.5.53-3.11.83-4.79.83-1.81,0-3.53-.35-5.12-.95-4.29,3.32-9.67,5.31-15.51,5.31-9.67,0-18.08-5.42-22.35-13.39-1.11.18-2.25.28-3.41.28-11.59,0-20.99-9.4-20.99-20.99,0-8.94,5.59-16.57,13.47-19.6,2.27-4.32,5.92-7.79,10.36-9.84-4.33-5-6.96-11.51-6.96-18.65,0-15.74,12.76-28.49,28.49-28.49,14.63,0,26.67,11.02,28.3,25.21.92-.21,1.88-.34,2.87-.34,1.91,0,3.71.43,5.33,1.19,2.06-1.55,4.61-2.48,7.38-2.48.58,0,1.16.06,1.72.13,1.91-5.74,6.25-10.37,11.8-12.66,2.66-11.42,12.9-19.93,25.13-19.93,13.46,0,24.52,10.31,25.7,23.47.68.57,1.3,1.2,1.88,1.87,1.25-.27,2.54-.42,3.87-.42,2.25,0,4.39.42,6.38,1.16,3.12-1.32,6.55-2.05,10.15-2.05,14.39,0,26.06,11.67,26.06,26.06,0,1.81-.19,3.58-.54,5.29,4.52,3.83,7.4,9.54,7.4,15.93Z"/>
</svg>