<?xml version="1.0" encoding="UTF-8"?>
<svg id="OBJECTS" xmlns="http://www.w3.org/2000/svg" xmlns:xlink="http://www.w3.org/1999/xlink" viewBox="0 0 220.62 160.32">
  <defs>
    <style>
      .cls-1, .cls-2 {
        fill: #fff;
        stroke-width: 0px;
      }
    </style>
  </defs>
  <path class="cls-2" d="M-1.4,90.62c0-10.17-7.05-18.68-16.53-20.93-3.12-2.17-6.9-3.44-10.99-3.44-.59,0-1.16.04-1.74.09.24-1.46.36-2.95.36-4.47,0-15.3-12.4-27.7-27.7-27.7-9.05,0-17.09,4.35-22.14,11.06-2.35-.62-4.81-.95-7.35-.95-1.06,0-2.1.06-3.12.17-3.86-3.17-8.79-5.07-14.17-5.07-6.29,0-11.98,2.61-16.04,6.79-2.35-3.57-6.39-5.92-10.98-5.92-7.26,0-13.15,5.89-13.15,13.15,0,.56.05,1.1.11,1.64-.41.12-.82.25-1.22.39-2.35-1.48-5.13-2.34-8.11-2.34-5.86,0-10.95,3.3-13.52,8.14-4.72-9.22-14.31-15.53-25.38-15.53-13.93,0-25.52,10-28.01,23.21-.66-.07-1.33-.11-2.02-.11-10.38,0-18.79,8.41-18.79,18.79s8.41,18.79,18.79,18.79c6.27,0,11.81-3.08,15.22-7.81,1.36.83,2.8,1.54,4.29,2.13.81,1.45,1.88,2.74,3.14,3.81,0,.15-.01.3-.01.44,0,9.37,5.86,17.36,14.12,20.53,4.24,2.74,9.25,4.39,14.64,4.55,2.7,2.25,6.18,3.61,9.97,3.61,2.99,0,5.77-.85,8.14-2.31,2.11,1.18,4.54,1.86,7.13,1.86,6.71,0,12.35-4.51,14.1-10.66,1.75,5.65,7.01,9.76,13.24,9.76.92,0,1.82-.09,2.69-.27,1.38.48,2.85.76,4.4.76,2.5,0,4.83-.7,6.82-1.89,2.44.66,5.01,1.02,7.66,1.02,1.38,0,2.73-.1,4.06-.29,1.84.67,3.81,1.09,5.86,1.2,3.28,2.49,7.35,3.99,11.79,3.99,8.79,0,16.21-5.81,18.65-13.81.11-.08.21-.17.32-.25,5.78-.19,11.03-2.45,15.04-6.06,2.52,1.23,5.35,1.94,8.35,1.94,5.9,0,11.17-2.68,14.67-6.89,9.91-1.92,17.4-10.64,17.4-21.12Z"/>
  <path class="cls-1" d="M188.45,75.98c5.34-5.2,8.66-12.47,8.66-20.52,0-15.82-12.83-28.65-28.65-28.65-11.29,0-21.05,6.53-25.72,16.03-2.82-12.99-14.38-22.73-28.22-22.73-.06,0-.12,0-.18,0-4.9-3.18-10.74-5.04-17.01-5.04-9.7,0-18.37,4.42-24.1,11.34-3.29-1.6-6.99-2.5-10.9-2.5-13.79,0-24.97,11.18-24.97,24.97,0,4.91,1.42,9.49,3.88,13.35-1.14-.18-2.31-.27-3.49-.27-3.06,0-5.98.61-8.64,1.72-2.38-1.54-5.2-2.44-8.24-2.44-8.4,0-15.22,6.81-15.22,15.22,0,6.77,4.43,12.5,10.54,14.48,2.36,7.9,8.94,13.97,17.13,15.61,4.17,3.82,9.73,6.14,15.83,6.14,4.67,0,9.02-1.37,12.68-3.73,2.32.64,4.74,1.01,7.25,1.08,1.16.73,2.38,1.37,3.66,1.9,1.54,15.3,14.45,27.24,30.16,27.24,11.94,0,22.27-6.91,27.21-16.95.65,0,1.29-.03,1.93-.08,3.35,1.93,7.23,3.05,11.38,3.05,9.56,0,17.74-5.89,21.13-14.24,3.71,3.14,8.51,5.05,13.75,5.05,11.77,0,21.31-9.54,21.31-21.31,0-8.08-4.5-15.12-11.13-18.73ZM140.93,63.36c-.48.04-.97.1-1.44.16.56.5,1.22.49,1.54-.15.13.58-.26-.57-.09,0Z"/>
</svg>