<?xml version="1.0" encoding="UTF-8"?>
<svg id="OBJECTS" xmlns="http://www.w3.org/2000/svg" xmlns:xlink="http://www.w3.org/1999/xlink" viewBox="0 0 256.98 138.96">
  <defs>
    <style>
      .cls-1, .cls-2, .cls-3 {
        fill: #fff;
        stroke-width: 0px;
      }
    </style>
  </defs>
  <path class="cls-3" d="M255.58,71.66c0-10.17-7.05-18.68-16.53-20.93-3.12-2.17-6.9-3.44-10.99-3.44-.59,0-1.16.04-1.74.09.24-1.46.36-2.95.36-4.47,0-15.3-12.4-27.7-27.7-27.7-9.05,0-17.09,4.35-22.14,11.06-2.35-.62-4.81-.95-7.35-.95-1.06,0-2.1.06-3.12.17-3.86-3.17-8.79-5.07-14.17-5.07-6.29,0-11.98,2.61-16.04,6.79-2.35-3.57-6.39-5.92-10.98-5.92-7.26,0-13.15,5.89-13.15,13.15,0,.56.05,1.1.11,1.64-.41.12-.82.25-1.22.39-2.35-1.48-5.13-2.34-8.11-2.34-5.86,0-10.95,3.3-13.52,8.14-4.72-9.22-14.31-15.53-25.38-15.53-13.93,0-25.52,10-28.01,23.21-.66-.07-1.33-.11-2.02-.11-10.38,0-18.79,8.41-18.79,18.79s8.41,18.79,18.79,18.79c6.27,0,11.81-3.08,15.22-7.81,1.36.83,2.8,1.54,4.29,2.13.81,1.45,1.88,2.74,3.14,3.81,0,.15-.01.3-.01.44,0,9.37,5.86,17.36,14.12,20.53,4.24,2.74,9.25,4.39,14.64,4.55,2.7,2.25,6.18,3.61,9.97,3.61,2.99,0,5.77-.85,8.14-2.31,2.11,1.18,4.54,1.86,7.13,1.86,6.71,0,12.35-4.51,14.1-10.66,1.75,5.65,7.01,9.76,13.24,9.76.92,0,1.82-.09,2.69-.27,1.38.48,2.85.76,4.4.76,2.5,0,4.83-.7,6.82-1.89,2.44.66,5.01,1.02,7.66,1.02,1.38,0,2.73-.1,4.06-.29,1.84.67,3.81,1.09,5.86,1.2,3.28,2.49,7.35,3.99,11.79,3.99,8.79,0,16.21-5.81,18.65-13.81.11-.08.21-.17.32-.25,5.78-.19,11.03-2.45,15.04-6.06,2.52,1.23,5.35,1.94,8.35,1.94,5.9,0,11.17-2.68,14.67-6.89,9.91-1.92,17.4-10.64,17.4-21.12Z"/>
  <path class="cls-1" d="M-14.72,76.16c0,11.52-9.34,20.86-20.86,20.86-3.29,0-6.41-.77-9.18-2.13-1.95,1.69-4.28,2.94-6.85,3.63.22,1.39.34,2.81.34,4.26,0,14.66-11.89,26.55-26.55,26.55-7.65,0-14.54-3.24-19.38-8.41-4.01,2.65-8.81,4.2-13.97,4.2-2.37,0-4.66-.33-6.83-.94-3.99,2.76-8.82,4.38-14.04,4.38-7.83,0-14.81-3.65-19.33-9.35-1.5.53-3.11.83-4.79.83-1.81,0-3.53-.35-5.12-.95-4.29,3.32-9.67,5.31-15.51,5.31-9.67,0-18.08-5.42-22.35-13.39-1.11.18-2.25.28-3.41.28-11.59,0-20.99-9.4-20.99-20.99,0-8.94,5.59-16.57,13.47-19.6,2.27-4.32,5.92-7.79,10.36-9.84-4.33-5-6.96-11.51-6.96-18.65,0-15.74,12.76-28.49,28.49-28.49,14.63,0,26.67,11.02,28.3,25.21.92-.21,1.88-.34,2.87-.34,1.91,0,3.71.43,5.33,1.19,2.06-1.55,4.61-2.48,7.38-2.48.58,0,1.16.06,1.72.13,1.91-5.74,6.25-10.37,11.8-12.66,2.66-11.42,12.9-19.93,25.13-19.93,13.46,0,24.52,10.31,25.7,23.47.68.57,1.3,1.2,1.88,1.87,1.25-.27,2.54-.42,3.87-.42,2.25,0,4.39.42,6.38,1.16,3.12-1.32,6.55-2.05,10.15-2.05,14.39,0,26.06,11.67,26.06,26.06,0,1.81-.19,3.58-.54,5.29,4.52,3.83,7.4,9.54,7.4,15.93Z"/>
  <path class="cls-2" d="M445.44,57.02c5.34-5.2,8.66-12.47,8.66-20.52,0-15.82-12.83-28.65-28.65-28.65-11.29,0-21.05,6.53-25.72,16.03-2.82-12.99-14.38-22.73-28.22-22.73-.06,0-.12,0-.18,0-4.9-3.18-10.74-5.04-17.01-5.04-9.7,0-18.37,4.42-24.1,11.34-3.29-1.6-6.99-2.5-10.9-2.5-13.79,0-24.97,11.18-24.97,24.97,0,4.91,1.42,9.49,3.88,13.35-1.14-.18-2.31-.27-3.49-.27-3.06,0-5.98.61-8.64,1.72-2.38-1.54-5.2-2.44-8.24-2.44-8.4,0-15.22,6.81-15.22,15.22,0,6.77,4.43,12.5,10.54,14.48,2.36,7.9,8.94,13.97,17.13,15.61,4.17,3.82,9.73,6.14,15.83,6.14,4.67,0,9.02-1.37,12.68-3.73,2.32.64,4.74,1.01,7.25,1.08,1.16.73,2.38,1.37,3.66,1.9,1.54,15.3,14.45,27.24,30.16,27.24,11.94,0,22.27-6.91,27.21-16.95.65,0,1.29-.03,1.93-.08,3.35,1.93,7.23,3.05,11.38,3.05,9.56,0,17.74-5.89,21.13-14.24,3.71,3.14,8.51,5.05,13.75,5.05,11.77,0,21.31-9.54,21.31-21.31,0-8.08-4.5-15.12-11.13-18.73ZM397.92,44.4c-.48.04-.97.1-1.44.16.56.5,1.22.49,1.54-.15.13.58-.26-.57-.09,0Z"/>
</svg>