<?xml version="1.0" encoding="UTF-8"?>
<svg id="OBJECTS" xmlns="http://www.w3.org/2000/svg" xmlns:xlink="http://www.w3.org/1999/xlink" viewBox="0 0 231.12 134.4">
  <defs>
    <style>
      .cls-1 {
        fill: #fff;
        stroke-width: 0px;
      }
    </style>
  </defs>
  <path class="cls-1" d="M202.59,64.19c3.16-4.26,5.03-9.53,5.03-15.24,0-14.14-11.46-25.6-25.6-25.6-.45,0-.89.01-1.34.03-4.17-3.87-9.75-6.23-15.89-6.23-3.93,0-7.63.97-10.88,2.69-3.29-2.99-7.64-4.83-12.44-4.83-8.29,0-15.31,5.46-17.67,12.97-2.23-1.47-4.76-2.49-7.49-2.97-5.73-5.16-13.31-8.3-21.63-8.3-12.77,0-23.81,7.4-29.07,18.15-1.1-.19-2.23-.31-3.38-.31-1.9,0-3.72.28-5.46.78-3.35-1.24-6.97-1.92-10.75-1.92-17.12,0-31,13.88-31,31s13.88,31,31,31c6.45,0,12.44-1.97,17.4-5.34,5.39,4.35,12.24,6.95,19.7,6.95,3.12,0,6.13-.46,8.98-1.31,3.16,4.44,8.34,7.35,14.21,7.35,9.11,0,16.58-6.98,17.37-15.89,1.45.98,3.05,1.76,4.75,2.33,2.11,13.4,13.7,23.65,27.7,23.65,12.16,0,22.51-7.74,26.39-18.57,2.73,1.63,5.91,2.58,9.33,2.58,10.08,0,18.26-8.17,18.26-18.26,0-6.06-2.97-11.42-7.52-14.74Z"/>
</svg>