<?xml version="1.0" encoding="UTF-8"?>
<svg id="Layer_1" data-name="Layer 1" xmlns="http://www.w3.org/2000/svg" viewBox="0 0 1773 624">
  <defs>
    <style>
      .cls-1 {
        fill: #37a1bb;
      }

      .cls-1, .cls-2 {
        stroke-width: 0px;
      }

      .cls-2 {
        fill: #1c8dab;
      }
    </style>
  </defs>
  <path class="cls-1" d="M0,357c55.52,15.44,111.09,32.81,167.18,46.63,55.8,12.96,114.92,18.71,171.66,10.19,65.98-10.04,127.99-46.81,190.78-72.54,51.83-22.22,105.04-42.89,158.1-64.1,55.54-21.82,114.68-46.74,169.16-59.82,76.76-18.97,156.81-10.2,235.14-3.63,83.05,7.4,165.84,14.8,247.99,21.93,36.89,3.21,73.28,6.23,110.51,5.89,32.79-.11,66.09-3.32,98.58-7.8,100.2-14.5,126.77-10.31,223.91,15.94v382.3H0v-275Z"/>
  <g>
    <path class="cls-2" d="M670,268c.26-2.22,3.39-13.77,8.96-11.32,10.61,3.56,13.26-10.08,20.8-15.1-4.53-.18-9.04,2.52-12.14,5.92,4.09-13.57,21.12-17.46,26.62-30.42-7.11,6.97-16.49,9.52-23.76,16.23.88-13.89,5.02-24.77,14.88-35.27-22.47,10.98-15.46,33.14-28.11,49.99-4.1-33.55,19.17-24.7,16.47-57.59-2.34,14-9.88,22.86-19.03,32.62.78-7.23,4.11-14.09,9.3-19.42-11.27,4.78-17.29,18.96-14.04,30.55,1.58,5.02,3.3,7.64.95,12.36-6.7-7.03-9.87-9.05-5.39-19.06,2.41-7.51-1.06-14.92,1.43-22.55-4.39,4.89-4.75,11.8-5.44,17.84-1.93,5.99-6.29,13.76-1.75,19.68-5.03-3.53-1.69-11.13-1.84-16.9-4.97,5.62-9.14,16.93-1.55,21.74,3.67,1.89,5.47.83,7.88,3.71,1.64,1.91-1.61,11.49-3.25,14"/>
    <path class="cls-2" d="M1066.05,473.81c-.34-2.21-.38-14.17,5.63-13.29,11.17.61,10.11-13.24,16.05-20.08-4.42,1.03-8.05,4.83-10.13,8.93.34-14.17,15.72-22.44,17.59-36.4-5.01,8.6-13.37,13.55-18.6,21.95-2.84-13.63-1.73-25.21,4.99-37.95-18.75,16.55-6.11,36.05-13.83,55.66-12.86-31.26,11.93-28.91.6-59.9,1.46,14.11-3.45,24.66-9.69,36.5-1.17-7.18.22-14.68,3.82-21.19-9.6,7.6-11.64,22.87-5.43,33.18,2.86,4.42,5.21,6.49,4.19,11.67-8.33-5-11.92-6.1-10.26-16.95.33-7.88-4.98-14.11-4.61-22.12-2.93,5.88-1.45,12.64-.51,18.64-.27,6.28-2.41,14.94,3.54,19.44-5.79-2.07-4.58-10.29-6.26-15.8-3.3,6.74-4.32,18.75,4.28,21.37,4.04.85,5.49-.65,8.58,1.48,2.09,1.41,1.5,11.5.58,14.36"/>
    <path class="cls-2" d="M935.62,462.21c-4.43-4.35-3-4.12-5.94-10.48-4.49-9.72,1.05-19.21-1.75-30.03-.75-1.63-1.51-3.26-2.71-.7-.29.61-.41,1.29-.36,1.96.65,7.65,1.79,8.38-.57,15.64-.3.93-1.52,1.19-2.17.46-9.65-10.73-8.77-17.62-10.16-22.27-.83-2.76-5.02-1.59-4.28,1.2.41,1.55.92,3.11,1.18,4.64-.81,5.37-11.25-9.62-14.65-4.39-.62,1.01-.27,2.33.55,3.23.13.14.31.24.5.29,15.25,4.28,21.48,18.75,27.94,32.66,2.22,4.78,1.31,5.2,2.5,10.16"/>
    <path class="cls-2" d="M921.97,457.92c5.65-3.22,3.87-3.43,7.74-9.26,5.92-8.92-.6-20.8,3.26-31.44.99-1.5,1.99-2.99,3.39.13.33.74.47,1.5.37,2.2-1.08,7.95-2.53,8.35.13,16.84.34,1.09,1.84,1.76,2.68,1.19,12.36-8.35,11.51-15.97,13.41-20.47,1.13-2.68,6.29-.09,5.27,2.65-.56,1.52-1.25,3.02-1.64,4.57.8,5.98,14.3-6.65,18.33,0,.73,1.27.25,2.57-.8,3.26-.17.11-.4.15-.63.15-19.07-.32-27.33,13.1-35.84,25.86-2.93,4.39-1.81,5.12-3.47,10.03"/>
    <path class="cls-2" d="M1226.28,473.78c-.4-3.98.39-6.07-3.09-9.71,9.69-3.58,5.83-15.89,2.47-23.5-2.64-1.97-8.58,3.47-11.7,4.48,8.9-7.6,2.61-24.56-8.67-11.58-.36-8.99-12.17-14.24-19.44-12.71-2.31,4.38-2.7,9.88-3.69,14.79-.81-.26-1.63-.47-2.45-.68.93-6.53-1.88-9.96-8.24-8.76-.34-11.34-5.33-18.79-16.36-13.92-7.36,6.25,1.77,16.85,2.49,24.82-8.53-12.88-21.62-1.3-12.91,11.12-4.48-3.13-4.6,6.05-6.2,8.86,1.36,2.13,5.24,2.83,7.45,4.42,2.11,4.18,1.52,8.26-1.07,12.54"/>
    <path class="cls-2" d="M616.28,258.53c-1-3.87-.53-6.06-4.52-9.13,9.04-5.01,3.36-16.59-1.11-23.6-2.91-1.55-7.95,4.72-10.89,6.2,7.65-8.86-1.13-24.67-10.32-10.14-1.71-8.84-14.18-12.24-21.14-9.63-1.62,4.68-1.17,10.17-1.41,15.18-.84-.13-1.68-.21-2.52-.3-.07-6.6-3.36-9.56-9.47-7.42-2.05-11.16-8.11-17.77-18.28-11.28-6.33,7.29,4.3,16.39,6.22,24.15-10.38-11.44-21.57,1.98-11.08,12.95-4.9-2.42-3.64,6.67-4.79,9.7,1.67,1.9,5.61,2,8.04,3.24,2.72,3.81,2.75,7.93.84,12.56"/>
    <path class="cls-2" d="M1595,364c-2.2-5.81-3.64-28.31-11.19-29.76-2.15-11.05,10.81-17.64,9.14-28.77-9.68-1.75-6.12,11.97-11.27,16.59-7.76-22.08,3.85-25.38-2.58-33.26-2.63,2.54-2.37,6.88-3.34,10.49-2.98,4.54-6.19-13.45-11.46-10.12-1.06.71-1.26,2.22-.75,3.44,12.29,10.27,13.66,26.22,11.91,41.56-3.26,3.67-6.71-.33-10.54,2.87-4.96-13.19,6.77-22.29,5.21-29.71-7.04-2.89-5.89,8.53-8.78,11.48-2.87-3.01-2.38-11.11-7.29-11.58-.88,7.33,6.92,14.57,4.43,22.36-1.11-2.25-3.86-7.31-6.38-5.39-1.12,6.25,7.77,9.68,6.96,15.77-1.3.64-3.26,1.42-4.59,1.55-2.14,2.05-1.55-2.07-5.65-2.69-.84-.53-2.24-1.59-2.55-2.41-1.73-15.34-.09-30.98,12.03-41.31.42-1.2.24-2.87-1.03-3.34-5.82-1.5-6.35,9.92-10.56,11.07-2.36-2.72-.73-9.74-4.22-11.21-4.68,4.32.41,11.16.9,16.31.47,5.68-3.28,11.22-3.28,16.78-5.94-7.47-1.7-14.01-8.43-16.79-2.82-1.04,2.3,11.09.3,14.09-3.04,4.56-3,6-10.67,1.78-2.88-2.93-1.76-14.38-8.78-11.48-2.59,6.55,10.84,13.88,4.58,32.9-4.09,8.46-5.69,7.01-7.13,18.81"/>
    <path class="cls-2" d="M1634,352c-4-10,2.13-16.48-1.13-24.12,2-7.6,12.18,1.98,14.24-14.31.31-2.02-2.64-2.89-2.94-.85-1.74,12.15-6.68,5.88-12.55,10.58-.31-6.26,6.9-10.84,8.82-16.59,3.72-5.87-5.15-16.56,1.42-18.88,1.92-.46,1.11-3.56-.81-3.1-13.44,5.15,4.97,15.79-8.55,28.74,3.49-8.47.42-16.71-6.45-21.27,7.69-6.73,2.46-19.08.55-12.06,1.61,4.45-.56,7.24-3.1,9.95l-2.09,2.22c-2.18,2.24-3.67,5.29-3.4,8.48-2.93-4.85-10.2-6.71-9.34-13.64-.84-3.24,11.12-11.08,3.41-10.16-18.12,17.88,5.13,18.16,3.83,30.71-2.31,6.03-4.8,12.53-1.3,18.69-27.62-8.46-2.97-22.1-17.15-36.08-1.46-1.38-3.63.89-2.16,2.27,12.67,15.99-13.99,24.71,20.9,38.25.79,14.16,5.79,7.16,2.79,21.16h15Z"/>
    <path class="cls-2" d="M510.88,386.69c-10.73-.92-13.76-9.31-22.05-9.82-5.89-5.2,7.24-9.99-6.39-19.15-1.67-1.18-3.77,1.05-2.09,2.25,10.07,7.02,2.25,8.61,3.81,15.96-5.73-2.53-6.58-11.03-10.86-15.33-3.58-5.96-17.11-2.84-16.23-9.75.45-1.92-2.68-2.59-3.13-.67-1.44,14.32,16.34,2.65,21.83,20.55-6-6.93-14.74-7.89-21.9-3.79-2.56-9.89-15.94-10.77-10.52-5.91,4.7.56,6.22,3.75,7.5,7.24l1.05,2.86c1.03,2.95,3.08,5.65,6.05,6.85-5.65.43-10.58,6.1-16.38,2.21-3.27-.71-4.9-14.91-7.54-7.61,7.83,24.22,18.53,3.58,29.15,10.37,4.35,4.78,9.04,9.92,16.12,9.56-19.97,20.87-21.08-7.28-39.94-.89-1.89.69-.84,3.64,1.06,2.95,19.98-4.13,15.79,23.6,43.57-1.48,13,5.66,9-1.95,20.16,7.02l6.74-13.4Z"/>
    <path class="cls-2" d="M1777,624L0,632v-131.15h105.69c24.53,0,48.94-3.37,72.58-9.94,353.8-98.36,319.61,37.42,315.74-143.91-.02-.81-1-13,.74-24.77,2.26-13.23,13.22-54.89,49.04-61.75,104.99-16.58,180.57-18.75,167.25,112.06-.02.18-.04.37-.07.55-16.05,102.54,79.36,31.12,163.91,68.35.73.32,1.49.56,2.27.7,103.01,18.09,301.1,34.11,399.96,25.61,55.91-4.81,78.24-37.25,92.83-50.85,41.29-39.82,54.52-59.68,112.17-68.76.6-.09,1.21-.13,1.82-.11,53.79,1.92,141.38,1.88,192.85-13.11,59.25-17.26,69.19-102.63,39.46-152.45-.33-.56-.62-1.15-.83-1.76-19.02-55.26,22.55-124.27,61.61-165.71"/>
    <path class="cls-2" d="M1011.7,474.32c-1.94-5.9-.77-5.04-.46-12.03.48-10.7,9.76-16.58,12.25-27.47.08-1.79.16-3.59-2.09-1.86-.53.41-.96.95-1.22,1.57-2.94,7.09-2.26,8.26-7.69,13.63-.7.69-1.89.36-2.14-.59-3.64-13.97.31-19.68,1.21-24.45.53-2.83-3.73-3.72-4.36-.91-.35,1.56-.61,3.18-1.08,4.67-3.19,4.4-5.57-13.71-10.99-10.63-1.01.61-1.31,1.94-1,3.12.05.19.17.35.31.49,11.58,10.81,10.46,26.52,9.8,41.85-.23,5.27-1.23,5.22-2.45,10.17"/>
  </g>
</svg>