<?xml version="1.0" encoding="UTF-8"?>
<svg id="Layer_1" data-name="Layer 1" xmlns="http://www.w3.org/2000/svg" viewBox="0 0 954.67 525.26">
  <defs>
    <style>
      .cls-1 {
        fill: #8e8d7b;
      }

      .cls-1, .cls-2, .cls-3, .cls-4, .cls-5 {
        stroke-width: 0px;
      }

      .cls-2 {
        fill: #9e2b23;
      }

      .cls-6 {
        stroke-width: 4px;
      }

      .cls-6, .cls-7 {
        fill: #4a6173;
        stroke: #fff;
      }

      .cls-6, .cls-7, .cls-8 {
        stroke-miterlimit: 10;
      }

      .cls-3 {
        fill: #c90000;
      }

      .cls-4 {
        fill: #fff;
      }

      .cls-8 {
        fill: none;
        stroke: #d9d8c5;
        stroke-width: 2px;
      }

      .cls-5 {
        fill: #eb4034;
      }
    </style>
  </defs>
  <path class="cls-3" d="M479.07,66.44l-13.7,200.6h93l-13.7-200.6h-65.6Z"/>
  <path class="cls-4" d="M547.07,84.84h-70.7l-2.2,31h75.1l-2.2-31h0Z"/>
  <path class="cls-1" d="M408.17,267.04l1.4-122h3v-10.4h-162l-2,10,13.5.9-5.2,96-29.5.1v4.1s-4-.4-4.3,4.3c-.1,8.8-10.3,103.2-6.7,104.5,97.2,17.3,291.2,17.3,389,3.1v-76.4l10.1.1v-13.6l-207.4-.6.1-.1Z"/>
  <path class="cls-2" d="M46.17,384.04c-.3,2.7,1.1,7,2.5,10.1,48.1,114.8,179.5,124.1,288,128.3,17.2.6,33.8,1.7,50.8,1.9,150,1.3,359-5,510-9.9,3.6-.2,6.6-.8,8.6-3.1,4-5.5-4-9.2-8.1-11.6-3-1.7-6-3.7-8.7-6.2-33.2-31.8-7.2-72.9,27.5-95,6.6-4.9,11-11.4,15-18.4,3-5.7,8-16.5,7-21.1-178.8,25.4-700,26.3-887.8,22.1-2.5,0-4.4.7-4.8,2.8v.2-.1Z"/>
  <path class="cls-5" d="M16.77,289.84c-3.1-.2-9-.8-8.6,7.3,1.4,7,2.6,16,8.6,16.4,5.3,18.6,23.3,56,29.3,69.9,186.4,64.1,485.7,59,726.1,23,57.1-8.6,127.1-20.4,166.1-45.6,3.6-2.4-3.6-41,3.6-41.7,1.8-23.2-3-18.6-24-13.6-223.9,52.9-688.4,100.4-901-15.7h-.1Z"/>
  <path class="cls-1" d="M362.97,7.54l-14,127.1h20.7V7.54h-6.7Z"/>
  <circle class="cls-6" cx="256.87" cy="280.74" r="11.4"/>
  <circle class="cls-6" cx="302.57" cy="280.74" r="11.1"/>
  <circle class="cls-6" cx="426.67" cy="309.94" r="11.6"/>
  <circle class="cls-6" cx="486.07" cy="309.94" r="11.8"/>
  <path class="cls-7" d="M265.27,161.34c1.9-.8,6.7-.3,9.5-.5,5.2.2,12.6-1.4,13.7,5.5.6,6,0,13.1.2,19.3.4,6.5-4.4,7.4-10.3,7.2h-13.7c-1-.1-2.5,0-2.8-1.1,0-5.6,1.4-14.8,2-22.9.3-2.2.3-7,1.3-7.5h.1ZM291.67,160.74c-.6.4-.4,3.9-.5,6,.2,6.8-.2,17,.2,23.6.3,1.4,1.7,1.1,3,1.2h34.2c3,.1,2.9-.7,2.9-4.8v-23.8c0-2.8-.3-3-3-3h-4.5l-22.8.2h-8c-.6.1-1.1.2-1.5.6h0ZM336.27,160.74c-.6.4-.4,3.9-.5,6,.2,6.8-.2,17,.2,23.6.3,1.4,1.7,1.1,3,1.2h34.2c3,.1,2.9-.7,2.9-4.8v-23.8c0-2.8-.3-3-3-3h-4.4l-22.8.2h-8c-.6.1-1.1.2-1.5.6h-.1Z"/>
  <path class="cls-8" d="M231.17,240.64v-20.4c0-2.76,2.24-5,5-5h27c2.76,0,5,2.24,5,5v20.4h3.9v-20.4c0-2.76,2.24-5,5-5h20.4c2.76,0,5,2.24,5,5v20.4h4.5v-20.4c0-2.76,2.24-5,5-5h18.8c2.76,0,5,2.24,5,5v20.4h5v-20.4c0-2.76,2.24-5,5-5h16.3c2.76,0,5,2.24,5,5v20.4h5.4v-20.4c0-2.76,2.24-5,5-5h17.5c2.76,0,5,2.24,5,5v20.4h-168.8Z"/>
</svg>