<?xml version="1.0" encoding="UTF-8"?>
<svg id="Layer_1" data-name="Layer 1" xmlns="http://www.w3.org/2000/svg" viewBox="0 0 1024 1024">
  <defs>
    <style>
      .cls-1 {
        fill: #000;
        opacity: .11;
      }

      .cls-1, .cls-2 {
        stroke-width: 0px;
        opacity: .09;
      }

      .cls-3 {

      }

      .cls-2 {
        fill: #fff;
        opacity: .24;
      }

      .cls-4 {
        
      }
    </style>
  </defs>
    <ellipse class="cls-1" cx="512" cy="512.5" rx="473" ry="467.5"/>
    <path class="cls-1" d="M851,838c-85.88,86.88-206.77,141.11-339.36,141.11-261.23,0-473-209.31-473-467.5,0-87.52,25.02-168.57,67.36-238.61l72.51,148.51c46.06,94.34,130.67,164.15,232.05,191.45l135.39,36.46c57.76,15.55,111.96,42.14,159.62,78.28l145.43,110.3Z"/>
    <path class="cls-2" d="M683.1,176.07s146.9,128.93,117.9,275.93c109.99,2.93,114.4-.48,114.4-.48,0,0-12.4-203.52-166.24-294.96-38.45,11.91-66.05,19.52-66.05,19.52Z"/>
</svg>