<?xml version="1.0" encoding="UTF-8"?>
<svg id="Layer_1" data-name="Layer 1" xmlns="http://www.w3.org/2000/svg" viewBox="0 0 442 1426">
  <defs>
    <style>
      .cls-1 {
        fill: #0c6880;
        stroke-width: 0px;
      }
    </style>
  </defs>
  <path class="cls-1" d="M182.73,71.35c-2.43-3.18-2.85-5.37-7.73-6.64,6.36-8.14-3.38-16.58-10.24-21.29-3.28-.29-5.48,7.45-7.61,9.96,3.58-11.14-10.68-22.27-13.46-5.3-5.03-7.46-17.83-5.73-23.22-.6.33,4.94,2.9,9.82,4.63,14.52-.82.2-1.63.46-2.44.71-2.64-6.05-6.83-7.49-11.61-3.13-6.25-9.47-14.4-13.19-21.23-3.25-2.98,9.18,10.36,13.41,15.16,19.81-14.02-6.48-19.08,10.25-5.14,16.25-5.45-.31-.74,7.56-.63,10.8,2.27,1.09,5.95-.35,8.67-.15,3.99,2.45,5.63,6.23,5.68,11.23"/>
  <path class="cls-1" d="M270.49,871.58c-5.34,3.18-27.24,8.51-27.36,16.2-10.51,4.04-19.25-7.57-29.92-3.99-.03,9.84,12.85,3.94,18.3,8.21-20.39,11.48-25.67.63-32.31,8.33,2.96,2.14,7.19,1.13,10.91,1.46,4.99,2.15-12.16,8.43-7.97,13.05.89.92,2.41.85,3.52.14,7.97-13.89,23.44-18.02,38.85-18.96,4.18,2.58.84,6.67,4.66,9.88-12.13,7.18-23.13-2.79-30.17.05-1.62,7.43,9.43,4.31,12.83,6.65-2.46,3.35-10.52,4.28-10.13,9.19,7.38-.41,13.15-9.36,21.24-8.26-2.02,1.48-6.53,5.08-4.19,7.22,6.35.02,8.18-9.34,14.31-9.6.86,1.17,1.96,2.96,2.33,4.25,2.4,1.75-1.76,1.89-1.66,6.03-.38.92-1.18,2.48-1.93,2.93-14.8,4.37-30.49,5.48-42.77-4.65-1.25-.21-2.87.27-3.11,1.6-.47,6,10.87,4.52,12.74,8.47-2.27,2.8-9.47,2.41-10.3,6.11,5.07,3.86,10.91-2.35,15.9-3.73,5.51-1.46,11.62,1.28,17.09.31-6.32,7.15-13.5,4.11-15.06,11.23-.54,2.96,10.52-4.2,13.82-2.75,5.02,2.2,6.43,1.91,3.61,10.2-2.39,3.35-13.86,4.24-9.77,10.64,6.9,1.41,11.78-13.1,31.6-10.24,9.04,2.55,7.9,4.38,19.76,3.75"/>
  <path class="cls-1" d="M268.32,841.38c-10.34,3-16.19-3.74-24.11-1.23-7.37-2.73,3.16-11.93-12.85-15.57-1.98-.5-3.14,2.34-1.14,2.85,11.92,2.92,5.2,7.22,9.3,13.52-6.26-.3-10.11-7.93-15.64-10.4-5.48-4.28-16.98,3.5-18.65-3.26-.27-1.95-3.43-1.45-3.16.5,3.81,13.88,16.2-3.4,27.76,11.32-8.09-4.3-16.59-2.06-21.8,4.34-5.94-8.31-18.75-4.32-11.95-1.73,4.59-1.16,7.15,1.26,9.6,4.06l2.01,2.29c2.02,2.39,4.91,4.17,8.1,4.21-5.11,2.44-7.67,9.5-14.48,7.96-3.31.52-9.94-12.15-9.78-4.39,16.02,19.78,18.57-3.33,30.93-.81,5.78,2.89,12,6,18.48,3.12-11.13,26.66-22.29.79-37.59,13.53-1.51,1.32.53,3.7,2.05,2.37,17.16-11.04,23.22,16.34,40.12-17.06,14.17.6,7.69-5.06,21.33-.7l1.47-14.93Z"/>
  <path class="cls-1" d="M310.83,1071.69c-10.73-.92-13.76-9.31-22.05-9.82-5.89-5.2,7.24-9.99-6.39-19.15-1.67-1.18-3.77,1.05-2.09,2.25,10.07,7.02,2.25,8.61,3.81,15.96-5.73-2.53-6.58-11.03-10.86-15.33-3.58-5.96-17.11-2.84-16.23-9.75.45-1.92-2.68-2.59-3.13-.67-1.44,14.32,16.34,2.65,21.83,20.55-6-6.93-14.74-7.89-21.9-3.79-2.56-9.89-15.94-10.77-10.52-5.91,4.7.56,6.22,3.75,7.5,7.24l1.05,2.86c1.03,2.95,3.08,5.65,6.05,6.85-5.65.43-10.58,6.1-16.38,2.21-3.27-.71-4.9-14.91-7.54-7.61,7.83,24.22,18.53,3.58,29.15,10.37,4.35,4.78,9.04,9.92,16.12,9.56-19.97,20.87-21.08-7.28-39.94-.89-1.89.69-.84,3.64,1.06,2.95,19.98-4.13,15.79,23.6,43.57-1.48,13,5.66,9-1.95,20.16,7.02l6.74-13.4Z"/>
  <path class="cls-1" d="M442,10.22l-181.46,26.1c-17.41,2.5-34.35,7.67-50.14,15.41-29.99,14.7-58.96,30.62-85.68,50.2-23.77,17.08-45.99,36.83-63.04,60.53-34.82,47.24-49.17,108.83-34.56,165.84,9.83,40.08,31.41,75.09,56.78,107.89,9.22,12.21,18.75,24.22,28.12,36.25,59.88,73.6,80.86,135.25,100.83,218.58,6.06,25.3,16.7,49.29,31.28,70.84l19.71,29.14h182.18l-4-780.78Z"/>
  <path class="cls-1" d="M263.82,775v56.69c0,42.27,6.61,84.27,19.46,124.44,9.17,28.66,16.53,57.77,17.67,88.22,1.33,22.9-1.04,44.94-2.26,67.46-2.09,29.98,3.65,61.59,16.01,90.05,9.63,23.09,21.32,46.1,32.19,68.95,7.36,15.28,14.77,30.66,22.07,45.82,16.61,34.47,38.01,66.29,63.52,94.48l13.52,14.93v-651.03"/>
</svg>