<?xml version="1.0" encoding="UTF-8"?>
<svg id="Layer_1" data-name="Layer 1" xmlns="http://www.w3.org/2000/svg" viewBox="0 0 1790.03 881.6">
  <defs>
    <style>
      .cls-1 {
        fill: #0c6880;
        stroke-width: 0px;
      }
    </style>
  </defs>
  <g>
    <path class="cls-1" d="M835.95,191.29c.26-2.22,3.39-13.77,8.96-11.32,10.61,3.56,13.26-10.08,20.8-15.1-4.53-.18-9.04,2.52-12.14,5.92,4.09-13.57,21.12-17.46,26.62-30.42-7.11,6.97-16.49,9.52-23.76,16.23.88-13.89,5.02-24.77,14.88-35.27-22.47,10.98-15.46,33.14-28.11,49.99-4.1-33.55,19.17-24.7,16.47-57.59-2.34,14-9.88,22.86-19.03,32.62.78-7.23,4.11-14.09,9.3-19.42-11.27,4.78-17.29,18.96-14.04,30.55,1.58,5.02,3.3,7.64.95,12.36-6.7-7.03-9.87-9.05-5.39-19.06,2.41-7.51-1.06-14.92,1.43-22.55-4.39,4.89-4.75,11.8-5.44,17.84-1.93,5.99-6.29,13.76-1.75,19.68-5.03-3.53-1.69-11.13-1.84-16.9-4.97,5.62-9.14,16.93-1.55,21.74,3.67,1.89,5.47.83,7.88,3.71,1.64,1.91-1.61,11.49-3.25,14"/>
    <path class="cls-1" d="M1617.01,352.97c1.93-1.13,13.03-5.58,14.43.34,3.55,10.61,16.03,4.51,24.58,7.51-2.58-3.73-7.45-5.7-12.04-6.13,13.3-4.91,26.66,6.34,40.32,2.93-9.84-1.48-17.53-7.43-27.27-9.2,11.62-7.66,22.79-10.91,37.12-9.36-22.3-11.32-35.76,7.62-56.83,7.66,24.32-23.48,31.27.43,55.9-21.53-12.58,6.56-24.19,5.88-37.51,4.45,6.24-3.74,13.73-5.21,21.1-4.27-10.6-6.12-25.55-2.39-32.84,7.19-3.05,4.29-4.11,7.24-9.3,8.2,1.58-9.58,1.28-13.33,11.97-15.78,7.44-2.6,11.27-9.83,18.87-12.44-6.55-.56-12.29,3.31-17.52,6.4-5.94,2.06-14.78,3.26-16.76,10.45-.21-6.14,7.87-8.05,12.38-11.65-7.48-.58-19.02,2.9-18.29,11.86.7,4.07,2.63,4.87,1.78,8.52-.54,2.46-10.14,5.63-13.13,5.84"/>
    <path class="cls-1" d="M1639.18,594.06c1.91,1.16,11.11,8.82,6.56,12.86-7.65,8.16,3.65,16.25,5.07,25.2,2.05-4.04,1.48-9.27-.33-13.51,10.64,9.37,7.09,26.47,16.58,36.87-3.37-9.37-1.79-18.95-4.86-28.36,12.26,6.58,20.43,14.88,25.87,28.22-.63-25-23.69-27.85-33.75-46.37,32.21,10.24,14.48,27.72,45.5,38.95-11.75-7.95-16.67-18.5-21.74-30.89,6.25,3.72,11.1,9.6,13.78,16.54.35-12.24-10.04-23.62-21.93-25.48-5.22-.65-8.32-.18-11.63-4.29,9.18-3.16,12.34-5.21,19.58,3.04,5.82,5.31,14.01,5.25,19.91,10.69-2.62-6.03-8.75-9.24-13.95-12.37-4.64-4.25-9.89-11.45-17.16-9.78,5.3-3.1,10.83,3.1,16.13,5.36-3.04-6.86-11.58-15.36-19.12-10.46-3.25,2.55-3.03,4.63-6.65,5.62-2.42.7-9.77-6.24-11.37-8.78"/>
    <path class="cls-1" d="M980.57,195.51c-4.43-4.35-3-4.12-5.94-10.48-4.49-9.72,1.05-19.21-1.75-30.03-.75-1.63-1.51-3.26-2.71-.7-.29.61-.41,1.29-.36,1.96.65,7.65,1.79,8.38-.57,15.64-.3.93-1.52,1.19-2.17.46-9.65-10.73-8.77-17.62-10.16-22.27-.83-2.76-5.02-1.59-4.28,1.2.41,1.55.92,3.11,1.18,4.64-.81,5.37-11.25-9.62-14.65-4.39-.62,1.01-.27,2.33.55,3.23.13.14.31.24.5.29,15.25,4.28,21.48,18.75,27.94,32.66,2.22,4.78,1.31,5.2,2.5,10.16"/>
    <path class="cls-1" d="M973.92,191.21c5.65-3.22,3.87-3.43,7.74-9.26,5.92-8.92-.6-20.8,3.26-31.44.99-1.5,1.99-2.99,3.39.13.33.74.47,1.5.37,2.2-1.08,7.95-2.53,8.35.13,16.84.34,1.09,1.84,1.76,2.68,1.19,12.36-8.35,11.51-15.97,13.41-20.47,1.13-2.68,6.29-.09,5.27,2.65-.56,1.52-1.25,3.02-1.64,4.57.8,5.98,14.3-6.65,18.33,0,.73,1.27.25,2.57-.8,3.26-.17.11-.4.15-.63.15-19.07-.32-27.33,13.1-35.84,25.86-2.93,4.39-1.81,5.12-3.47,10.03"/>
    <path class="cls-1" d="M1201.57,171.12c-.89-3.9-.36-6.07-4.27-9.25,9.17-4.76,3.82-16.49-.46-23.62-2.86-1.63-8.08,4.5-11.06,5.9,7.89-8.65-.45-24.69-10.04-10.42-1.47-8.88-13.84-12.62-20.87-10.21-1.75,4.63-1.45,10.14-1.83,15.13-.83-.16-1.67-.26-2.51-.37.11-6.6-3.1-9.65-9.26-7.68-1.74-11.21-7.62-17.98-17.96-11.78-6.53,7.11,3.85,16.5,5.55,24.32-10.06-11.72-21.62,1.39-11.43,12.64-4.83-2.55-3.82,6.57-5.06,9.56,1.61,1.94,5.55,2.16,7.94,3.46,2.61,3.88,2.53,8.01.49,12.57"/>
    <path class="cls-1" d="M949.65,199.61c-1.94-5.9-.77-5.04-.46-12.03.48-10.7,9.76-16.58,12.25-27.47.08-1.79.16-3.59-2.09-1.86-.53.41-.96.95-1.22,1.57-2.94,7.09-2.26,8.26-7.69,13.63-.7.69-1.89.36-2.14-.59-3.64-13.97.31-19.68,1.21-24.45.53-2.83-3.73-3.72-4.36-.91-.35,1.56-.61,3.18-1.08,4.67-3.19,4.4-5.57-13.71-10.99-10.63-1.01.61-1.31,1.94-1,3.12.05.19.17.35.31.49,11.58,10.81,10.46,26.52,9.8,41.85-.23,5.27-1.23,5.22-2.45,10.17"/>
    <path class="cls-1" d="M1669.46,552.92c3.98-.44,6.07.33,9.67-3.19,3.68,9.65,15.95,5.67,23.52,2.23,1.95-2.66-3.55-8.54-4.6-11.66,7.69,8.82,24.58,2.36,11.49-8.79,8.99-.45,14.11-12.31,12.51-19.57-4.41-2.27-9.91-2.59-14.83-3.54.25-.81.45-1.63.65-2.45,6.54.86,9.94-1.98,8.68-8.33,11.34-.46,18.73-5.52,13.75-16.5-6.32-7.3-16.84,1.95-24.79,2.75,12.79-8.66,1.08-21.63-11.26-12.79,3.08-4.51-6.1-4.54-8.92-6.11-2.11,1.38-2.77,5.27-4.34,7.5-4.16,2.15-8.24,1.6-12.55-.94"/>
    <path class="cls-1" d="M-55.99,150.29c130.99,43.16,378.1-38.39,559,0,410,87,845.94,13.45,1008.05-70.08,55.37-25.98,186.7-83.7,180.95,53.08-2.27,130.28-108.73,119.64-61.42,247,5.58,15.03,36.64,35.32,44.25,89.27,1.84,13.05,1.92,26.28.55,39.38l-4.53,43.35c-21.66,54.73-74.17,68.51-131.99,81.19-53.12,11.65-106.11,22.07-160.9,28.15-81.19,9.43-166.04,10.46-246.37,26.41-49.87,9.39-463.63,121.25-1187.6,92.25V150.29Z"/>
  </g>
  <path class="cls-1" d="M565.08,164.67c-9.56-6.19-21.06-7.35-26.25-18.93-2.45-1.77-8.64.59-11.09-1.18-4.24-3.06-5.33-9.61-9.06-13.22,35.47-6.87,12.85-24.22,38.45-29.84-24.78.6-8.25,22.97-37.7,27.27,8.06-18.07,27.5-5.76,26.44-40.04-1.27,11.23-5.26,25.71-17.73,27.47,6.07-4.4,13.58-11.67,9.46-19.9,2.48,9.95-7.34,14.46-13.22,20.11.98-12.98,4.96-27.78,18.15-32.71-12.26,4.3-15.34,7.31-19.86,24.43-2.7-11.45-7.85-21.88-4.79-34.28-7.45,16.07,4.67,27.09,1.29,40.24,1.67-9.6-7.49-13.96-12.04-20.25,4.77,10.11,15.64,15.25,6.36,29.21-.93-19.68-19.69-15.05-8.78-42.66-17.46,26.5,11.68,27.18,5.16,45.99-6.95-10.94-20.2-17.65-15.7-33.44-8.62,16.64,6.78,21.96,12.09,33.25-6.48.69-12.94,1.68-19.41,2.48.61-1.32,1.03-2.71,1.21-4.12-.92,5.39-5.77,4.6-10.05,5.27,6.7-2.24,8.89-10.32,9.88-16.76-2.83,21.88-36.94,21.83-6.28,7.07-4.82,1.92-10.94,1.52-13.41,7.44,3.6-8.84,14.36-12.87,15.98-23.43-3.27,11.49-17.81,14.75-17.85,27.14-.5-9.17,11.14-21.16,2.48-30.71,4.44,8.41.36,18.49-3.94,26.38-.68-5.73-3.44-12.21,1.45-17-5.08,3.35-4.34,10.35-3.15,15.45-5.44-6.61-1.26-16.11,2.14-23.1-4.34,6.1-8.57,15.59-4.49,22.73,1.43,2.07,3.58,3.94,2.29,6.71-13.59.46,3.18-21.34-7.98-26.15,8.28,7.43-3.57,18.83,2.97,26.85-18.61,4.52-12.55-5.36-23.57-13.8,13.16-2.24,16.33-5.93,7.54-17.5-5.02-2.59-11.92,2.43-17.3,3.57,8.44-8.97,19.57-16.82,4.7-25.57,13.53-17.15-16.93-25.21-15.34-4.34-3.18-.66-5.79,1.86-6.72,4.93-1.66-4.46-7.74-2.95-11.27-1.82-5.18,2.3-3.91,10.72-2.45,15.16-52.86,3.01-30.21-7.94-52.83,51.87"/>
  <path class="cls-1" d="M996.01,708.29c2.41.39,31.02,14.72,32.2,16.86h0c1.75,6.15,4.96,6.58,10.66,5.38,7.22,2.33,15.32-1.98,20.99,4.93-4.08,1.32-4.33,6.62-3.35,10.03,1.35-2.58,1.47-6.72,4.63-7.29-3.4,1.4-5.56,15-4.98,18.48.52-3.97,3.82-6.62,4.35-10.52-.19-4.89,2.47-6.08,6.8-7.53-2.94,7.5-11.14,13.12-3.38,22.15-1.27-3.48-1.32-7.28-.07-10.72,2.15,6.32,3.74,11.88,1.72,18.71,7.71-11.11-3.41-18.44,5.06-29.5,2.08,9.66-5.79,19.81,2.14,28.45-2.32-6.8-1.85-12.57.83-19.06,3,4.57,4.73,7.52,4.17,12.91,1.6,1.82,6.03,3.44,7.66.99.22,1.74,1.45,3.33,3.31,3.23-2.83,11.36,15.09,9.17,9.1-1.03,1.41-.64,2.68-1.59,3.99-2.4,13.36,9.57,16.94-10.06,19.71,22.78,1.95-7.45,2.71-16.19-2.45-22.66,7.24-2.13,8.17,7.64,13.4,10.44-4.13-6.41-4.96-16.16-13.16-19.29,10.28,1.42,11.6,15.13,19.44,20.35-5.85-11.13-11.01-30.46-27.7-22.75,18.32-13.69,14.32,5.26,29.22.59-10.81,1.18-12.4-15.75-24.45-7.76,4.72-14.81,8.88-.37,14.32-14.4,2.52-2.37,4.26-5.25,4.31-8.87,4.05,1,5.08-2.9,7.49-4.51,6.64,6.81,15.76,13.3,26.14,9.43-.68,2.06-1.72,5.64.64,6.91,1.88.92,5.17,2.26,6.55,0,.22,1.74,1.45,3.33,3.31,3.23-1.1,6.42,2.48,8.76,8.41,6.95,2.44-2.22,2.5-6.43,3.39-9.54,3.02,6.38-2.34,13.47-.05,20.09.41-4.95,3.22-9.01,3.79-13.91,4.42,5.44,6.53,10.85,6.25,18.03,4.56-10.4-5.76-18.85-6.1-27.87,11.12,7.93,2.87,18.6,13.29,26.82-3.88-5.96-3.96-11.75-3.7-18.42,2.18,2.94,3.23,6.59,3,10.29,4.83-10.9-4.62-13.89-9.58-20.26,4.58.16,7.44.53,8.67,5.27,1.64,3.58,5.55,5.17,7.18,8.83-.38-3.4-6.45-16-10.06-16.29,3.19-.37,4.49,3.56,6.53,5.66-.1-2.84-.91-6.07-3.48-7.82,8.44-2.42,19.87-7.93,26.85,1.76-4.35,1.5-6.17,11.86-1.54,7.89-.36-3.94,3.43-4.54,5.04-7.38,1.39,4.18-2.58,7.5-1.17,11.61.5,1.84,3.47,1.43,2.97-.43-.57-1.79.13-3.24.89-4.83,1.19,2.35,2.06,4.54,1.82,7.75-.14,1.92,2.83,2.29,2.98.37,1.34-5.73-3.45-10.13-4.04-15.23.36-.07.72-.15,1.05-.21.18,3.67,3.94,4.92,5.01,8.14.85,3.15-.59,7.21,2.8,8.98,1.72.89,2.83-1.9,1.12-2.78-.96-.5-.71-3.44-.71-4.98,2.89,1.68,3.02,5.89,4.7,8.64,5.23,3.22.23-8.67-1.36-9.86-1.24-1.08-2.17-1.71-2.99-3.14,3.61.95,7.2,1.86,7.7,6.06.23,1.92,3.2,1.48,2.97-.43-.07-9.07-11.79-6.17-15.28-11.56,2.89-4.13,4.92-11.27,10.56-12.98,3.83-1.09,4.08-5.05,7.92-6.14,3.36-1.85,6.28,1.29,9.36,1.12,5.72-7.78,11.22-6.33,20.2-5.86-6.2,2.25-3.21,10.27-.63,14.33,2.37-.64,4.62-2.25,6.82-3.43-.1.46-2.99,4-2.82,5.66.93,4.78,5.65,5.23,8.5.94.43,5.32,7.91,8.07,12.42,6.95,1.34-2.67,1.45-5.94,1.96-8.89.51.13,1.02.22,1.54.33-.54,3.72,1.61,5.94,5.34,4.95.12,6.38,4.3,11.1,10.52,7.75,4.44-4.12-1.5-9.85-2.14-14.64,4.74,6.75,13.83,1.49,7.78-7,2.86,1.71,2.73-3.72,3.66-5.45-.9-1.22-3.33-1.51-4.75-2.4.11-4.06,5.09-7.87,8.6-5.22,1.56,1.25,2.23,3.64,4.14,4.21,4.53-.06,8.99-2.57,13.7-2.36-.77,2.22-2.88,2.62-4.92,2.95-2.48.78-5.74,7.35-.78,5.16,1.14-3.44,5.06-2.05,7-4.67.27.49.6.77.97,1.06-1.88,2.2-3.85,3.67-6.41,5.02-3.34,6.27,6.58.19,7.77-2.07-1.58,1.85.4,5.6,2.18,2.82,1.12-1.72.49-4.48,1.96-5.45,1.53,3.23-1.47,5.67-3.66,7.86-1,6.65,9.03-3.48,7.55-6.35,1.5.93,3.37,1.29,4.94,2.11-.29,2.25-6.59,18.09-.23,12.67.27-3.71,1.86-7.04,2.8-10.49,2.38,3.08,2.34,7.48,2.83,11.28,5.72,5.99,2-14.71-2.12-15.12-.09-.46.03-1.04-.04-1.54,8.2,9.11,9.24-5.49,23.17-5.69.19,2.88.6,5.24.13,8.21,1.85-1.44,2.7-3.94,2.75-6.23,3.06,6.4-2.32,13.5-.04,20.13.41-4.95,3.22-9.01,3.79-13.91,4.42,5.44,6.53,10.85,6.25,18.03,5.12-10.56-5.32-18.02-6.1-27.87,11.12,7.93,2.87,18.6,13.29,26.82-3.88-5.96-3.96-11.75-3.7-18.42,2.18,2.94,3.23,6.59,3,10.29,4.83-10.9-4.62-13.89-9.58-20.26,4.58.16,7.44.53,8.67,5.27,1.64,3.58,5.55,5.17,7.18,8.83-.38-3.4-6.45-16-10.05-16.29,3.19-.37,4.49,3.56,6.53,5.66.11-3.91-2.66-10-7.51-8.37,6.69-10.88,34.94-12.32,30.96,5.86.61,3.71-4.13,7.55-1.98,10.62,5.08,1.21,3.32-6.14,5-8.49,2.29,1.7,2.74,7.12,6.2,6.93-.1-4.95-6.24-8.95-5.25-14.36.68,1.42,4.86,5.3,4.99,2.25-.67-3.09-3.87-4.3-5.55-6.63,3.23-1.12,5.37,4.32,8.82,1.92,3.08,8.23,1.63,18.14-4.54,24.55-1.26,2.55,1.81,4.09,3.19,1.65,5.46-11.4,2.29-7.45,7.78-.09,3.67-5.83-4.71-7.19-1.42-22.3,4.02,2.75,2.97,11.39,9.09,10.09,1.58-5.94-6.75-9.86-8.34-15.13,8.08,1.73,50.46-51.34,56.81-56.93l-255-51-280,132ZM1379.77,694.95c0-.17,0-.32-.01-.48,3.05-.03,4.34,4.3,4.65,6.72-2.5-1.03-4.43-1.86-4.63-6.24h0ZM1374.8,696.17c-.18,3.5-3.54,2.87-3.61-.3,1.21.05,2.41.15,3.61.3ZM1115.53,756.89c2.67.11,4.87,1.36,6.65,3.28-4.35-.46-7.74-1.06-11.61-3.24,1.78-.03,3.45-.15,4.96-.04ZM1103.58,758.42c2.08.87,5.1,2.02,7.12,2.87-3.08.73-5.33-.17-7.33-2.95.07.03.14.06.21.09h0ZM1075.36,743.71c-.05-.65.01-1.3.08-2.05,1.98,3.48,4,6.45,5.54,10.02-.6.65-1.19,1.33-1.67,2.08-1.68-3.37-3.75-6.45-3.97-10.05h0Z"/>
  <path class="cls-1" d="M179.95,782.52c2.36.61,29.5,17.57,30.48,19.8h0c1.16,6.29,4.32,7.02,10.11,6.36,6.97,3,15.43-.53,20.44,6.87-4.19.94-4.93,6.18-4.28,9.67,1.59-2.44,2.1-6.56,5.3-6.82-3.52,1.07-6.94,14.41-6.69,17.94.89-3.9,4.43-6.23,5.32-10.07.27-4.89,3.03-5.82,7.48-6.86-3.63,7.19-12.32,12.02-5.45,21.74-.93-3.59-.63-7.37.93-10.68,1.54,6.49,2.61,12.18-.04,18.79,8.72-10.34-1.67-18.68,7.8-28.9,1.16,9.81-7.62,19.17-.54,28.53-1.67-6.98-.66-12.69,2.62-18.9,2.56,4.84,4,7.93,2.94,13.25,1.42,1.96,5.68,3.99,7.54,1.71.06,1.75,1.13,3.45,2.99,3.53-3.88,11.04,14.16,10.55,9.15-.17,1.47-.51,2.82-1.34,4.2-2.02,12.41,10.78,17.81-8.42,17.49,24.53,2.64-7.23,4.21-15.87-.32-22.79,7.41-1.44,7.42,8.37,12.36,11.65-3.51-6.77-3.42-16.56-11.29-20.44,10.1,2.38,10.13,16.15,17.44,22.09-4.78-11.63-8.1-31.36-25.44-25.25,19.53-11.91,13.76,6.58,29.04,3.33-10.88.16-10.87-16.85-23.61-10.02,6.09-14.3,8.88.47,15.61-13,2.73-2.12,4.73-4.83,5.13-8.42,3.94,1.37,5.33-2.41,7.88-3.79,5.97,7.4,14.44,14.72,25.14,11.84-.87,1.99-2.24,5.45-.02,6.94,1.79,1.09,4.94,2.73,6.52.61.06,1.75,1.13,3.45,2.99,3.53-1.7,6.29,1.65,8.96,7.72,7.7,2.63-1.98,3.09-6.17,4.27-9.18,2.41,6.64-3.59,13.19-1.94,20,.87-4.89,4.05-8.67,5.08-13.5,3.89,5.83,5.48,11.41,4.53,18.53,5.52-9.93-3.96-19.3-3.45-28.32,10.33,8.94,1.11,18.79,10.71,27.95-3.31-6.3-2.84-12.07-1.96-18.68,1.89,3.13,2.59,6.87,2.02,10.53,5.84-10.4-3.29-14.26-7.64-21.07,4.55.59,7.36,1.23,8.14,6.06,1.29,3.72,5.04,5.67,6.32,9.47-.06-3.42-4.92-16.54-8.49-17.16,3.21-.06,4.14,3.96,5.97,6.24.17-2.83-.33-6.13-2.73-8.11,8.63-1.61,20.53-6.03,26.56,4.27-4.47,1.09-7.26,11.23-2.27,7.71,0-3.96,3.84-4.2,5.71-6.87.99,4.29-3.27,7.23-2.26,11.45.33,1.88,3.32,1.75,3-.15-.4-1.83.44-3.22,1.34-4.72.97,2.45,1.62,4.71,1.08,7.88-.32,1.9,2.6,2.55,2.93.65,1.88-5.58-2.49-10.41-2.6-15.54.37-.04.73-.08,1.07-.11-.16,3.67,3.46,5.27,4.22,8.58.56,3.22-1.27,7.12,1.94,9.2,1.63,1.05,2.99-1.63,1.38-2.66-.91-.58-.38-3.5-.24-5.02,2.72,1.94,2.46,6.15,3.87,9.04,4.91,3.69,1.04-8.61-.43-9.94-1.13-1.19-2-1.91-2.68-3.41,3.5,1.28,7,2.53,7.09,6.76.05,1.93,3.04,1.78,3-.15.78-9.04-11.16-7.25-14.13-12.94,3.27-3.84,5.96-10.76,11.73-11.94,3.92-.72,4.54-4.65,8.46-5.37,3.52-1.52,6.13,1.88,9.21,1.99,6.43-7.21,11.77-5.25,20.67-3.94-6.38,1.66-4.16,9.93-1.98,14.21,2.42-.41,4.81-1.81,7.11-2.78-.15.45-3.35,3.71-3.34,5.37.48,4.84,5.13,5.74,8.37,1.73-.07,5.34,7.12,8.78,11.71,8.08,1.58-2.53,2-5.78,2.78-8.66.5.17,1,.32,1.51.47-.88,3.65,1.04,6.06,4.85,5.43-.48,6.36,3.24,11.46,9.75,8.7,4.81-3.68-.57-9.94-.76-14.78,4.08,7.16,13.63,2.78,8.4-6.24,2.68,1.98,3.07-3.45,4.16-5.08-.78-1.3-3.18-1.82-4.5-2.83.49-4.03,5.8-7.36,9.05-4.39,1.43,1.39,1.88,3.83,3.73,4.58,4.51.37,9.19-1.71,13.86-1.06-.97,2.14-3.11,2.34-5.18,2.48-2.55.54-6.4,6.78-1.26,5.06,1.46-3.32,5.23-1.57,7.41-3.99.23.51.52.82.87,1.15-2.08,2.01-4.18,3.29-6.85,4.4-3.91,5.93,6.53.81,7.93-1.33-1.75,1.69-.12,5.61,1.91,3.02,1.28-1.61.91-4.41,2.47-5.24,1.22,3.36-1.99,5.51-4.38,7.48-1.62,6.53,9.32-2.62,8.11-5.61,1.41,1.07,3.24,1.6,4.72,2.56-.5,2.21-8.26,17.4-1.42,12.59.61-3.67,2.51-6.84,3.77-10.18,2.08,3.29,1.62,7.67,1.76,11.5,5.13,6.5,3.37-14.46-.69-15.25-.04-.47.13-1.03.1-1.54,7.31,9.84,9.72-4.6,23.6-3.49-.08,2.89.11,5.27-.64,8.18,1.98-1.26,3.06-3.67,3.32-5.95,2.44,6.65-3.58,13.22-1.93,20.03.87-4.89,4.05-8.67,5.08-13.5,3.89,5.83,5.48,11.41,4.53,18.53,6.08-10.03-3.61-18.44-3.45-28.32,10.33,8.94,1.11,18.79,10.71,27.95-3.31-6.3-2.84-12.07-1.96-18.68,1.89,3.13,2.59,6.87,2.02,10.53,5.84-10.4-3.29-14.26-7.64-21.07,4.55.59,7.36,1.23,8.14,6.06,1.29,3.72,5.04,5.67,6.32,9.47-.06-3.42-4.92-16.54-8.48-17.16,3.21-.06,4.14,3.96,5.97,6.24.47-3.88-1.71-10.21-6.69-9.04,7.68-10.21,35.95-8.99,30.28,8.74.26,3.75-4.82,7.13-2.96,10.39,4.94,1.68,3.88-5.81,5.78-7.99,2.12,1.9,2.06,7.34,5.52,7.48.37-4.94-5.37-9.5-3.88-14.79.55,1.47,4.34,5.74,4.75,2.71-.38-3.13-3.45-4.64-4.9-7.12,3.32-.81,4.94,4.8,8.6,2.74,2.3,8.48-.08,18.22-6.82,24.02-1.5,2.42,1.42,4.24,3.02,1.94,6.5-10.84,2.98-7.2,7.75.64,4.21-5.46-4.01-7.6.68-22.33,3.74,3.11,1.89,11.62,8.1,10.9,2.13-5.77-5.79-10.45-6.88-15.85,7.88,2.48,55.06-46.38,61.9-51.34l-249.09-74.7-291.15,105.14ZM563.27,805.25c.01-.17.02-.32.04-.48,3.04.25,3.91,4.69,4,7.12-2.39-1.26-4.23-2.27-4.03-6.64h0ZM558.21,806c-.5,3.47-3.8,2.53-3.57-.64,1.2.16,2.38.38,3.57.64ZM294.38,842.12c2.65.36,4.72,1.81,6.32,3.89-4.29-.86-7.61-1.78-11.26-4.32,1.78.14,3.45.17,4.94.43ZM282.34,842.52c1.99,1.06,4.88,2.49,6.82,3.53-3.13.44-5.29-.67-7.02-3.63.06.04.13.07.2.11h0ZM255.62,825.22c0-.65.13-1.29.28-2.04,1.65,3.65,3.38,6.8,4.57,10.5-.66.59-1.31,1.21-1.85,1.92-1.35-3.52-3.13-6.77-3-10.38h0Z"/>
</svg>