<?xml version="1.0" encoding="UTF-8"?>
<svg id="Layer_1" data-name="Layer 1" xmlns="http://www.w3.org/2000/svg" viewBox="0 0 826.83 114.54">
  <defs>
    <style>
      .cls-1 {
        fill: #ffffff;
        stroke-width: 0px;
      }
    </style>
  </defs>
    <path class="cls-1" d="M51.27,109.93c-1.21.56-2.67.85-4.36.85-2.83,0-5.27-.91-7.33-2.73-2.06-1.82-3.25-4.1-3.58-6.85-2.34-2.18-3.52-4.85-3.52-8,0-1.46.36-3.07,1.09-4.85-1.94-.89-3.54-2.24-4.79-4.06-1.25-1.82-1.88-3.82-1.88-6,0-2.02.52-3.88,1.58-5.58-.16-.81-.24-1.41-.24-1.82,0-2.99,1.05-5.53,3.15-7.64,0-.08.02-.24.06-.48.04-.24.1-.4.18-.48-.81-1.37-1.21-3.03-1.21-4.97s.44-3.72,1.33-5.33c-1.94-2.1-2.91-4.52-2.91-7.27,0-2.18.61-4.2,1.82-6.06-1.29,0-2.51-.24-3.64-.73-.81.24-1.66.36-2.55.36-4.36,0-7.6-1.94-9.7-5.82-1.37.41-2.67.61-3.88.61-2.99,0-5.55-1.07-7.7-3.21-2.14-2.14-3.21-4.71-3.21-7.7,0-.97.08-1.7.24-2.18.48-4.12,2.59-6.99,6.3-8.6.81-2.1,2.14-3.8,4-5.09,1.86-1.29,3.92-1.94,6.18-1.94.4,0,.73.04.97.12,2.1-2.58,4.85-3.88,8.24-3.88,2.83,0,5.37,1.01,7.64,3.03l.24.24c2.18-2.18,4.77-3.27,7.76-3.27,1.29,0,2.67.28,4.12.85,1.62-.89,3.31-1.33,5.09-1.33,2.67,0,4.97.85,6.91,2.55,2.1-1.7,4.4-2.55,6.91-2.55,2.34,0,4.4.65,6.18,1.94,1.13-.16,1.94-.24,2.42-.24,3.96,0,7.03,1.7,9.21,5.09,1.86.89,3.33,2.2,4.42,3.94,1.09,1.74,1.64,3.66,1.64,5.76,0,1.86-.4,3.56-1.21,5.09-.16,2.91-1.27,5.38-3.33,7.39-2.06,2.02-4.59,3.03-7.57,3.03-1.62,0-3.23-.4-4.85-1.21-1.86,2.5-4.28,3.96-7.27,4.36.08.49.12,1.21.12,2.18,0,2.26-.65,4.36-1.94,6.3,1.94,2.1,2.91,4.57,2.91,7.39,0,1.86-.53,3.72-1.58,5.57,2.26,2.1,3.39,4.69,3.39,7.76s-1.05,5.66-3.15,7.76c2.26,2.1,3.39,4.77,3.39,8,0,4.2-1.9,7.39-5.7,9.57,0,.16.04.36.12.61.08.24.16.44.24.61,3.15,2.1,4.73,5.13,4.73,9.09,0,2.99-1.07,5.55-3.21,7.7-2.14,2.14-4.71,3.21-7.7,3.21-1.78,0-3.31-.36-4.61-1.09Z"/>
    <path class="cls-1" d="M166.17,33.33c2.99,0,5.55,1.07,7.7,3.21,2.14,2.14,3.21,4.71,3.21,7.7,0,.24-.02.53-.06.85-.04.32-.06.61-.06.85,3.07,2.1,4.61,5.09,4.61,8.97,0,2.75-1.01,5.21-3.03,7.39,2.58,2.18,3.88,4.97,3.88,8.36s-1.33,6.38-4,8.48c.32,1.29.48,2.3.48,3.03,0,3.88-1.66,6.91-4.97,9.09,2.1,2.26,3.15,4.81,3.15,7.63,0,2.99-1.07,5.55-3.21,7.7-2.14,2.14-4.71,3.21-7.7,3.21-1.05,0-1.82-.08-2.3-.24-1.7,1.05-3.52,1.58-5.45,1.58-2.99,0-5.56-1.07-7.7-3.21-2.14-2.14-3.21-4.71-3.21-7.7,0-1.78.36-3.39,1.09-4.85-.24-.97-.36-1.94-.36-2.91,0-2.5.73-4.68,2.18-6.54-.65-.89-1.13-1.78-1.45-2.67-1.21-1.86-1.82-3.88-1.82-6.06,0-2.42.69-4.56,2.06-6.42-.08-.16-.12-.49-.12-.97,0-.24.02-.54.06-.91.04-.36.06-.62.06-.79-3.07-2.1-4.61-5.09-4.61-8.97-1.7-.32-3.23-1.13-4.61-2.42-.97,1.29-2.42,2.34-4.36,3.15v.97c0,3.56-1.38,6.38-4.12,8.48,2.99,2.34,4.48,5.33,4.48,8.97s-1.45,6.46-4.36,8.73c1.94,2.1,2.91,4.57,2.91,7.39,0,2.99-1.05,5.55-3.15,7.7-2.1,2.14-4.69,3.21-7.76,3.21-.73,0-1.29-.04-1.7-.12-1.7,1.05-3.6,1.58-5.7,1.58-2.99,0-5.56-1.07-7.7-3.21-2.14-2.14-3.21-4.71-3.21-7.7,0-3.15,1.17-5.82,3.51-8-2.34-2.18-3.51-4.85-3.51-8,0-.97.24-2.26.73-3.88-.48-1.62-.73-2.91-.73-3.88,0-3.47,1.37-6.3,4.12-8.48-1.78-2.18-2.67-4.56-2.67-7.15,0-.73.16-1.82.48-3.27-.32-1.29-.48-2.34-.48-3.15,0-1.37.24-2.67.73-3.88-.97-1.78-1.45-3.55-1.45-5.33,0-2.26.65-4.28,1.94-6.06,0-.24.08-.44.24-.61-.57-1.21-.85-2.67-.85-4.36,0-1.86.4-3.47,1.21-4.85-2.26-2.26-3.39-4.89-3.39-7.88,0-2.67.87-5.03,2.61-7.09,1.74-2.06,3.9-3.29,6.48-3.7.97-1.86,2.34-3.37,4.12-4.55,1.78-1.17,3.72-1.76,5.82-1.76,2.99,0,5.55,1.07,7.7,3.21,2.14,2.14,3.21,4.71,3.21,7.7,0,1.13-.12,2.1-.36,2.91,2.5,2.26,3.76,5.01,3.76,8.24,0,1.45-.24,2.83-.73,4.12.81-.16,1.41-.24,1.82-.24,2.18,0,4.2.61,6.06,1.82,1.21-.56,2.62-.85,4.24-.85,3.8,0,6.75,1.5,8.85,4.48,1.21.89,2.14,1.86,2.79,2.91,1.53-.65,3.07-.97,4.61-.97Z"/>
    <path class="cls-1" d="M251.49,32.97c1.86-.81,3.72-1.21,5.58-1.21,3.55,0,6.61,1.23,9.15,3.7,2.54,2.47,3.9,5.48,4.06,9.03.73,1.45,1.09,2.99,1.09,4.61,0,1.78-.44,3.47-1.33,5.09,1.37,1.78,2.06,3.88,2.06,6.3,0,2.99-1.07,5.56-3.21,7.7-2.14,2.14-4.71,3.21-7.7,3.21h-.61c-2.18,3.39-5.29,5.09-9.33,5.09-1.78,0-3.39-.36-4.85-1.09-2.02,1.45-4.24,2.18-6.67,2.18h-1.21c.73,1.29,1.09,2.75,1.09,4.36,0,.97-.08,1.7-.24,2.18.4.08,1.09.36,2.06.85l.73-.36c2.1-2.91,4.97-4.36,8.61-4.36,1.37,0,2.75.28,4.12.85,2.02-1.45,4.2-2.18,6.54-2.18,3.23,0,5.9,1.17,8,3.52,2.02.89,3.65,2.24,4.91,4.06,1.25,1.82,1.88,3.86,1.88,6.12,0,2.99-1.07,5.56-3.21,7.7-2.14,2.14-4.71,3.21-7.7,3.21-.41,0-.73-.04-.97-.12-1.45,1.21-3.15,1.94-5.09,2.18-.41,2.58-1.62,4.73-3.64,6.42-2.02,1.7-4.36,2.55-7.03,2.55-4.28,0-7.47-1.86-9.57-5.58-2.18,2.34-4.89,3.51-8.12,3.51-3.8,0-6.83-1.62-9.09-4.85-1.38.81-3.03,1.21-4.97,1.21-2.99,0-5.56-1.05-7.7-3.15-2.14-2.1-3.21-4.69-3.21-7.76,0-1.7.36-3.27,1.09-4.73-.73-.81-1.21-1.86-1.45-3.15-2.42-2.02-3.64-4.73-3.64-8.12,0-1.13.16-2.18.48-3.15-.97-1.62-1.45-3.43-1.45-5.45,0-1.46.2-2.62.61-3.52-.41-.89-.61-2.06-.61-3.51,0-2.34.61-4.4,1.82-6.18,0-.24-.02-.56-.06-.97-.04-.4-.06-.69-.06-.85,0-3.8,1.49-6.87,4.48-9.21.97-2.42,2.67-4.28,5.09-5.58.4-2.58,1.62-4.71,3.64-6.36,2.02-1.65,4.36-2.48,7.03-2.48h.85c2.02-4.2,5.33-6.3,9.94-6.3.56,0,1.41.08,2.55.24,1.53-.97,3.39-1.45,5.58-1.45,4.44,0,7.68,1.94,9.7,5.82ZM241.79,51.63c-.32,1.45-1.01,2.83-2.06,4.12,1.53,0,3.19.4,4.97,1.21.89-.81,2.1-1.41,3.64-1.82-2.02-1.78-3.39-3.96-4.12-6.54-.57,1.05-1.38,2.06-2.42,3.03Z"/>
    <path class="cls-1" d="M424.32,13.7c2.99,0,5.55,1.07,7.7,3.21,2.14,2.14,3.21,4.71,3.21,7.7,0,1.54-.2,2.75-.61,3.63v.73c2.02.89,3.65,2.24,4.91,4.06,1.25,1.82,1.88,3.82,1.88,6,0,1.94-.48,3.72-1.46,5.33.97,1.62,1.46,3.39,1.46,5.33,0,1.05-.16,2.02-.48,2.91,3.8,2.02,5.7,5.21,5.7,9.58,0,4.04-1.74,7.11-5.21,9.21v.61c0,2.42-.77,4.63-2.3,6.61-1.54,1.98-3.47,3.29-5.82,3.94l-.36.36c0,.16.02.45.06.85.04.41.06.73.06.97,0,2.99-1.01,5.51-3.03,7.57-2.02,2.06-4.48,3.17-7.39,3.33v.73c0,2.99-1.05,5.55-3.15,7.7-2.1,2.14-4.69,3.21-7.76,3.21-3.8,0-6.79-1.62-8.97-4.85-.49,2.58-1.74,4.75-3.76,6.48-2.02,1.74-4.36,2.61-7.03,2.61-3.8,0-6.75-1.5-8.85-4.48-3.64-.24-6.38-1.9-8.24-4.97-.41.08-1.05.12-1.94.12-2.99,0-5.56-1.05-7.7-3.15-2.14-2.1-3.21-4.65-3.21-7.64-3.72-2.1-5.58-5.25-5.58-9.45,0-.65.08-1.37.24-2.18h-.24c-1.94,0-3.6-.69-4.97-2.06-1.38-1.37-2.06-3.03-2.06-4.97,0-1.29.32-2.46.97-3.51-3.48-2.91-5.21-6.62-5.21-11.15,0-2.75.73-5.29,2.18-7.64,1.45-2.34,3.39-4.08,5.82-5.21-2.34-2.18-3.51-4.89-3.51-8.12,0-2.91.99-5.41,2.97-7.51,1.98-2.1,4.42-3.19,7.33-3.27.08-.08.36-.24.85-.49-1.62-1.86-2.42-4-2.42-6.42,0-2.67.93-4.93,2.79-6.79s4.12-2.79,6.79-2.79c1.62,0,3.15.41,4.61,1.21.56-2.5,1.84-4.58,3.82-6.24,1.98-1.66,4.3-2.49,6.97-2.49,3.39,0,6.14,1.29,8.24,3.88,1.86-1.05,3.72-1.57,5.58-1.57,1.53,0,3.11.4,4.73,1.21.97.32,2.06.93,3.27,1.82,1.62-.89,3.39-1.33,5.33-1.33,2.42,0,4.62.75,6.61,2.24,1.98,1.5,3.29,3.41,3.94,5.76,1.21-.4,2.3-.61,3.27-.61ZM379.72,47.87c.56,1.54.85,2.91.85,4.12,0,2.51-.77,4.73-2.3,6.67.48,1.29.73,2.71.73,4.24,0,1.05-.12,2.1-.36,3.15,1.29,1.78,1.94,3.8,1.94,6.06,2.67.73,4.73,2.22,6.18,4.48,1.21-.81,2.59-1.29,4.12-1.45,2.42-1.62,4.93-2.42,7.51-2.42,2.34,0,4.56.65,6.67,1.94,1.21-1.78,2.83-3.11,4.85-4,0-.89.12-1.78.36-2.67-1.7-1.94-2.54-4.28-2.54-7.03,0-2.18.56-4.16,1.7-5.94,1.13-1.78,2.62-3.11,4.48-4v-.48c0-1.37.24-2.67.73-3.88h-.12c-3.07,0-5.68-1.09-7.82-3.27-2.14-2.18-3.21-4.81-3.21-7.88v-.36c-2.91-.73-5.13-2.38-6.67-4.97-2.18,3.39-5.21,5.09-9.09,5.09-.08.08-.2.22-.36.42-.16.2-.28.38-.36.54,0,.08.02.28.06.61.04.32.06.57.06.73,0,2.34-.69,4.47-2.06,6.36-1.38,1.9-3.15,3.21-5.33,3.94Z"/>
    <path class="cls-1" d="M511.71,29.69c3.07,0,5.66,1.07,7.76,3.21,2.1,2.14,3.15,4.71,3.15,7.7,0,1.54-.32,3.07-.97,4.61,1.62,2.02,2.42,4.28,2.42,6.79,0,2.99-1.07,5.56-3.21,7.7-2.14,2.14-4.71,3.21-7.7,3.21-4.2,0-7.39-1.82-9.57-5.45-.89-.32-1.78-.81-2.67-1.45-2.1,2.91-5.01,4.36-8.73,4.36-.41,0-.69-.04-.85-.12-.24,1.94-.97,3.72-2.18,5.33.65,1.54.97,3.07.97,4.61v.36c2.42.41,4.44,1.42,6.06,3.03,1.29.16,2.46.4,3.51.73,2.1-2.1,4.65-3.15,7.64-3.15h.73c2.1-2.91,5.01-4.36,8.73-4.36,1.7,0,3.27.36,4.73,1.09.89-.32,1.94-.48,3.15-.48,3.07,0,5.65,1.05,7.76,3.15,2.1,2.1,3.15,4.65,3.15,7.64.89,1.54,1.33,3.19,1.33,4.97,0,2.59-.81,4.85-2.42,6.79-1.62,1.94-3.64,3.23-6.06,3.88.08.16.12.48.12.97,0,3.07-1.07,5.66-3.21,7.76-2.14,2.1-4.71,3.15-7.7,3.15-3.15,0-5.74-1.09-7.76-3.27-1.46.65-2.91.97-4.36.97-2.1,0-4.04-.57-5.82-1.7-2.1,1.86-4.48,2.79-7.15,2.79-1.45.65-2.95.97-4.48.97-4.28,0-7.43-1.9-9.45-5.7h-.97c-4.44,0-7.68-1.94-9.7-5.82-2.26-.73-4.12-2.06-5.58-4-1.46-1.94-2.18-4.12-2.18-6.54,0-2.75.85-5.05,2.54-6.91-.16-.48-.24-1.21-.24-2.18,0-.89.04-1.53.12-1.94-1.38-1.86-2.06-4-2.06-6.42s.73-4.52,2.18-6.54c-.89-1.62-1.33-3.39-1.33-5.33,0-2.83.93-5.27,2.79-7.33,1.86-2.06,4.16-3.21,6.91-3.46.48-2.42,1.68-4.48,3.58-6.18,1.9-1.7,4.1-2.58,6.61-2.67.89-1.78,2.2-3.23,3.94-4.36,1.74-1.13,3.66-1.7,5.76-1.7.89,0,1.7.12,2.42.36,2.02-2.02,4.52-3.03,7.51-3.03,3.64,0,6.5,1.38,8.61,4.12.49-.08,1.21-.12,2.18-.12Z"/>
    <path class="cls-1" d="M611.33,32.97c1.86-.81,3.71-1.21,5.58-1.21,3.55,0,6.61,1.23,9.15,3.7,2.54,2.47,3.9,5.48,4.06,9.03.73,1.45,1.09,2.99,1.09,4.61,0,1.78-.45,3.47-1.33,5.09,1.37,1.78,2.06,3.88,2.06,6.3,0,2.99-1.07,5.56-3.21,7.7-2.14,2.14-4.71,3.21-7.7,3.21h-.61c-2.18,3.39-5.29,5.09-9.33,5.09-1.78,0-3.39-.36-4.85-1.09-2.02,1.45-4.24,2.18-6.67,2.18h-1.21c.73,1.29,1.09,2.75,1.09,4.36,0,.97-.08,1.7-.24,2.18.4.08,1.09.36,2.06.85l.73-.36c2.1-2.91,4.97-4.36,8.61-4.36,1.37,0,2.75.28,4.12.85,2.02-1.45,4.2-2.18,6.54-2.18,3.23,0,5.9,1.17,8,3.52,2.02.89,3.65,2.24,4.91,4.06,1.25,1.82,1.88,3.86,1.88,6.12,0,2.99-1.07,5.56-3.21,7.7-2.14,2.14-4.71,3.21-7.7,3.21-.41,0-.73-.04-.97-.12-1.45,1.21-3.15,1.94-5.09,2.18-.41,2.58-1.62,4.73-3.64,6.42-2.02,1.7-4.36,2.55-7.03,2.55-4.28,0-7.47-1.86-9.58-5.58-2.18,2.34-4.89,3.51-8.12,3.51-3.8,0-6.83-1.62-9.09-4.85-1.38.81-3.03,1.21-4.97,1.21-2.99,0-5.56-1.05-7.7-3.15-2.14-2.1-3.21-4.69-3.21-7.76,0-1.7.36-3.27,1.09-4.73-.73-.81-1.21-1.86-1.45-3.15-2.42-2.02-3.64-4.73-3.64-8.12,0-1.13.16-2.18.48-3.15-.97-1.62-1.45-3.43-1.45-5.45,0-1.46.2-2.62.61-3.52-.41-.89-.61-2.06-.61-3.51,0-2.34.61-4.4,1.82-6.18,0-.24-.02-.56-.06-.97-.04-.4-.06-.69-.06-.85,0-3.8,1.49-6.87,4.48-9.21.97-2.42,2.67-4.28,5.09-5.58.4-2.58,1.62-4.71,3.64-6.36,2.02-1.65,4.36-2.48,7.03-2.48h.85c2.02-4.2,5.33-6.3,9.94-6.3.56,0,1.41.08,2.54.24,1.53-.97,3.39-1.45,5.58-1.45,4.44,0,7.67,1.94,9.7,5.82ZM601.64,51.63c-.32,1.45-1.01,2.83-2.06,4.12,1.53,0,3.19.4,4.97,1.21.89-.81,2.1-1.41,3.64-1.82-2.02-1.78-3.39-3.96-4.12-6.54-.57,1.05-1.38,2.06-2.42,3.03Z"/>
    <path class="cls-1" d="M723.32,109.32c-1.21.48-2.54.73-4,.73-2.91,0-5.42-1.01-7.51-3.03-2.1-2.02-3.23-4.45-3.39-7.27-.08,0-.22-.02-.42-.06-.2-.04-.34-.06-.42-.06-.89,1.94-2.24,3.51-4.06,4.73-1.82,1.21-3.82,1.82-6,1.82-2.59,0-4.85-.77-6.79-2.3-.49.08-1.17.12-2.06.12-3.07,0-5.66-1.05-7.76-3.15-1.13-.73-2.02-1.45-2.67-2.18-1.29.32-2.34.49-3.15.49-4.12,0-7.27-1.82-9.45-5.45-2.02-.89-3.66-2.24-4.91-4.06-1.25-1.82-1.88-3.86-1.88-6.12,0-.89.12-1.82.36-2.79-1.86-2.1-2.79-4.52-2.79-7.27,0-.81.04-1.41.12-1.82-1.45-2.02-2.18-4.2-2.18-6.54,0-3.55,1.45-6.46,4.36-8.73-.08-.4-.12-1.05-.12-1.94,0-2.1.56-4.02,1.7-5.76,1.13-1.74,2.58-3.05,4.36-3.94.97-3.47,3.15-5.94,6.54-7.39.89-1.94,2.24-3.51,4.06-4.73,1.82-1.21,3.82-1.82,6-1.82,3.72,0,6.62,1.45,8.73,4.36.08,0,.24-.02.49-.06.24-.04.4-.1.48-.18,2.1-3.88,5.33-5.82,9.7-5.82,2.58,0,4.85.81,6.79,2.42,1.94,1.62,3.23,3.64,3.88,6.06,1.46-.65,2.91-.97,4.36-.97,4.69,0,8,2.18,9.94,6.54,2.83,2.26,4.24,5.13,4.24,8.61,0,1.05-.2,2.18-.61,3.39,3.8,1.62,5.94,4.36,6.42,8.24,1.7,2.1,2.55,4.41,2.55,6.91,0,1.86-.45,3.6-1.33,5.21,1.21,2.02,1.82,4.08,1.82,6.18,0,1.86-.45,3.6-1.33,5.21.89,1.62,1.33,3.35,1.33,5.21s-.45,3.72-1.33,5.33c.08.24.12.73.12,1.45,0,2.99-1.07,5.55-3.21,7.7-2.14,2.14-4.71,3.21-7.7,3.21-.73,0-1.82-.16-3.27-.48ZM698.6,76.84c.89-2.99,2.75-5.21,5.58-6.67-.32-.56-.61-1.33-.85-2.3-3.07-2.1-4.61-5.05-4.61-8.85,0-.65.04-1.09.12-1.33-.81-.56-1.5-1.17-2.06-1.82-.89.4-2.06.61-3.51.61h-.36c-.89,3.72-3.15,6.22-6.79,7.51.56,1.21.85,2.63.85,4.24s-.32,3.03-.97,4.48c1.78,1.29,3.03,2.87,3.76,4.73,1.53-.81,3.19-1.21,4.97-1.21,1.21,0,2.5.2,3.88.61Z"/>
    <path class="cls-1" d="M823.07,89.45c1.37,1.86,2.06,4,2.06,6.42,0,3.07-1.07,5.68-3.21,7.82-2.14,2.14-4.71,3.21-7.7,3.21-.41,0-1.01-.08-1.82-.24-2.02,1.78-4.41,2.67-7.15,2.67s-5.03-.85-7.09-2.54c-2.06-1.7-3.29-3.84-3.7-6.42-2.67-2.26-4-5.09-4-8.48,0-2.99,1.13-5.62,3.39-7.88-.08-.32-.12-.85-.12-1.58,0-2.83.93-5.29,2.79-7.39-.32-.89-.49-1.98-.49-3.27,0-.73.04-1.25.12-1.58-3.56-2.18-5.33-5.29-5.33-9.33,0-1.62.28-3.03.85-4.24-.16-.16-.24-.32-.24-.48-1.94,1.54-4.2,2.3-6.79,2.3h-1.21c-.08,1.62-.45,3.07-1.09,4.36,1.45,2.02,2.18,4.24,2.18,6.67,0,1.7-.36,3.23-1.09,4.61.08.41.12,1.01.12,1.82,0,3.56-1.33,6.38-4,8.48-.16.48-.41,1.13-.73,1.94,2.02,2.26,3.03,4.81,3.03,7.64,0,2.59-.81,4.85-2.42,6.79-1.62,1.94-3.64,3.23-6.06,3.88-2.26,2.91-5.21,4.36-8.85,4.36-2.99,0-5.56-1.07-7.7-3.21s-3.21-4.71-3.21-7.7c0-.56.08-1.41.24-2.54-1.37-1.86-2.06-4-2.06-6.42,0-4.2,1.74-7.35,5.21-9.45-2.67-2.1-4-4.89-4-8.36,0-3.88,1.62-6.91,4.85-9.09-1.29-1.94-1.94-4-1.94-6.18v-.97c-.49-1.21-.73-2.55-.73-4,0-3.55,1.37-6.38,4.12-8.48-1.21-1.86-1.82-3.88-1.82-6.06,0-.16.02-.38.06-.67.04-.28.06-.5.06-.67-.32-1.29-.48-2.34-.48-3.15,0-2.99,1.07-5.55,3.21-7.7s4.75-3.21,7.82-3.21c2.5,0,4.73.73,6.67,2.18,1.94,1.46,3.23,3.35,3.88,5.7,1.78.57,3.15,1.33,4.12,2.3,2.26-2.26,4.93-3.39,8-3.39,1.78,0,3.64.48,5.58,1.46,1.94-1.7,4.28-2.54,7.03-2.54s4.99.83,6.97,2.48c1.98,1.66,3.21,3.74,3.7,6.24,3.55,1.7,5.66,4.41,6.3,8.12,2.1,2.26,3.15,4.85,3.15,7.76,0,1.94-.53,3.84-1.58,5.7,2.26,2.1,3.39,4.73,3.39,7.88,0,2.83-1.01,5.33-3.03,7.51,2.99,2.35,4.48,5.29,4.48,8.85,0,3.31-1.25,6.02-3.76,8.12Z"/>
</svg>