<svg xmlns="http://www.w3.org/2000/svg" viewBox="0 0 1440 320"><path fill="#6fc2c5" d="M0,288L26.7,250.7C53.3,213,107,139,160,144C213.3,149,267,235,320,240C373.3,245,427,171,480,138.7C533.3,107,587,117,640,101.3C693.3,85,747,43,800,21.3C853.3,0,907,0,960,42.7C1013.3,85,1067,171,1120,197.3C1173.3,224,1227,192,1280,202.7C1333.3,213,1387,267,1413,293.3L1440,320L1440,320L1413.3,320C1386.7,320,1333,320,1280,320C1226.7,320,1173,320,1120,320C1066.7,320,1013,320,960,320C906.7,320,853,320,800,320C746.7,320,693,320,640,320C586.7,320,533,320,480,320C426.7,320,373,320,320,320C266.7,320,213,320,160,320C106.7,320,53,320,27,320L0,320Z"></path></svg>