<?xml version="1.0" encoding="UTF-8"?>
<svg id="Layer_2" data-name="Layer 2" xmlns="http://www.w3.org/2000/svg" viewBox="0 0 52.07 199.8">
  <g id="Layer_1-2" data-name="Layer 1">
    <g>
      <path d="M13.53,2.85c.09-1.18.69-1.86,1.9-1.96.46.27.96.45,1.5.52,6.24.26,12.48-.25,18.71.29.52.14,1.01.37,1.46.68,1.5,1.18.93,2.9,1.15,4.42-.93,3.55-1.48,6.97.07,10.65.77,1.81.11,4.23.1,6.37-1.1,4.21-.27,8.49-.52,12.72.03,1.3-.76,2.53-.41,3.83,1.01-4.27-.37-8.68,1.07-12.86,1.37,10.24.83,20.57,1.5,30.84.31,4.7,1.58,8.8,4.76,12.24,5.5,5.97,7.42,12.96,7.23,21.04-.66,27.92-1,55.86-1.37,83.79-.05,4.14.43,8.29.6,12.44.21,5.18-2.35,8.64-6.88,10.83-12.33-.03-24.65.06-36.98-.06-4.86-1.81-6.85-5.58-6.76-10.48.12-6.81.49-13.62.76-20.43,2.71.76,1.23,2.95,1.41,4.47.26,2.12.07,4.3.1,6.45.01-16.67-2-33.28-1.6-49.97.29-11.79.34-23.59-.12-35.39-.86-2.44.47-5.13-.86-7.52-.42-5.22,2-9.45,5.23-13.06,4.47-5,6.37-10.59,6.46-17.26.16-11.65.9-23.28,1.26-34.93.14-4.5,2.85-8.87.7-13.49.41-1.46-.14-2.8-.48-4.17Z" style="fill: #241f21; stroke-width: 0px;"/>
      <path d="M1.42,92.77c1.63,1.48.96,3.43.97,5.18.06,12.99.14,25.98,0,38.96-.17,15.36,1.73,30.66,1.09,46.35-2.66-5.1.59-10.75-2.05-15.54-.38-4.82-.65-9.64-.08-14.46-.91-11.07-.12-22.16-.42-33.24-.2-7.42.62-14.86-.49-22.25,0-1-.02-2-.02-3,.69-.49.32-1.52,1.01-2Z" style="fill: #1f1d1e; stroke-width: 0px;"/>
      <path d="M7.43,198.63c1.16-1.33,2.73-.92,4.17-.92,9.56-.03,19.12-.03,28.68,0,1.43,0,3.01-.41,4.14.98-1.57,1.26-3.44,1.08-5.25,1.08-8.83.02-17.66.02-26.48,0-1.82,0-3.69.13-5.25-1.15Z" style="fill: #1f1c1d; stroke-width: 0px;"/>
      <path d="M.43,97.77c1.24.98.98,2.38.98,3.68-.02,17.27-.05,34.54-.07,51.81-1.25-9.21-.57-18.47-.81-27.71-.25-9.25-.08-18.51-.1-27.77Z" style="fill: #241f21; stroke-width: 0px;"/>
      <path d="M15.42,1.79c.02-.3.02-.6,0-.9,7.39-.71,14.79-1.89,22.08.72.31.41.27.78-.11,1.12-.3,0-.6.03-.89.06-5.06-1.03-10.17-.19-15.25-.49-1.94-.12-3.96.53-5.82-.5Z" style="fill: #141212; stroke-width: 0px;"/>
      <path d="M38.57,27.5c-.05,4.57-.07,9.14-.18,13.71-.04,1.57.53,3.31-.96,4.59-.8-2.66-.76-5.31-.02-7.97.54-4.66-1.11-9.48,1.03-14.02.05,1.23.09,2.46.14,3.69Z" style="fill: #1b1819; stroke-width: 0px;"/>
      <path d="M1.42,92.77c-.02.83-.2,1.57-1.01,2-.38-3-.67-6-.04-9.01,2.03,2.08.65,4.68,1.06,7.01Z" style="fill: #1b1919; stroke-width: 0px;"/>
      <path d="M37.39,2.73c.04-.37.07-.75.11-1.12,1.82,1.5,2.19,3.21.74,5.18-1.3-1.14-.66-2.69-.86-4.06Z" style="fill: #161414; stroke-width: 0px;"/>
      <path d="M13.53,2.85c.9,1.31,2.06,2.58.48,4.17-1.89-1.19-1.13-2.69-.48-4.17Z" style="fill: #151213; stroke-width: 0px;"/>
      <path d="M15.42,1.79c5.46.01,10.92,0,16.39.06,1.6.02,3.35-.49,4.69.94-5.48.01-10.95.06-16.43.01-1.59-.01-3.37.57-4.64-1.01Z" style="fill: #282526; stroke-width: 0px;"/>
      <path d="M37.4,37.83c0,2.66.01,5.32.02,7.97-1.55-2.65-1.54-5.31-.02-7.97Z" style="fill: #282627; stroke-width: 0px;"/>
    </g>
  </g>
</svg>