<?xml version="1.0" encoding="UTF-8"?>
<svg id="Layer_2" data-name="Layer 2" xmlns="http://www.w3.org/2000/svg" viewBox="0 0 469.56 309.39">
  <g id="Layer_1-2" data-name="Layer 1">
    <g>
      <path d="M0,188.59c.33-5,.82-9.81.93-14.64.16-7.55,3.32-12.95,10.2-16.37,11.93-5.92,23.63-12.33,35.63-18.1,44.3-21.3,86.99-45.69,130.79-67.94,12.86-6.53,25.54-13.88,40.4-15.32,7.96-.77,15.94-1.53,23.93-1.31,49.76,1.36,97.3-8.78,143.27-27.32,9.26-3.73,18.74-6.94,28.14-10.32,2.31-.83,3.84-1.93,4.76-4.51,2.38-6.69,15.13-13.7,22.23-12.67,2.3.34,3.9,1.68,5.28,3.45,10.03,12.9,16.46,27.76,22.74,42.63,2.99,7.08.69,11.78-7.8,14.34-17.49,5.28-32.7,14.93-47.9,24.38-40.36,25.08-75.14,56.21-101.19,96.42-2.62,4.05-5.58,7.89-8.48,11.74-7.75,10.29-17.53,17.66-29.23,23.46-42.38,21.02-85.76,39.92-127.95,61.36-21.06,10.7-43,19.68-64.52,29.48-7.29,3.32-14.27,2.24-21.17-1.13-18.1-8.86-30.7-23.36-40.05-40.63C7.02,241.63,1.29,215.56,0,188.59Z" style="fill: #34393e; stroke-width: 0px;"/>
      <path d="M11.72,222.94c-4.77-18.45-5.05-37.14-3.17-55.98.34-3.43,2.06-5.21,4.96-6.75,19.72-10.45,40.08-19.56,60.18-29.23,32.41-15.6,63.38-33.93,95.47-50.13,9.06-4.57,18.28-8.84,27.41-13.28,9.77-4.76,20.12-6.76,30.93-6.8,25.97-.09,51.92-.6,77.69-4.35,28.03-4.08,54.62-13.22,80.99-23.09,10.26-3.84,21-6.61,30.13-13.08,3.26-2.31,4.94.25,6.3,2.54,3.74,6.29,7.3,12.7,10.92,19.05-.61,2.81-2.91,3.89-5.18,4.96-19.14,8.98-38.24,18.04-57.36,27.07-16.11,7.6-32.47,14.72-48.26,22.94-11.99,6.24-24.43,9.23-37.8,9.36-9.82.1-19.6,1.18-29.33,2.37-7.68.94-14.32,5.26-21.46,7.99-4.82,1.84-9.52,4-14.24,6.07-2.09.92-4.06,1.32-6.17.25-4.53-8.72-8.22-17.83-11.61-27.02-1.62-4.39-3.6-4.83-7.31-2.74-15.21,8.57-30.46,17.09-45.73,25.56-21.4,11.87-43.57,22.18-65.85,32.26-10.48,4.74-20.35,10.58-30.37,16.18-5.35,2.99-6.39,7.07-5.86,12.44.79,8.02,3.64,15.52,5.75,23.2-1.33,1.69-2.68,3.24-4.78,4.17-10.91,4.82-21.59,10.15-32.51,14.96-1.21.53-2.33,1.29-3.75,1.08Z" style="fill: #2a9c63; stroke-width: 0px;"/>
      <path d="M209.83,125.69c10.87,25.5,24.83,49.34,39.21,72.95-.24,2.38-2.09,3.25-3.92,4.1-40.49,18.73-80.79,37.86-121.34,56.48-6.66,3.06-13.28,6.18-19.92,9.29-2.22,1.04-4.45,1.9-6.73.14-17-19.74-31.82-40.8-39.65-66.05-.19-.63-.29-1.28-.44-1.92.17-2.73,2.09-3.95,4.25-5,18.06-8.82,35.92-18.05,54.07-26.71,24.29-11.59,48.22-23.93,72.28-36,5.35-2.68,10.86-5.01,16.28-7.54,2.03-.95,4.03-1.78,5.91.27Z" style="fill: #9ed3b3; stroke-width: 0px;"/>
      <path d="M213.74,122.85c12.36-6.21,24.98-12.18,38.16-16.07,11.05-3.26,23.06-3.06,34.68-3.32,12.25-.28,23.4-3.33,34.44-8.67,36.27-17.55,72.81-34.54,109.25-51.73,1.05-.49,2.18-.82,3.27-1.22,2.08,3.32,4.16,6.63,6.24,9.95.8,3.24-1.19,4.74-3.61,6.23-20.41,12.55-41.05,24.71-61.51,37.18-11.93,7.27-23.9,14.48-35.9,21.65-3.6,2.15-6.67,4.89-9.78,7.67-14.89,13.3-26.86,29-37.9,45.49-4.83,7.21-11.43,12.45-18.8,16.78-4.02,2.36-8.01,4.76-12.03,7.1-2.32,1.35-4.33,1.39-6.44-.17-15.86-22.21-29.08-45.92-40.07-70.89Z" style="fill: #39b572; stroke-width: 0px;"/>
      <path d="M209.83,125.69c-4.71,2.08-9.51,3.98-14.13,6.26-46.24,22.87-92.44,45.81-138.66,68.73-2.55-8.07-5.61-16-6.17-24.6-.21-3.16.96-4.75,3.76-6.11,46.81-22.74,95.19-42.41,138.99-71.01,4.02-2.63,5.79-1.7,6.88,2.56,2.17,8.42,6.29,16.09,9.32,24.18Z" style="fill: #7bbe99; stroke-width: 0px;"/>
      <path d="M253.82,193.74c13.06-5.96,25.59-12.62,34.61-24.36,8.9-11.58,16.3-24.19,26.68-34.79,11.65-11.9,24.57-21.65,38.89-30.03,27.28-15.97,54.18-32.61,81.24-48.96,1.72-1.04,3.45-2.03,4.54-3.8,6.78,9.05,6.71,8.91-3.28,14.05-51.88,26.71-95.73,62.64-127.98,111.83-5.39,8.22-11.16,16.16-17.5,23.71-5.36,6.39-13.14,8.19-20.21,11.36-2.32,1.04-3.69-.88-4.89-2.5-4.06-5.48-8.08-11-12.11-16.51Z" style="fill: #2a9c63; stroke-width: 0px;"/>
      <path d="M97.13,268.65c16.02-7.38,32.07-14.71,48.07-22.16,32.14-14.97,64.25-30.03,96.39-45.01,2.4-1.12,4.96-1.9,7.45-2.84,3.54,4.61,6.87,9.39,10.68,13.76,2.75,3.17,1.78,4.56-1.5,6.12-15.91,7.59-31.73,15.38-47.64,22.97-31.08,14.82-62.97,27.87-93.76,43.31-3.26,1.63-5.45,1.3-7.67-1.5-3.92-4.95-8-9.77-12.02-14.65Z" style="fill: #7bbe99; stroke-width: 0px;"/>
      <path d="M11.72,222.94c.56-1.66,1.62-2.91,3.2-3.64,11.79-5.38,23.58-10.75,35.39-16.09.73-.33,1.62-.33,2.43-.49,7.02,25.32,20.81,47.02,36.29,67.82.83,2.53-.69,3.58-2.68,4.48-10.7,4.85-21.55,9.38-32.24,14.27-2.07.95-4.18.77-6.32.53-15.94-13.09-25.15-30.5-31.68-49.57-1.93-5.63-3.49-11.4-4.41-17.32Z" style="fill: #39b572; stroke-width: 0px;"/>
      <path d="M47.81,289.83c9.05-5.19,18.87-8.71,28.31-13.07,4.34-2.01,8.92-3.52,12.93-6.21,4.69,5.4,8.85,11.25,14.04,16.22,2.03,1.94,1.98,3.65-.73,5.03-8.61,4.37-17.18,8.82-25.81,13.14-2.34,1.17-4.88,1.05-7.27-.05-8.07-3.71-15.75-8-21.46-15.06Z" style="fill: #2a9c63; stroke-width: 0px;"/>
      <path d="M464.46,50.49c.3,1.81-.97,2.73-2.16,3.62-2.87,2.14-6.32,2.89-9.67,3.87-1.88.55-2.83-.64-3.67-1.86-8.85-12.91-17.4-25.98-23.89-40.3-1.09-2.41-.64-3.98,1.54-5.45,3.35-2.26,7-3.79,10.74-5.22,1.85-.71,3.2-.27,4.37,1.23,10.09,13.03,17.4,27.51,22.48,43.15.1.32.17.64.26.97Z" style="fill: #7abe99; stroke-width: 0px;"/>
      <path d="M6.79,174.57v22.28c-.16,0-.32,0-.48.01v-22.44c.16.05.32.1.48.15Z" style="fill: #34343c; stroke-width: 0px;"/>
    </g>
  </g>
</svg>