<?xml version="1.0" encoding="UTF-8"?>
<svg id="Layer_2" data-name="Layer 2" xmlns="http://www.w3.org/2000/svg" viewBox="0 0 93.12 287.01">
  <g id="Layer_1-2" data-name="Layer 1">
    <path d="M74.22,287.01s18.72-1.67,18.78-21.89l.11-96.39s1-32.28-20.67-64.28l-2.33-3.56s-8.11-73.44-8.22-80.11c0,0-.25-2.56,2.08-3.51,0,0,1.94-1.92-.38-5.44,0,0-1.92-3.15.15-4.92s.52-4.19.52-4.19c0,0-1.65-2.69-4.58-2.73h-28.28s-3.02,1.95-3.21,5.47c0,0-.15,1.4,1.69,3.15,0,0,1.27,2-.4,3.25,0,0-3.17,4.15.48,6.77,0,0,1.33,1.15.83,5.28,0,0-4.5,68.92-8.5,76.25,0,0-20.5,28.67-21.67,55.33l-.62,111.33s.38,19.44,14.96,20.18h59.26Z" style="fill: #000; stroke-width: 0px;"/>
  </g>
</svg>