<?xml version="1.0" encoding="UTF-8"?>
<svg id="Layer_2" data-name="Layer 2" xmlns="http://www.w3.org/2000/svg" viewBox="0 0 51.91 198.28">
  <g id="Layer_1-2" data-name="Layer 1">
    <g>
      <path d="M6.86,197.3c-1.8.3-1.79-1.75-2.96-2.28-1.05-1.85-2.18-3.67-1.81-5.95.98-4.37.14-8.85.76-13.25-.02-.26-.05-.52-.07-.78,1.32-3.27,1.68-6.6,1.48-10.18C2.74,138.69,1.34,112.51.07,86.32c-.25-5.11.18-10.26,1.77-15.21.71.41.33,1.24.69,1.79-.28-.85.16-1.86-.56-2.62,2.33-14.28,6.19-28.23,9.41-42.31,1.15-5.05,1.16-10.39,4.38-15.06,1.11-1.6.1-4.97-.52-7.38-.7-2.77-.23-4.48,2.67-5.18,4.4,1.64,8.99.59,13.48.96,2.87.24,4.97.89,3.66,4.46,1.43,5.75,2.95,11.48,4.27,17.25,3.74,16.28,7.43,32.57,11.05,48.87.49,2.23.43,4.58.63,6.87.62,6.35.66,12.69-.02,19.04-.86,17.38-1.7,34.76-2.57,52.13-.26,5.3-.45,10.61-.9,15.9-.35,4.08.58,7.78,2.47,11.33-.09,5.01-.18,10.02-.03,15.04-1.01,2.35-2.71,4.01-4.99,5.1-12.7-.2-25.39-.2-38.09,0Z" style="fill: #241f21; stroke-width: 0px;"/>
      <path d="M6.86,197.3c.76-1.14,1.94-1.11,3.11-1.11,10.62,0,21.25,0,31.87,0,1.17,0,2.35-.03,3.11,1.12-1.38,1.26-3.09.94-4.7.94-9.56.03-19.12.02-28.68-.01-1.61,0-3.33.33-4.71-.93Z" style="fill: #1b191a; stroke-width: 0px;"/>
      <path d="M2.92,189.18c.33,1.95.66,3.9.98,5.84-3.74-3.94-4.3-14.01-1.12-19.98l.19.32c.67,4.61.76,9.21-.05,13.82Z" style="fill: #1e1b1c; stroke-width: 0px;"/>
      <path d="M35.04,5.77c.05-2.42-.95-3.79-3.56-3.45-3.58.47-7.13-1.14-10.75-.09-1.35.39-2.67-.09-2.83-1.89C22.5.23,27.1.05,31.7,0c1.99-.02,3.87.71,4.42,2.75.22.81,1.85,2.98-1.07,3.03Z" style="fill: #1f1d1d; stroke-width: 0px;"/>
      <path d="M49.94,192.2c-1.64-5.02-1.75-10.03.03-15.04,1.35,5.02,1.39,10.03-.03,15.04Z" style="fill: #141112; stroke-width: 0px;"/>
      <path d="M50.97,97.81c0-6.34.02-12.69.02-19.04,1.24,6.34,1.2,12.69-.02,19.04Z" style="fill: #292627; stroke-width: 0px;"/>
      <path d="M1.96,70.29c1.25,1.19,1.17,2.55.32,4.58-.2-1.63-.32-2.69-.45-3.75-.17-.31-.13-.59.13-.83Z" style="fill: #141212; stroke-width: 0px;"/>
      <path d="M2.92,189.18c.02-4.61.03-9.21.05-13.82,1.48,4.61,1.52,9.22-.05,13.82Z" style="fill: #272425; stroke-width: 0px;"/>
      <path d="M49.63,79.55v7.67c-.17,0-.33,0-.5,0v-7.76l.5.08Z" style="fill: #292727; stroke-width: 0px;"/>
    </g>
  </g>
</svg>