<?xml version="1.0" encoding="UTF-8"?>
<svg id="Layer_2" data-name="Layer 2" xmlns="http://www.w3.org/2000/svg" viewBox="0 0 53.76 194.05">
  <g id="Layer_1-2" data-name="Layer 1">
    <g>
      <path d="M38.86,29.81c2.14,10.11,3.26,20.4,3.38,30.65.11,8.68,2.89,15.66,8.61,21.84,1.7,1.84,2.69,4.16,2.84,6.74.08,29.77.02,59.53.02,89.3,0,1.81.27,3.67-.49,5.42-1.15,1.48-2.89,1.47-4.51,1.79-1.14.23-2.53.3-2.99,1.51-1.77,4.71-5.71,4.34-9.58,4.32-6.16-.04-12.33.04-18.49-.03-6.27-.06-7.34-1.02-7.41-7.22-.15-12.82-.04-25.64-.05-38.47,0-3.5-.73-6.52-2.5-9.84-2.69-5.03-2.41-10.89.16-16.3.28-.58,1.12-.98,1.21-1.56,1.45-9.64,2.7-19.31-.77-28.78-.5-1.38-2.09-3.11-1.07-4.03,3.22-2.89,1.86-6.63,2.52-9.97.37-.37.75-.75,1.12-1.12.89-.77,2.66.41,2.86-2.33.29-3.94-.02-7.87.27-11.8.22-2.93-.09-5.84.58-8.83.56-2.5,1.51-3.69,3.94-4.34,5.7-1.53,7.8-4.47,7.83-10.37.03-6.49.02-12.98,0-19.48-.01-3.13.2-6.1-2.48-8.76-2.09-2.08-1.06-4.35,1.94-5.15,1.61-.43,3.31-.33,4.96-.59.56,0,1.09.11,1.6.32,2.3,1.11,2.64,3.23,2.74,5.44.14,2.98.06,5.96.07,8.93,0,4.28-.45,8.61,2.46,12.36.91,1.17.61,2.81.62,4.28.05-1.35-.43-2.73.6-3.94Z" style="fill: #241f21; stroke-width: 0px;"/>
      <path d="M9.74,75.19c-.15,1.45.95,2.37,1.43,3.53.85,2.08,1.67,4.44-1.83,5.51-2.18.67-2.29,2.87-.22,3.48,3.07.91,2.61,2.96,2.62,5.04.02,7.64,0,15.29,0,22.93,0,1.98.33,4.03-2.55,4.54-1.74.31-1.41,2.01-1.43,3.3-.04,2.99-.06,5.98.02,8.97.02.95.17,2.62.6,2.74,5.04,1.41,3.27,5.49,3.3,8.59.14,13.79.18,27.59-.02,41.38-.05,3.67.97,4.97,4.76,4.85,7.8-.27,15.63-.06,23.44-.1,1.41,0,3.68.43,3.62-1.56-.17-5.54,3.61-4.35,6.75-4.41.83-.02,1.66,0,2.49,0,1.6,2.39,1.11,4.81.07,7.22-1.93,2.11-4.51,1.74-6.96,1.76-14.04.09-28.09-.13-42.14.11-1.59-.45-2.62-1.42-2.87-3.11.27-.55.43-1.12.46-1.73.12-28.46,0-56.92.05-85.37,0-3.16-.13-6.33.3-9.47-.16-1.12-.3-2.25-.72-3.32.47-3.89,2.11-7.22,4.84-10.02,1.86.26,1.47-1.33,1.87-2.27.71-.86.58-2.4,2.11-2.59Z" style="fill: #222021; stroke-width: 0px;"/>
      <path d="M30.73,3.1c-1.29,1.57-3.09.83-4.68,1.02-1.07.13-2.02.36-2.17,1.6-.14,1.08.2,2.09,1.41,2.25,2.62.35,2.44,2.24,2.44,4.1,0,9.32-.04,18.64.01,27.96.03,4.64-4.11,5.74-6.8,7.93-1.18.96-4.16-.84-4.8,1.33-.72,2.46-2.09,5.11-1.2,7.75,1.25,3.69-1.33,7.56.76,11.13-3.03,1.52-.53,2.98,0,4.52.3.87,1.01,1.93-.06,2.74-2.13,1.61-3.25-.64-4.78-1.34-.27-.82-.36-1.6.56-2.11,1.95-2.95-.01-6.41,1.25-9.45.03-.82.06-1.64.08-2.46,1.21-2.77-.13-5.8.9-8.58-.22-6,.63-11.88,1.91-17.72.59.42.85.87.11,1.39.67-.15.58-.7.56-1.16-.05-.97.25-2-.42-2.89,1.23-6.96,1-14.01,1.15-21.03.01-.64.19-1.32.05-1.92C15.64,2,17.24.09,23.75.21c2.66.66,5.31.67,7.97,0,1.58-.76,2.62.86,4.13.94,2.06.11,3.6,2.77,2.87,3.85-2.58,3.81.44,7.99-1.19,11.4-1.2,2.52-.17,4.25.31,6.32.86,1.7-.18,3.69.83,5.37.06.58.13,1.16.19,1.74-.11,1.74-.22,3.49-.32,5.23-.67-2.77-.87-5.53-3.77-7.15-1.57-.87-.99-2.68-1.01-4.12-.05-5.14-.11-10.29.02-15.43.05-2.13-.32-3.9-2.04-5.25-3.62-1.19-7.35-.08-10.48-.56-1.19.08-.26,1.12-.57.53-.08-.14.04-.24.35-.26,3.24-.18,6.49-.62,9.7.29Z" style="fill: #222021; stroke-width: 0px;"/>
      <path d="M.91,90.07c.28.66.57,1.32.85,1.97,1.13,2.05.41,4.24.42,6.35.06,28.73.05,57.46.02,86.19,0,1.79.46,3.66-.47,5.38h-.45s-.45,0-.45,0c-1.15-1.64-.77-3.52-.77-5.32-.02-28.9-.01-57.8-.02-86.69,0-2.66.02-5.31.87-7.88Z" style="fill: #131111; stroke-width: 0px;"/>
      <path d="M52.57,191.17s.09.38.09.38c-.59,2.32-2.56,2.45-4.34,2.46-13.97.06-27.93.04-41.9.03-.99,0-2-.11-2.72-.97,1.41-1.76,3.38-1.06,5.12-1.07,12.63-.06,25.26-.03,37.89-.03,1.99,0,4,.14,5.86-.81Z" style="fill: #1d1b1b; stroke-width: 0px;"/>
      <path d="M12.67,62.51c-.53,3.13,1.5,6.61-1.25,9.45.42-3.15.83-6.3,1.25-9.45Z" style="fill: #241f21; stroke-width: 0px;"/>
      <path d="M31.72.2c-2.66,1.39-5.31,1.39-7.97,0h7.97Z" style="fill: #242223; stroke-width: 0px;"/>
      <path d="M13.66,51.47c-.31,2.86,1.08,5.9-.9,8.58.01-2.89-.36-5.82.9-8.58Z" style="fill: #241f21; stroke-width: 0px;"/>
      <path d="M7.62,77.78c.57,1.16,1,2.37-.17,3.35-.16.13-1.11-.69-1.7-1.08.28-1.04.96-1.75,1.87-2.27Z" style="fill: #241f21; stroke-width: 0px;"/>
      <path d="M38.66,28.07c-1.6-1.58-.72-3.55-.83-5.37.91,1.69.89,3.52.83,5.37Z" style="fill: #241f21; stroke-width: 0px;"/>
      <path d="M15.82,31.1c1.08.79.92,1.95.88,3.05-.01.36.1,1.06-.57.82-.3-.11-.39-.79-.57-1.22.09-.89.17-1.77.26-2.66Z" style="fill: #171415; stroke-width: 0px;"/>
      <path d="M30.73,3.1h-10.72c3.92-.51,7.86-2.07,11.72,0-.33,0-.67,0-1,0Z" style="fill: #282526; stroke-width: 0px;"/>
      <path d="M1.73,189.97c.01-32.64.02-65.28.03-97.93.83.16,1.65.3,1.6,1.46-1.42,30.26-.22,60.53-.66,90.79-.03,1.91.76,4.03-.97,5.68Z" style="fill: #262324; stroke-width: 0px;"/>
    </g>
  </g>
</svg>