<?xml version="1.0" encoding="UTF-8"?>
<svg id="Layer_2" data-name="Layer 2" xmlns="http://www.w3.org/2000/svg" viewBox="0 0 61.76 178.05">
  <g id="Layer_1-2" data-name="Layer 1">
    <g>
      <path d="M40.87,14.48c1.92,10.86,3.84,21.72,5.77,32.58-.81,1-.18,2.25-.57,3.32.41-.47.05-1.31.79-1.62,1.2,3.28,1.9,6.67,1.96,10.17-1.25,1.61-.22,3.47-.44,4.17.11-.71-.68-2.56.43-4.2,1.85,7.09,1.98,14.31,1.27,21.53-.43,4.34.88,7.54,4.2,10.42,2.37,2.06,4.8,4.27,6.25,7.21.38,15.7.05,31.4.23,47.1.05,4.18-.22,8.23-1.95,12.09.65,1.57,1.29,3.14,1.94,4.71-.05,4.31.07,8.63-.33,12.94-.52,1.16-1.26,2.06-2.62,2.21-18.02-.33-36.05-.1-54.07-.12-1.93-.65-3.05-1.9-3.02-4.02.16-3.34,0-6.68-.02-10.02,2.14-3.32,2.02-6.64.02-9.96.07-17.66,0-35.31.05-52.97.14-4.17,3.14-6.46,6.01-8.64,3.8-2.88,5.37-6.34,4.9-11.17-1.51-15.48,2.86-30.3,5.5-45.3,1-5.7,2.31-11.35,3.48-17.02.71.41.34,1.23.69,1.78-.28-.85.18-1.87-.6-2.61-.02-.99-.04-1.98-.07-2.97.24-1.87-.31-3.82.56-5.62-.52-1,2.59.51.98-1.56-1.3-1.66-1.64-3.82-.52-5.91h-.06c6.11-.71,12.23-.63,18.34-.04,1.77.87.75,2.9,1.7,4.1-1.19,3.06.15,6.33-.8,9.4Z" style="fill: #241f21; stroke-width: 0px;"/>
      <path d="M58.79,157.24c1.98-17.95.41-35.97.94-53.95.05-1.76-.59-3.66.78-5.24,1.04,1.8,1.06,3.78,1.06,5.78-.02,15.08-.07,30.16.05,45.23.02,3.17-.71,5.86-2.84,8.17Z" style="fill: #171415; stroke-width: 0px;"/>
      <path d="M3.71,176.98c.96-1.27,2.36-1.02,3.66-1.02,15.61-.01,31.21,0,46.82,0,1.31,0,2.7-.19,3.6,1.14-1.03,1.15-2.42.92-3.71.92-15.4.02-30.8.02-46.19,0-1.45,0-3.02.27-4.17-1.04Z" style="fill: #1c1a1b; stroke-width: 0px;"/>
      <path d="M.75,100.01c1.23.99.96,2.37.97,3.67,0,15.22,0,30.44,0,45.65,0,1.29.26,2.69-1.02,3.64-1.17-9.39-.46-18.81-.46-28.21,0-8.25-.8-16.53.51-24.75Z" style="fill: #121111; stroke-width: 0px;"/>
      <path d="M60.4,174.89c-.98-4.34-1.46-8.67.33-12.94,1.38,4.35,1.47,8.67-.33,12.94Z" style="fill: #161314; stroke-width: 0px;"/>
      <path d="M.68,162.94c1.65,3.34,1.62,6.68.02,10.02-.81-3.34-.81-6.68-.02-10.02Z" style="fill: #131111; stroke-width: 0px;"/>
      <path d="M39.97.97c-6.11.01-12.23.02-18.34.03,6.11-1.36,12.23-1.3,18.34-.03Z" style="fill: #2b292a; stroke-width: 0px;"/>
      <path d="M21.68,1.01c.45,2.39.69,4.82,1.86,7.03.18.33.46,1.43-.73.97-.43-.17-.74-.62-1.1-.94-.41.32-.8.32-1.16-.07-.3-2.44-2.18-5.14,1.14-7Z" style="fill: #1d1b1c; stroke-width: 0px;"/>
      <path d="M20.55,8c.39.02.78.04,1.16.07-.31,2.01.84,4.28-1.05,6.02-1.25-2.01-.95-4.04-.12-6.09Z" style="fill: #110e0f; stroke-width: 0px;"/>
      <path d="M40.87,14.48c.2-3.14-1.13-6.41.8-9.4-.64,3.1,1.43,6.44-.8,9.4Z" style="fill: #2b292a; stroke-width: 0px;"/>
      <path d="M46.86,48.76c-.13.76-.27,1.52-.54,3.08-.7-2.2-1.04-3.55.33-4.77.07.57.14,1.13.22,1.7Z" style="fill: #171415; stroke-width: 0px;"/>
      <path d="M20.73,17.06c1.31,1.18,1.21,2.53.35,4.63-.19-1.69-.32-2.75-.44-3.81-.19-.3-.16-.57.09-.82Z" style="fill: #151213; stroke-width: 0px;"/>
      <path d="M34.51,2.89h-7.58c0-.16,0-.33-.01-.49h7.58c0,.16,0,.33.01.49Z" style="fill: #2b292a; stroke-width: 0px;"/>
      <path d="M48.8,58.9v5.91c-.88-2.01-1.89-4.03,0-5.88,0,0,0-.03,0-.03Z" style="fill: #151515; stroke-width: 0px;"/>
    </g>
  </g>
</svg>