<?xml version="1.0" encoding="UTF-8"?>
<svg id="Layer_2" data-name="Layer 2" xmlns="http://www.w3.org/2000/svg" viewBox="0 0 57.75 200.54">
  <g id="Layer_1-2" data-name="Layer 1">
    <g>
      <path d="M7.74,199.41c-3.8-1.31-5.9-3.9-6-7.99.46-.54.38-1.23.51-1.87.44-2.67.3-5.34.07-8.01-.13-.43-.35-.8-.66-1.11,4.83-15.39.91-30.94.67-46.4-.24-15.25-1.43-30.49-2.28-45.73-.43-7.72,2.43-13.89,8.65-18.35,2.83-2.03,4.71-4.56,5.89-7.74.71-.77.03,2.31,1.14.4.91-2.41.85-4.71-.83-6.81-.39-.23-.59-.56-.64-1,0-1.34-.05-2.67.05-3.99.04-3.77,2.83-7.46.32-11.3.09-.99.17-1.98.26-2.97,5.74-.37,8.03,1.28,8.15,6.45.21,8.96.06,17.94.07,26.9,0,3.81-1.55,6.45-5.54,5.84-5.02-.76-8.22,3.05-12.38,4.35-2.61.82-1.78,5.32-2.84,7.24.26-.73.55-2.33,1.82-3.34,1.81-1.45,3.11.12,4.41.97,2.32,1.52,3.41,1.32,3.85-1.73.81-5.67,1.27-5.99,6.89-6.07,6.48-.1,12.96.02,19.44-.05,2.13-.02,4.34.15,5.6-2.3,1.38-2.68-1.14-3.18-2.19-4.66-1.56-2.19-2.22-4.68,1.58-5.62,2.12,3.88,6.17,5.82,9.01,9.02,2.24,2.53,3.87,5.17,4.14,8.56.55,4.29.54,8.59,0,12.88-.9,19.9-1.77,39.8-2.7,59.7-.39,8.43-1.57,16.85,1.85,25.06,1.42,3.42.92,7.21.32,10.84-1.13,6.79-4.67,9.89-11.49,9.93-10.64.06-21.27.04-31.91,0-1.78,0-3.7.38-5.2-1.09,11.81-1.14,23.63-.09,35.45-.58-11.81.5-23.64-.64-35.45.58Z" style="fill: #241f21; stroke-width: 0px;"/>
      <path d="M43.72,64.51c-2.08,2.87-4.02,5.67,2.04,5.56.95-.02,1.7.32.93,1.44-1.56,2.26.6,6.91-4.39,6.96-5.48.05-10.96.02-16.44.02-1.83,0-3.68.19-5.48-.04-4.89-.62-7.52.7-6.74,6.32.46,3.31-.72,4.79-4.23,2.44-4.7-3.14-5.65-2.61-7.41,3.89-.36-3.61-.51-6.39.41-9.24.73-2.27.25-5.58,4.4-3.5.42.21,1.63-.18,1.77-.56,1.82-4.78,5.9-3.3,9.27-3.25,3.16.05,3.95-1.25,3.91-4.15-.13-9.29-.24-18.6.03-27.89.15-5.25-4.54-4.12-6.93-6.01,1.31-7.1,3.41-14.19,3.6-21.32.1-3.82,1.59-7.84.04-11.75-.3-.77.13-1.61,1.05-1.96,5.67-1.29,11.5.46,17.16-.93,2.02,1.09,4.52,2,1.39,4.68-.37.32-.56,1.57-.3,1.82,3.11,2.93.31,6.36.91,9.47-.7,1.68-1.06,3.35.24,4.93l-.12-.13c.44,1.32.58,2.62.08,3.82.85-.6-.18-2.11.86-2.8,1.12,3.98,2.44,7.93,1.86,12.17-.65,5.06-.63,10.14-.57,15.22.04,3-.09,5.94-1.81,9.57.16-.27,1.24-.74.61-.95-.11-.04-.02-.17.13-.48.42-.84.6-2.07,1.99-1.05.69,1.37-.53,3.13.9,4.35.27,1.1.55,2.21.82,3.31Z" style="fill: #252022; stroke-width: 0px;"/>
      <path d="M41.73,57.52c-2.32,1.64.09,4.5-1.63,6.29-1.58-2.4-.42-24.22,1.56-29.27.54,3.83,2.27,7.44,2.14,11.39.61,2.34.64,4.69.03,7.04.89,1.87-1.35,2.89-1.25,4.55-.29.44-.57.44-.85,0Z" style="fill: #241f21; stroke-width: 0px;"/>
      <path d="M14.62,39.5c3.45-.98,2.56,1.91,2.37,3.17-.41,2.67-.6,5.5-2.25,7.85-1.21-1.85.19-4.11-.91-5.98-.15-1.75-.25-3.48.8-5.04Z" style="fill: #252022; stroke-width: 0px;"/>
      <path d="M2.75,190.39c-.34.34-.68.69-1.01,1.03-1.19-3.66-1.43-7.32-.08-10.99.36,0,.73.01,1.09.02.77,3.32.76,6.63,0,9.95Z" style="fill: #221e1f; stroke-width: 0px;"/>
      <path d="M36.72.57c-5.62,2.13-11.44.49-17.16.93,5.59-2.62,11.42-1.02,17.16-.93Z" style="fill: #181516; stroke-width: 0px;"/>
      <path d="M56.86,94.97c0-4.29,0-8.59,0-12.88,1.47,4.29.84,8.59,0,12.88Z" style="fill: #312e2f; stroke-width: 0px;"/>
      <path d="M14.73,55.52c.33,0,.66,0,.99.01.76,2.66,1.63,5.31.02,7.98-1.62.68-.68-.95-1.17-1.3.37-2.29-1.38-4.36-.69-6.69.28-.48.56-.48.84,0Z" style="fill: #161314; stroke-width: 0px;"/>
      <path d="M14.73,55.52c-.28,0-.56,0-.84,0-.56-3.66-.8-7.32-.06-10.98,1.66,1.79.6,3.99.91,5.98,0,1.67,0,3.33,0,5Z" style="fill: #1a1818; stroke-width: 0px;"/>
      <path d="M43.82,52.98c0-2.35-.02-4.69-.03-7.04,1.01,2.34.74,4.69.03,7.04Z" style="fill: #252022; stroke-width: 0px;"/>
      <path d="M41.73,57.52c.28,0,.57,0,.85,0,.45,1.2.8,2.4.32,3.68-.11.3-.16.66-.35.9-.35.45-.77.49-.79-.21-.05-1.46-.02-2.92-.03-4.37Z" style="fill: #110f10; stroke-width: 0px;"/>
      <path d="M39.8,22.37c-.13,1.08-.26,2.16-.39,3.24-.19-.02-.37-.03-.56-.05,0-1.4,0-2.81,0-4.21.53.14,1,.34.95,1.02Z" style="fill: #151112; stroke-width: 0px;"/>
      <path d="M38.97,21.47c-1.91-1.55-1.63-3.21-.24-4.93.08,1.64.16,3.29.24,4.93Z" style="fill: #161314; stroke-width: 0px;"/>
      <path d="M7.74,199.41c.56-.31,1.12-.89,1.68-.9,11.72-.05,23.44-.04,35.16.9H7.74s0,0,0,0Z" style="fill: #1a1818; stroke-width: 0px;"/>
      <path d="M15.74,63.5c0-2.66-.01-5.32-.02-7.98,2.57,4.29,2.57,5.03.02,7.98Z" style="fill: #252022; stroke-width: 0px;"/>
      <path d="M53.99,115.43v-7.9c.16,0,.31,0,.47,0v7.9c-.16,0-.31,0-.47,0Z" style="fill: #292426; stroke-width: 0px;"/>
      <path d="M2.75,190.39c0-3.32,0-6.63,0-9.95,1.55,3.32,1.53,6.63,0,9.95Z" style="fill: #292526; stroke-width: 0px;"/>
    </g>
  </g>
</svg>