<?xml version="1.0" encoding="UTF-8"?>
<svg id="Layer_1" data-name="Layer 1" xmlns="http://www.w3.org/2000/svg" viewBox="0 0 19.46 12.44">
  <defs>
    <style>
      .cls-1 {
        fill: #000;
        stroke: #000;
        stroke-linecap: round;
        stroke-linejoin: round;
        stroke-width: .25px;
      }
    </style>
  </defs>
  <path class="cls-1" d="M19.34,4.62c0-.08,0-.19-.08-.22-.04-.02-.09-.01-.13,0-.68.16-1.22.64-1.84.96-.17.09-.35.16-.53.22,0-.13.01-.26.01-.39,0-1.16-.1-2.37-.74-3.33-.77-1.15-2.22-1.73-3.61-1.73C7.5.12,6.54,2.43,6.09,2.78c-1.04.82-1.62,1.67-2.48,2.69-1.12,1.34-2.65,1.56-3.43,2.26-.21.19.24.73.5.82,1.63.53,3.09.76,4.63,1.51.98.48,2.15.98,3.1,1.5,1.84,1,4.21.99,6.04-.04.55-.31,1.06-.71,1.41-1.23.44-.66.6-1.46.7-2.24,0-.07.01-.14.02-.21.84.93,1.13,1.6,2.37,1.6-.08-.71-.11-.86-.1-1.6.02-1.09.44-2.14.48-3.23Z"/>
</svg>