<?xml version="1.0" encoding="UTF-8"?>
<svg id="Layer_1" data-name="Layer 1" xmlns="http://www.w3.org/2000/svg" viewBox="0 0 468.33 106.52">
  <defs>
    <style>
      .cls-1 {
        fill: #000;
        stroke: #000;
        stroke-linecap: round;
        stroke-linejoin: round;
        stroke-width: .25px;
      }
    </style>
  </defs>
  <path class="cls-1" d="M463.17,86.14c-.84-6.35-3.95-7.24-9.77-6.88-6.81-3.35-15.44-.26-20.06-7.91,4.23-.72,5.24-5.92,4.77-9.44-1.71,2.36-2.43,6.44-5.64,6.54,3.57-.89,7.67-14.04,7.6-17.57-1.09,3.85-4.74,6-5.83,9.78-.52,4.87-3.32,5.66-7.82,6.47,3.99-7,12.92-11.37,6.55-21.43.75,3.63.25,7.39-1.48,10.62-1.21-6.56-1.98-12.3,1-18.76-9.24,9.88.71,18.74-9.27,28.46-.66-9.86,8.59-18.76,2-28.46,1.31,7.06.01,12.71-3.58,18.74-2.31-4.96-3.59-8.12-2.26-13.38-1.32-2.03-5.47-4.28-7.44-2.09.03-1.75-.95-3.5-2.81-3.68,4.44-10.83-13.6-11.26-9.15-.3-1.49.43-2.88,1.19-4.3,1.8-11.84-11.4-18.22,7.5-16.21-25.39-3.01,7.09-5.02,15.63-.85,22.78-7.47,1.06-6.98-8.74-11.75-12.27,3.16,6.94,2.57,16.71,10.23,20.99-9.97-2.89-9.29-16.65-16.29-22.95,4.18,11.86,6.49,31.73,24.12,26.52-20.11,10.9-13.41-7.28-28.83-4.81,10.87.4,9.99,17.38,23.07,11.21-6.81,13.97-8.84-.92-16.25,12.18-2.84,1.98-4.97,4.58-5.55,8.15-3.86-1.57-5.45,2.13-8.06,3.38-5.58-7.7-13.67-15.44-24.5-13.11.97-1.94,2.52-5.33.37-6.93-1.73-1.18-4.79-2.98-6.48-.94.03-1.75-.95-3.5-2.81-3.68,2.02-6.19-1.19-9.03-7.32-8.09-2.73,1.84-3.4,6-4.73,8.95-2.07-6.75,4.26-12.99,2.96-19.87-1.12,4.84-4.49,8.45-5.76,13.22-3.59-6.02-4.89-11.68-3.58-18.74-6.02,9.63,2.97,19.48,2,28.46-9.86-9.46-.15-18.82-9.27-28.46,2.98,6.46,2.22,12.2,1,18.76-1.73-3.22-2.24-6.99-1.48-10.62-6.36,10.09,2.56,14.41,6.55,21.43-4.51-.82-7.29-1.6-7.82-6.47-1.1-3.78-4.74-5.92-5.83-9.78-.12,3.42,4.07,16.77,7.6,17.57-3.21-.1-3.93-4.17-5.64-6.54-.31,2.82.02,6.14,2.31,8.24-8.7,1.17-20.81,4.97-26.31-5.62,4.52-.86,7.82-10.84,2.66-7.58-.21,3.95-4.05,4-6.05,6.57-.77-4.34,3.64-7.05,2.84-11.32-.23-1.89-3.23-1.92-3,0,.31,1.85-.6,3.19-1.58,4.65-.84-2.5-1.38-4.79-.68-7.93.42-1.88-2.47-2.68-2.89-.8-2.16,5.48,1.95,10.52,1.8,15.65-.37.02-.73.04-1.07.06.35-3.66-3.19-5.44-3.78-8.78-.39-3.24,1.63-7.05-1.47-9.29-1.57-1.13-3.07,1.47-1.51,2.59.88.63.2,3.51-.02,5.03-2.62-2.08-2.14-6.27-3.4-9.23-4.71-3.94-1.48,8.55-.08,9.95,1.07,1.25,1.9,2.01,2.5,3.54-3.43-1.46-6.86-2.88-6.74-7.11.05-1.93-2.95-1.93-3,0-1.24,8.99,10.77,7.81,13.45,13.65-3.46,3.67-6.5,10.44-12.33,11.32-3.95.52-4.77,4.41-8.72,4.93-3.59,1.34-6.03-2.19-9.1-2.46-6.79,6.87-12.02,4.64-20.84,2.88,6.46-1.33,4.66-9.7,2.7-14.09-2.44.29-4.9,1.56-7.24,2.41.17-.44,3.54-3.53,3.61-5.19-.23-4.86-4.83-5.99-8.27-2.16.34-5.33-6.66-9.13-11.28-8.67-1.71,2.45-2.29,5.67-3.22,8.51-.49-.2-.98-.37-1.48-.55,1.07-3.6-.73-6.11-4.57-5.67.8-6.33-2.65-11.61-9.29-9.19-4.99,3.43.06,9.96,0,14.8-3.71-7.36-13.47-3.47-8.71,5.8-2.58-2.11-3.24,3.29-4.41,4.86.71,1.34,3.08,1.98,4.35,3.06-.7,4-6.17,7.05-9.26,3.92-1.36-1.46-1.68-3.92-3.49-4.76-4.49-.6-9.27,1.24-13.9.35,1.08-2.09,3.23-2.18,5.3-2.21,2.57-.41,6.74-6.44,1.52-4.99-1.63,3.24-5.3,1.3-7.6,3.61-.2-.52-.48-.85-.81-1.19,2.18-1.9,4.34-3.07,7.07-4.04,4.21-5.72-6.48-1.14-7.99.92,1.83-1.6.41-5.6-1.75-3.11-1.36,1.54-1.13,4.36-2.73,5.11-1.05-3.42,2.27-5.4,4.76-7.25,1.95-6.44-9.44,2.14-8.39,5.19-1.35-1.14-3.15-1.76-4.58-2.8.61-2.18,9.14-16.95,2.06-12.5-.8,3.63-2.86,6.7-4.29,9.97-1.91-3.39-1.23-7.74-1.17-11.57-4.79-6.75-4.11,14.27-.09,15.27.02.47-.18,1.02-.18,1.53-6.8-10.2-9.94,4.1-23.75,2.28.23-2.88.16-5.27,1.06-8.14-2.04,1.16-3.24,3.51-3.62,5.77-2.1-6.77,4.25-13.02,2.95-19.91-1.12,4.84-4.49,8.45-5.76,13.22-3.59-6.02-4.89-11.68-3.58-18.74-6.59,9.71,2.66,18.6,2,28.46-9.86-9.46-.15-18.82-9.27-28.46,2.98,6.46,2.22,12.2,1,18.76-1.73-3.22-2.24-6.99-1.48-10.62-6.36,10.09,2.56,14.41,6.55,21.43-4.51-.82-7.29-1.6-7.82-6.47-1.1-3.78-4.74-5.92-5.83-9.78-.12,3.42,4.07,16.77,7.59,17.57-3.21-.1-3.93-4.17-5.64-6.54-.67,3.85,1.19,10.28,6.22,9.37-8.19,9.8-36.36,7.14-29.79-10.28-.07-3.76,5.18-6.87,3.49-10.22-4.85-1.93-4.17,5.6-6.18,7.68-2.02-2.01-1.68-7.44-5.13-7.75-.62,4.91,4.88,9.76,3.12,14.97-.47-1.5-4.04-5.95-4.61-2.95.22,3.15,3.21,4.81,4.53,7.36-3.36.64-4.69-5.05-8.45-3.18-1.86-8.59,1.01-18.19,8.04-23.64,1.62-2.34-1.2-4.31-2.92-2.09-7.05,10.49-3.34,7.04-7.71-1.04-4.48,5.24,3.62,7.8-1.82,22.27-3.58-3.3-1.29-11.7-7.53-11.3-2.42,5.65,5.25,10.73,6.06,16.18C8.21,59.24,7.09,59.27,0,63.88c0,0,0,43.15,0,43.15h468.33v-16.09c-2.33-.73-4.3-2.53-5.16-4.81ZM110.94,65.16c-.02.17-.04.32-.06.48-3.02-.41-3.67-4.88-3.63-7.32,2.32,1.38,4.11,2.48,3.68,6.84ZM116.03,64.67c.68-3.44,3.92-2.33,3.53.82-1.19-.22-2.36-.5-3.53-.82ZM381.36,42.09c-2.63-.5-4.62-2.05-6.11-4.21,4.24,1.08,7.51,2.17,11.02,4.89-1.77-.23-3.44-.35-4.91-.68ZM393.4,42.31c-1.93-1.16-4.75-2.74-6.63-3.87,3.15-.28,5.25.94,6.83,3.98-.06-.04-.13-.08-.19-.12ZM419.2,60.95c-.04.65-.2,1.28-.38,2.02-1.46-3.73-3.03-6.96-4.03-10.72.69-.56,1.37-1.14,1.95-1.82,1.17,3.58,2.78,6.92,2.47,10.52Z"/>
</svg>