<?xml version="1.0" encoding="UTF-8"?>
<svg id="Layer_2" data-name="Layer 2" xmlns="http://www.w3.org/2000/svg" viewBox="0 0 449.64 211.69">
  <g id="Layer_1-2" data-name="Layer 1">
    <path d="M444.69,94.19s-48-18.67-113-19.67c0,0-6-4-13-6,0,0,5-16,4-25,0,0-1-6-10,3,0,0-8,10-10,16,0,0-13-5-32-7,0,0,4-24,1-39,0,0-1-7-7,0,0,0-10,8-16,36,0,0-13-1-30,0,0,0-3-25-8-42,0,0-2-9-5-10,0,0-3-1-8,11,0,0-7,15-7,35v9s-18,3-35,10c0,0-20-44-32-57,0,0-6-8-8,4,0,0-9,33.93,9.5,68.46,0,0-12.5,6.54-24.5,19.54,0,0-9-4-32-60,0,0-4-12-12-10,0,0-28,12-49,90,0,0-12,49-5,70,0,0,1,4,2,6,0,0,62,33,151,0,0,0,23-10,22-20,0,0-1-4-3-6,0,0-37-23-62-54,0,0,8-11,21-18,0,0,23,45,49,49,0,0,3,0,3-5,0,0-4-23-21-59,0,0,4-4,29-9,0,0,3,25,19,41,0,0,5,6,8,6,0,0,3,0,3-13,0,0-2-27-3-36,0,0,0-1,2-1,0,0,10.02-1,24.01,0,0,0,.99,26,7.99,36,0,0,5,9,8,0,0,0,7-21,7-34,0,0,15,2,27,7,0,0-1,21,3,26,0,0,3,5,7-2,0,0,5-10,7-18,0,0,7,3,10,5,0,0,7,71,33,108,0,0,4,5,8-4l22-64s47-23,58-27c0,0,10-4.66,0-10.33ZM90.19,126.52c0,8-11,5-11,5l-18-4c-1,5-1,17-1,17-8,11-13,0-13,0-1-3,1-19,1-19l-21-4s-13-2-10-10,10-5,10-5l24,5c0-5,2-18,2-18,1-7,8-6,8-6,8,1,5,11,5,11l-3,16,14,2c15,3,13,10,13,10Z" style="fill: #000; stroke: #000; stroke-miterlimit: 10;"/>
  </g>
</svg>