<?xml version="1.0" encoding="UTF-8"?>
<svg id="Layer_1" data-name="Layer 1" xmlns="http://www.w3.org/2000/svg" viewBox="0 0 19.22 24.22">
  <defs>
    <style>
      .cls-1 {
        fill: #000;
        stroke: #000;
        stroke-linecap: round;
        stroke-linejoin: round;
        stroke-width: .25px;
      }
    </style>
  </defs>
  <path class="cls-1" d="M1.67,7.75c.19-.09.27-.31.18-.5-.1-.22.02-.55.26-.69.25-.15.62-.16.97-.02.38.16.71.47.96.72l.11.12c.31.33.67.71,1.17.86.18.06.37.08.59.08.08,0,.16,0,.25,0,.46-.03.9-.17,1.31-.35-.11.21-.21.43-.27.66-.06.2-.1.4-.13.6-.12.04-.25.08-.37.12-.76.22-1.67.43-2.56.35l-.17-.02c-.23-.02-.5-.05-.77,0-.46.08-.83.37-.94.76-.08.27,0,.57.19.79.15.17.34.26.55.26.04,0,.07,0,.11,0,.21-.03.36-.22.33-.43s-.21-.34-.41-.31c-.02-.01-.05-.07-.04-.1.03-.1.17-.19.34-.22.17-.03.36,0,.57.01l.18.02c1.01.08,1.99-.14,2.83-.38.03,0,.05-.02.08-.02-.01.16-.02.32-.02.48-.02.43-.04.84-.1,1.24-.15.92-.59,1.8-1.22,2.48-.3.32-.64.6-1,.9-.33.27-.67.56-.98.88-.5.52-.81,1.09-.96,1.65-.36.78-.41,1.71.11,2.47.07.11.19.16.31.16.07,0,.15-.02.21-.07.17-.12.21-.35.1-.52-.04-.06-.07-.13-.1-.19,0,0,.01,0,.02,0,0,0,.02,0,.03,0,.21-.02.36-.2.35-.4-.03-.44.35-.81.83-1-.03.11-.07.22-.1.32-.28.89-.55,1.73-1.17,2.29-.31.28-.7.47-1.11.68-.23.11-.45.23-.67.36-.87.52-1.37,1.24-1.37,1.98,0,.21.17.38.38.38h0c.21,0,.38-.17.38-.38,0-.67.7-1.15,1-1.33.2-.12.41-.22.62-.33.44-.22.89-.44,1.27-.79.78-.69,1.09-1.67,1.39-2.62.07-.24.15-.46.23-.69.29,0,.59.02.91.06.45.05.91.1,1.38.05.24-.02.46-.08.69-.15.01.12.04.23.1.32.07.12.19.18.32.18.07,0,.13-.02.19-.05.18-.11.24-.34.13-.51-.02-.03,0-.11.04-.18.08-.11.24-.19.36-.25.22-.1.45-.17.69-.24-.08.08-.16.16-.24.24-.35.34-.72.7-.93,1.18-.24.54-.23,1.11-.21,1.66,0,.22,0,.45,0,.67-.04.6-.38,1.25-.86,1.26-.21,0-.37.18-.37.38,0,.21.17.37.38.37h0c.95-.02,1.53-1.02,1.59-1.96.02-.24.01-.49,0-.73-.01-.49-.02-.95.15-1.34.15-.35.45-.64.77-.94.23-.22.46-.44.66-.71.07-.09.12-.19.17-.28.02,0,.03,0,.05,0,.29-.04.59-.09.88-.15.91-.19,2.11-.64,2.61-1.71.26-.56.28-1.19.26-1.61,0-.24-.04-.48-.07-.71.26-.15.5-.32.71-.56.48-.56.65-1.28.77-1.92.05-.28.09-.57.13-.85.4-.16.78-.37,1.13-.66.59-.5,1.06-1.23,1.23-2.05.19-.91-.01-1.84-.32-2.65-.49-1.27-1.28-2.34-2.3-3.03C13.9-.62,10.36.02,8.65,2.42c-.41.58-.65,1.3-.84,2-.01.05-.03.1-.04.15-.13.67.03,1.3.38,1.75.05.07.07.15.07.24-.58.55-1.32.93-2.11.99-.24.02-.41,0-.56-.04-.32-.1-.58-.37-.85-.66l-.12-.12c-.29-.31-.7-.69-1.21-.9-.57-.23-1.19-.21-1.65.08-.57.35-.82,1.09-.55,1.65.09.18.31.26.5.17ZM4.86,17.25c-.57.09-1.13.37-1.49.79,0-.02,0-.04,0-.06.14-.3.33-.58.57-.79.39-.35.86-.58,1.34-.73-.16.25-.31.52-.42.8ZM9.77,15.96c-.45.76-1.28,1.29-2.17,1.37-.4.03-.8,0-1.23-.05-.22-.02-.45-.05-.67-.06.1-.19.2-.37.33-.54.14-.18.29-.34.46-.49.11-.01.22-.04.32-.05h.12c.38-.06.77-.1,1.14-.26.48-.2.85-.56,1.13-.85.17-.18.32-.36.46-.54.22-.08.45-.17.68-.25-.13.62-.26,1.21-.56,1.71ZM10.83,16.3c-.15.02-.29.05-.44.08.01-.02.02-.03.03-.04.4-.68.56-1.44.7-2.18.01.26.03.52.01.77-.03.53-.14.98-.31,1.37ZM14.18,14.79c-.37.79-1.34,1.14-2.09,1.3-.14.03-.28.05-.42.07.11-.36.18-.75.21-1.18.02-.4.01-.81-.02-1.2.44-.12.91-.25,1.41-.37.35-.08.71-.18,1.06-.3.01.14.04.28.04.42.02.56-.04.94-.19,1.26ZM15.08,9.22s.07-.1.1-.15c0,0,.43.15.53.31.15.24.13.51.08.78-.1.54-.24,1.15-.6,1.57-.08.1-.18.17-.29.24-.03-.14-.05-.28-.09-.42l-.05-.18c-.08-.26-.15-.5-.16-.74-.02-.52.25-1.03.49-1.42ZM13.96,8.85c.15-.05.5-.03.5-.03,0,0,0,0,0,0-.3.48-.63,1.13-.6,1.85.02.33.11.63.19.92l.05.17c.06.19.09.39.13.59-.36.13-.75.23-1.13.32-.46.11-.89.22-1.31.34-.01-.12-.02-.25-.04-.38-.02-.18-.04-.35-.06-.53.49-1.29,1.54-3.04,2.27-3.27ZM11.64,10.21c.07-.75.33-1.47.7-2.13,0,0,.53.08.52.28,0,.45-.82,1.33-1.23,2.09,0-.08,0-.16.01-.24ZM10.52,12.8c.16-.65.14-1.29.11-1.92-.01-.29-.02-.57-.01-.86.02-.81.21-1.61.53-2.35l.47.16c-.38.72-.64,1.51-.72,2.31-.06.63-.03,1.26.03,1.88-.16.45-.31.9-.41,1.37,0,0,0,0,0,0-.08.03-.16.05-.24.08.1-.22.19-.45.24-.67ZM7.93,8.83c.22-.74.74-1.38,1.38-1.8,0,0,.35.07.41.23.08.21,0,.37-.14.54-.44.51-1.04.85-1.66,1.12,0-.03,0-.05.01-.08ZM7.71,10.54c.01-.26.03-.51.05-.76.86-.31,1.73-.75,2.38-1.5,0,0,0,0,0,0-.16.56-.25,1.14-.27,1.73,0,.3,0,.6.01.9.02.6.04,1.17-.09,1.72-.1.42-.31.83-.62,1.26-.6.24-1.17.49-1.7.77-.4.21-.86.48-1.29.83-.35.06-.72.13-1.09.25,0,0,.01-.01.02-.02.36-.3.74-.61,1.07-.97.73-.79,1.23-1.81,1.41-2.86.07-.45.09-.9.11-1.33Z"/>
</svg>