<?xml version="1.0" encoding="UTF-8"?>
<svg id="Layer_1" data-name="Layer 1" xmlns="http://www.w3.org/2000/svg" viewBox="0 0 17.08 25.19">
  <defs>
    <style>
      .cls-1 {
        fill: #000;
        stroke: #000;
        stroke-linecap: round;
        stroke-linejoin: round;
        stroke-width: .25px;
      }
    </style>
  </defs>
  <path class="cls-1" d="M5.52,5.82c.06.1.08.22.05.33-.06.26-.11.53-.14.79-.01.11-.02.23-.03.35-.03.36-.06.7-.19,1-.16.37-.45.62-.67.78-.28.19-.59.33-.91.47-.46.2-.94.41-1.37.8-.55.51-.92,1.28-.98,2.05-.01.17.08.32.23.37.04.02.09.03.14.03.19,0,.35-.15.37-.34.05-.58.33-1.18.75-1.56.33-.31.73-.48,1.16-.67.06-.03.13-.06.19-.08-1.19,1.1-2.37,2.86-2.4,4.82,0,.01,0,.03,0,.04-.81.37-1.57,1.17-1.59,2.15,0,.16.09.3.23.35.04.02.09.03.14.03.2,0,.35-.18.36-.38.02-.54.43-1.04.91-1.34.06.46.17.9.27,1.33.12.5.24.98.29,1.49.17,1.74-.57,3.73-1.84,4.96-.14.14-.18.36-.06.51.04.06.1.09.16.12.13.05.28.03.39-.08.19-.18.37-.38.54-.59-.03.42,0,.85.08,1.25.03.13.11.22.23.27.08.03.17.04.25,0,.19-.06.28-.27.24-.46-.33-1.65.58-3.76,1.99-4.61.09-.05.17-.1.26-.15.3-.17.64-.35.91-.68.38-.46.53-1.06.65-1.6l.04-.19c.33-1.35.91-2.53,1.65-3.38,0,.17,0,.33,0,.5.02.81.04,1.58-.25,2.29-.19.47-.5.88-.82,1.31-.07.1-.15.19-.22.29-.69.94-1.19,1.88-1.49,2.8-.36,1.11-.43,2.22-.2,3.14.03.12.12.21.22.25.07.03.15.03.22.01.2-.05.32-.25.27-.45-.2-.79-.13-1.76.19-2.74.27-.85.74-1.72,1.38-2.59.07-.1.14-.19.21-.29,0,0,0,0,0,0-.03.27-.01.54.07.79.03.11.12.19.22.24.08.03.16.04.24.01.19-.06.31-.27.24-.46-.18-.59.18-1.4.63-1.89.4-.44.89-.75,1.41-1.07.13-.08.26-.16.39-.25.11-.07.22-.15.33-.23.01.35,0,.71-.03,1.07-.05.5-.15.89-.32,1.19-.21.4-.55.71-.9,1.04l-.13.12c-.58.54-1.13,1.14-1.64,1.77-.31.39-.63.82-.83,1.33-.32.82-.28,1.78.12,2.44.04.07.11.12.18.15.12.05.27.03.39-.07.13-.12.15-.32.06-.47-.27-.46-.3-1.17-.06-1.77.16-.42.44-.79.72-1.14.49-.61,1.01-1.18,1.57-1.69l.13-.12c.38-.35.78-.72,1.05-1.23.21-.39.34-.87.4-1.47.06-.59.04-1.17,0-1.74.29-.29.55-.63.74-1.04.26-.58.34-1.18.41-1.77.02-.19.04-.37.08-.56.03-.21.08-.42.13-.62.04.19.09.38.16.55.12.3.28.56.43.81.19.31.37.61.46.95.14.53.06,1.22-.22,1.85-.26.58-.67,1.11-1.2,1.54-.16.13-.18.36-.06.52.04.05.09.09.15.11.12.05.26.03.37-.06.62-.5,1.11-1.13,1.42-1.82.35-.78.44-1.64.26-2.34-.12-.45-.33-.8-.54-1.15-.14-.24-.28-.46-.38-.7-.13-.32-.19-.69-.19-1.07,0-.2.14-.37.33-.41.49-.11.97-.31,1.41-.6.66-.44,1.22-1.12,1.46-1.92.28-.89.15-1.83-.1-2.67-.4-1.31-1.13-2.46-2.13-3.25C12.12-.52,8.38-.24,6.39,1.98c-.48.53-.79,1.23-1.05,1.91-.02.05-.03.1-.05.15-.19.65-.08,1.3.24,1.78ZM11.28,11.14c.04-.53.13-1.07.29-1.61.08-.28.42-.4.66-.23.05.04.1.07.15.11.16.11.22.32.15.51-.21.54-.36,1.11-.45,1.67-.03.19-.05.39-.08.58-.07.56-.13,1.08-.35,1.55-.05.11-.11.22-.18.32-.01-.09-.02-.17-.03-.26-.11-.9-.22-1.75-.16-2.64ZM10.81,14.77c-.22.19-.46.36-.67.5-.12.08-.25.16-.38.24-.45.28-.91.58-1.32.97.15-.67.14-1.35.12-2.01,0-.18,0-.35,0-.52,0-.22,0-.44.02-.66.13-.09.25-.18.39-.28.37-.26.76-.52,1.09-.91.18-.21.34-.44.47-.69-.03.85.08,1.67.18,2.47.04.31.08.6.11.9ZM10.56,8.37s0,0,0,0l-.03.23c-.17,1.16-.38,2.27-1.02,3.02-.24.28-.52.48-.83.69.2-1.37.65-2.68,1.29-3.78.12-.2.38-.27.59-.16ZM8.5,7.78c.03-.08.07-.16.11-.23.11-.21.36-.28.57-.18.02.01.05.02.07.03.22.11.3.39.17.6-.85,1.4-1.41,3.12-1.56,4.91-1.5,1.27-2.16,3.22-2.42,4.28l-.05.19c-.11.47-.23.97-.5,1.29-.18.22-.43.36-.7.5-.1.05-.19.11-.29.16-.33.2-.63.45-.9.74.08-.52.1-1.04.05-1.55-.05-.56-.18-1.08-.31-1.59-.12-.49-.23-.95-.28-1.43.3-.06.6-.09.92-.11.41-.03.83-.06,1.27-.18,1.37-.39,2.61-1.71,3.08-3.3.19-.65.25-1.31.32-1.94.08-.78.15-1.51.43-2.2ZM8.07,6.99c-.09.16-.17.33-.25.5-.33.79-.41,1.61-.49,2.41-.06.63-.12,1.22-.29,1.8-.39,1.33-1.45,2.48-2.57,2.8-.36.1-.73.13-1.12.15-.29.02-.59.04-.89.1.1-1.5,1.03-3.18,2.43-4.34.16-.13.33-.26.49-.39.38-.29.76-.58,1.11-.96.57-.62.96-1.35,1.25-2.16.12.03.22.06.32.09ZM5.89,8.58c.18-.41.21-.83.25-1.23,0-.11.02-.22.03-.32.02-.19.06-.38.1-.57.07.03.14.06.21.08.04.01.08.02.11.03.25.07.38.35.27.58-.23.53-.53,1.01-.9,1.42-.04.04-.08.08-.12.12.02-.04.04-.07.05-.11Z"/>
</svg>