<?xml version="1.0" encoding="UTF-8"?>
<svg id="Layer_1" data-name="Layer 1" xmlns="http://www.w3.org/2000/svg" viewBox="0 0 31.85 26.39">
  <defs>
    <style>
      .cls-1 {
        fill: #000;
        stroke: #000;
        stroke-linecap: round;
        stroke-linejoin: round;
        stroke-width: .25px;
      }
    </style>
  </defs>
  <path class="cls-1" d="M.84,20.71c1.23-4.55,3.79-4.49,6.65-4.89,1.48-.21,1.78-.68,4.4-.78,2.33-.09,3.26.9,5.47,1.63.38.13,1.36.49,2.28.83.6.48,1.18.97,1.65,1.57.31.39,6.01,6.4,7.56,7.18-1.14-1.15-2.16-2.43-3.2-3.68-.95-1.14-1.88-2.31-2.73-3.52-.54-.77-1.07-1.59-1.48-2.46,0-.93-.03-1.96.03-2.39.31-2.31,2.24-2.54,3.27-4.15,1.4-2.21,1.71-5.26,6.99-2.05C27.42-.66,19.7,2.75,13.11,2.37c-.1,0-.28-.03-.36-.07-.48-.99-1.32-1.95-2.25-2.18.42.31.76.74,1.04,1.18s.17,1.15.02,1.65c-.1.32-1.25.56-2.15,1.2-.25.17-.56.23-.85.15-.15-.04-.3-.08-.45-.12-.37-.1-.75-.21-1.04-.47-.37-.32-.52-.82-.6-1.31-.2.68.15,1.23.41,1.78.17.37.69.72,1.03.94C5.31,11.13-2.21,13.57.84,20.71Z"/>
</svg>