<?xml version="1.0" encoding="UTF-8"?>
<svg id="Layer_1" data-name="Layer 1" xmlns="http://www.w3.org/2000/svg" viewBox="0 0 53.84 35.8">
  <defs>
    <style>
      .cls-1 {
        fill: #000;
        stroke: #000;
        stroke-linecap: round;
        stroke-linejoin: round;
        stroke-width: .25px;
      }
    </style>
  </defs>
  <path class="cls-1" d="M12.07,25.66c3.51-.78,6.93-2.01,10.58-2.12,3.24-.1,6.41.69,9.48,1.51.53.14,1.89.54,3.17.92.83.53,1.65,1.07,2.3,1.74.43.44,8.35,7.1,10.52,7.96-1.59-1.28-3-2.7-4.46-4.08-1.33-1.26-2.61-2.56-3.8-3.9-.76-.86-1.49-1.77-2.06-2.72-.01-1.03-.04-2.18.04-2.65.43-2.56.94-5.18,2.48-7.45,1.73-2.56,4.62-4.46,7.05-6.63,2.68-2.39,4.84-5.15,6.35-8.12-7.29,4.45-16.88,8.02-26.05,7.6-.14,0-.39-.04-.5-.08-.66-1.09-1.83-2.16-3.12-2.41.59.35,1.05.82,1.45,1.31s.24,1.27.02,1.83c-.14.35-3.19,2.1-4.45,2.8-.34.19-.77.25-1.18.17-.21-.04-.41-.08-.62-.13-.52-.11-1.05-.24-1.44-.52-.51-.36-.73-.91-.84-1.45-.28.76.21,1.36.57,1.98.24.41.96.8,1.43,1.04C15.36,18.91,8.26,23.41.12,26.62c4.01.23,8.07-.1,11.94-.96Z"/>
</svg>