<?xml version="1.0" encoding="UTF-8"?>
<svg id="Layer_2" data-name="Layer 2" xmlns="http://www.w3.org/2000/svg" viewBox="0 0 361.68 560.06">
  <g id="Layer_1-2" data-name="Layer 1">
    <g>
      <path d="M.84,218.17c-1.98-7.91-.14-15.27,3.5-22.25,1.19-2.28,1.76-4.5,1.75-7.07-.06-29.1-.04-58.21-.03-87.31,0-1.36.09-2.73.14-4.09,1.71-1.31,2.58.19,3.26,1.2,7.42,10.95,18.71,17.25,29.21,24.5,1.1.76,2.48.17,3.55.9,11.99,7.05,25.09,11.38,38.31,15.27,9.16,2.7,18.41,5.18,27.99,6,2.69,1.95,5.93,1.43,8.92,1.94,16.39,2.81,32.95,3.87,49.52,4.85,1.87.09,3.67.24,5.18,1.66,1.15,1.08,2.76,1.2,4.29,1.43,15.3,2.31,30.21,6.36,45.06,10.53,12.36,3.48,20.44,15.57,20.93,28.36.48,12.41-.44,24.81.15,37.23.29,6.04-.13,12.13.49,18.21,1.09,10.65,10.19,17.33,20.63,14.92,15.67-3.62,30.99-8.33,45.5-15.34,11.8-5.7,23.08-12.23,31.39-22.81,2.34-2.98,3.77-6.38,5.2-9.85,2.21-5.36,7.14-7.24,11.78-4.91,2.88,1.44,3.27,3.89,3.18,6.66-.43,5.45-3.56,9.91-5.43,14.84-2.31,8.3-8.92,13.04-15.2,17.92-16.46,12.79-35.43,20.48-55.2,26.31-21.87,6.44-44.23,10.21-66.95,12.36-20,1.9-39.97.89-59.96,1.2-1.75.03-3.91.38-4.58-2.15.11-1.38,1.05-1.85,2.25-2.05.86-.14,1.73-.17,2.58-.36,2.39-.54,4.21-1.79,4.35-4.41.15-2.83-1.69-4.28-4.2-4.92-1.8-.46-3.64-.82-5.51-.92-26.42-1.4-52.35-5.69-77.52-13.86-18.02-5.86-35.41-13.17-49.98-25.85-5.05-4.39-9.15-9.43-11.81-15.6-.49-1.14-.87-2.33-1.57-3.38-2.01-3.01-4.8-3.35-7.59-1-1.04.88-1.6,2.78-3.58,1.85Z" style="fill: #2685c5; stroke-width: 0px;"/>
      <path d="M360.82,353.42c-.67,5.12-2.69,9.71-5.46,14-1.52,7.01-6.53,11.51-11.66,15.8-12.83,10.73-27.53,18.21-43.12,23.99-23.42,8.68-47.63,14.01-72.45,16.68-6.29.68-12.63.93-18.9,1.82-1.44.29-2.89.26-4.35.29-3.1.03-6.21-.09-9.28.46-2.09.27-4.17.16-6.26.08-5.06-1.06-10.14.54-15.21-.08-4.32-.92-8.79.14-13.08-1.04-1.62-1.15-1.39-2.41-.24-3.77,1.72-2.02,2.72-4.24,1.37-6.83-1.34-2.57-3.83-2.84-6.39-3-21.85-1.4-43.51-4.08-64.73-9.63-17.36-4.54-34.29-10.24-49.9-19.28-8.97-5.2-17.27-11.27-23.6-19.68-1.96-2.6-3.47-5.41-4.69-8.44-2.04-5.05-4.96-5.78-9.11-2.36-.9.75-1.66,1.54-2.92.89-1.99-7.65-.14-14.78,3.3-21.53,1.35-2.66,1.96-5.2,1.96-8.13-.03-30.44.02-60.88.04-91.32,1.48-1.01,2.37.06,3.06,1.04,6.1,8.66,14.23,15.01,23.13,20.5.76.47,1.28,1.15,1.84,1.81.74,2.61,2.57,4.21,4.61,5.97,23.07,19.9,50.06,31.55,79.44,38.36,18.34,4.25,36.94,6.22,55.7,7.51,15.12,1.04,30.03-.13,44.98-1.57,10.82-1.04,21.24,6.57,23.26,17.23.62,3.3.96,6.62.95,10-.05,18.03-.03,36.07-.02,54.1,0,1.49-.05,2.99.11,4.47.62,5.68,4.75,9.46,10.49,9.64,2.39.07,4.71-.46,7-.98,19.59-4.47,38.71-10.27,56.39-20.09,7.19-3.99,14.01-8.53,19.8-14.48,3.97-4.08,7-8.67,8.98-14.02,1.81-4.89,6.16-6.83,11.15-5.28,3.48,1.08,3.6,3.98,3.82,6.85Z" style="fill: #2685c5; stroke-width: 0px;"/>
      <path d="M360.87,488.42c-1.28,8.69-5.63,15.81-11.39,22.2-10.03,11.12-22.61,18.57-36.05,24.69-21.05,9.59-43.17,15.61-65.94,19.37-27.33,4.52-54.84,6.09-82.5,5.1-1.48-.05-2.95-.31-4.42-.47-.86-1.42.25-2.28.89-3.31,2.7-4.39.98-8.2-4.2-8.84-3.44-.42-6.92-.64-10.38-.87-22.9-1.51-45.36-5.45-67.32-12.14-16.11-4.91-31.69-11.06-45.72-20.57-6.72-4.56-12.68-9.99-17.37-16.69-1.58-2.25-2.67-4.75-3.72-7.28-1.93-4.62-4.86-5.35-8.7-2.27-.97.78-1.74,1.88-3.21,1.11-2.04-7.66-.08-14.76,3.37-21.52,1.29-2.53,1.88-4.97,1.88-7.79-.07-28.85-.04-57.7-.03-86.55,0-1.49.09-2.98.14-4.47.89-.58,1.73-.36,2.32.38,4.32,5.45,9.69,9.9,14.36,15.03.28,2.32,1.02,4.24,2.86,5.99,8.78,8.33,17.04,17.19,27.18,24.05,20.73,14.02,43.61,22.66,67.87,28.05,18.62,4.14,37.48,6.03,56.53,7.01,13.87.72,27.54-.38,41.26-1.62,14.27-1.28,24.22,8.13,24.47,23.59.21,13.06-.05,26.13.09,39.19.09,9.02,4.03,15.99,11.83,20.69,4.82,2.91,10.06,3.83,15.45,2.6,23.31-5.29,45.22-13.74,63.85-29.23,4.84-4.02,8.53-9.01,10.9-14.91.09-.23.17-.47.26-.7,1.47-3.69,3.71-6.71,8.03-6.73,4.39-.02,6.12,3.33,7.44,6.89Z" style="fill: #247cb9; stroke-width: 0px;"/>
      <path d="M360.87,488.42c-.96-.79-1.97-1.52-2.86-2.37-4.45-4.24-8.55-3.36-10.66,2.59-1.4,3.95-3.58,7.33-6.1,10.59-6.64,8.58-15.75,13.98-24.98,19.12-13.11,7.32-27.21,12.19-41.7,15.94-14.31,3.7-25.62-1.64-31.57-14.79-1.31-2.89-1.8-5.91-1.79-9.07.03-12.56-.03-25.12.03-37.68.01-3.14-.38-6.22-1.07-9.24-2.23-9.9-11.19-15.84-21.64-14.54-10.49,1.3-21.04,2.14-31.58,1.94-34.5-.65-68.45-4.95-100.81-17.69-24.91-9.82-46.8-24.11-63.5-45.5-.86-1.1-2.32-2.06-1.82-3.86,1.24-.6,2.3-.42,3.45.4,28.68,20.34,61.69,28.72,95.66,34.25,9.79,1.6,19.64,3.08,29.62,3.06,1.85.04,3.72-.02,5.55.37,1.82.56,4.05.05,5.33,2.03,4.53.07,9.07.14,13.6.21,5.07.8,10.17.14,15.25.36,2.12-.16,4.28.35,6.37-.34,3.24-.03,6.49-.06,9.73-.09,1.15-.78,2.61.18,3.74-.68,25.68-1.03,50.77-5.57,75.39-12.86,19.4-5.74,37.78-13.65,54.2-25.75,6.6-4.86,11.86-10.86,16.64-17.4.03,30.69.07,61.39.05,92.08,0,2.43.45,4.57,1.6,6.73,3.69,6.95,5.51,14.28,3.86,22.19Z" style="fill: #2270ac; stroke-width: 0px;"/>
      <path d="M360.82,353.42c-2.46-4.76-4.29-5.95-8.21-5.35-2.11.32-3.89,1.28-4.57,3.36-4.79,14.61-16.4,22.77-28.8,29.88-19.4,11.12-40.6,17.44-62.39,21.84-9.17,1.85-15.63-3.65-15.66-13.05-.05-19.39.04-38.79-.05-58.18-.03-7.08-1.07-13.85-6.86-18.99-4.38-3.89-9.4-5.51-15.09-5-11.5,1.02-22.99,2.28-34.57,1.95-31.45-.9-62.45-4.6-92.25-15.35-22.1-7.97-42.31-19.15-59.21-35.76-.71-.7-1.55-1.32-1.14-2.51,2.43-1.24,4.35.27,6.25,1.31,20.48,11.18,42.56,17.68,65.23,22.48,15.31,3.24,30.86,4.89,46.41,6.44,1.51.15,3.39-.22,3.95,1.95,1.4.65,2.9.66,4.39.66,13.93-.01,27.89.53,41.79-.15,39.88-1.95,78.93-8.29,115.5-25.26,14.85-6.89,28.65-15.59,38.43-29.33.35-.5.89-.86,1.34-1.29.05,14.39.13,28.77.16,43.16.03,16,.04,32-.03,48-.01,2.44.54,4.55,1.67,6.71,3.74,7.07,5.48,14.52,3.71,22.52Z" style="fill: #2167a0; stroke-width: 0px;"/>
      <path d="M360.74,218.2c-1.09-3.38-3.23-5.78-6.92-5.77-3.95.01-5.68,2.8-6.9,6.25-3.69,10.42-11.78,17.05-20.55,22.89-19.68,13.09-41.79,20.13-64.59,25.27-9.46,2.14-19.67-6.32-20.57-16.46-1.15-12.9-.42-25.83-.59-38.74-.09-6.46.08-12.92-.16-19.37-.4-10.69-8.66-21.7-19.27-24.64-14.25-3.94-28.7-7.17-43.06-10.73-3.61-.9-7.2-1.91-10.8-2.87.72-2.31,2.74-1.84,4.36-1.88,5.47-.16,10.94.03,16.41-.08,37.1-.79,73.56-5.45,108.7-18.05,16.6-5.96,32.32-13.51,45.87-25.09,3.35-2.86,5.92-6.35,8.83-9.57,1-1.11,1.72-2.96,3.83-1.97.04,21.1.09,42.2.13,63.3.01,6.58.07,13.16-.02,19.74-.09,6.69.05,13.09,3.43,19.39,2.99,5.57,3.59,12.03,1.88,18.41Z" style="fill: #2167a0; stroke-width: 0px;"/>
      <path d="M355.32,97.37c-12.03,17.05-29.39,26.81-48.02,34.61-22.34,9.35-45.73,14.91-69.68,18.18-22.09,3.01-44.27,4.37-66.57,3.77-1.24-.03-2.48.06-3.73.09-19.33-1.07-38.61-2.56-57.67-6.12-.72-.13-1.4-.42-2.1-.64-.29-1.54.76-2.17,1.86-2.83,2.77-1.67,3.35-4.13,2.29-7.03-.52-1.43-1.19-2.79.33-4.02,4.53-1.5,8.89.25,13.21.95,25.78,4.14,51.77,4.52,77.69,3.31,29.22-1.37,58.07-6,85.88-15.65,15.58-5.41,30.45-12.2,43.34-22.75,3.19-2.61,6.14-5.44,8.14-9.12,5.66-5.36,6.65-14.94,2.41-22.75-5-9.22-13.13-15.11-21.78-20.4-20.68-12.65-43.55-19.28-67.05-24-16.33-3.28-32.86-5.09-49.5-6.21-13.68-.93-27.37-1.09-40.98-.4-33.12,1.67-65.82,6.24-97.06,18.16-13.28,5.07-26.01,11.21-37.05,20.42-4.06,3.39-7.34,7.37-10.21,11.78-4.42,6.8-2.86,13.73-.67,20.7.36,1.14,1.72,1.36,2.47,2.17,3.56,6.71,9.73,10.75,15.59,15.08,2.89,2.14,6.06,3.84,9.11,5.73,1.26.78,2.67,1.49,2.31,3.39-.17.47-.4.97-.87,1.13-4.26,1.49-6.05,4.33-4.95,8.83.19.76-.1,1.45-.88,1.82-13.24-6-24.52-14.51-33.38-26.1-.52-.69-1.05-1.37-1.58-2.05-3.05-5.69-5.65-11.5-6.1-18.11-.81-12.03,4.3-21.68,12.1-30.15,11.33-12.3,25.66-20.15,40.82-26.58C76.3,12.74,100.7,7.29,125.67,3.75,149.39.39,173.2-.63,197.05.36c40.08,1.66,79.36,7.76,116.32,24.45,12.15,5.49,23.55,12.23,33.15,21.64,13.74,13.47,20.83,30.77,8.81,50.91Z" style="fill: #b8e3e9; stroke-width: 0px;"/>
      <path d="M.83,488.45c.55-.82,1.05-1.69,1.66-2.46,3.48-4.42,9.85-3.75,11.61,1.58,3.53,10.67,11.22,17.74,19.97,23.84,15.28,10.64,32.49,17.02,50.24,22.14,23.39,6.76,47.31,10.19,71.57,11.49,3.81.2,7.25.83,8.79,4.88,1.31,3.44.08,6.13-4.11,9.4-10.72.25-21.32-1.11-31.91-2.42-22.06-2.73-43.7-7.42-64.64-14.94-16.29-5.84-31.85-13.2-45.16-24.56-7.85-6.7-14.37-14.39-17.39-24.56-.43-1.46-.66-2.89-.64-4.39Z" style="fill: #56bee5; stroke-width: 0px;"/>
      <path d="M160.44,423.97c-1.87.03-3.74.06-5.61.09-1.73-.69-3.61.11-5.35-.51-22.29-1.26-44.21-4.89-65.75-10.7-20.03-5.41-39.31-12.7-56.71-24.29-2.15-1.43-4.13-3.12-6.19-4.7-5.31-4.85-10.5-9.8-14.64-15.74-2.4-4.71-5.29-9.25-5.35-14.8.48-.72.96-1.45,1.43-2.17,1.49-2.3,3.62-3.35,6.33-3.12,2.75.24,4.72,1.72,5.53,4.32,3.26,10.46,10.83,17.37,19.35,23.38,17.43,12.31,37.26,19.12,57.65,24.48,21.34,5.61,43.12,8.42,65.11,9.69,4.97.29,7.53,1.72,8.54,5.11,1.02,3.45-.24,6.06-4.32,8.95Z" style="fill: #56bee5; stroke-width: 0px;"/>
      <path d="M153.86,288.41c-29.91-1.84-59.25-6.74-87.66-16.56-11.89-4.11-23.33-9.22-34.18-15.61-3.3-2.35-6.64-4.66-9.9-7.07-6.31-4.66-11.46-10.45-15.98-16.82-2.63-4.41-5.06-8.89-5.3-14.19.57-.96,1.06-1.98,1.73-2.86,3.29-4.29,9.38-4.07,11.2.95,6.46,17.76,21.34,26.25,36.81,33.92,21.45,10.64,44.48,16.33,67.99,20.26,13.25,2.21,26.64,3.03,39.98,4.41,4.15.43,6.73,3.59,6.46,7.26-.27,3.72-3.21,6.2-7.42,6.27-1.24.02-2.48.03-3.72.04Z" style="fill: #56bee5; stroke-width: 0px;"/>
      <path d="M112,134.52c4.2,6.16,2.88,9.92-4.46,12.75-23.22-3.9-45.64-10.22-66.39-21.68-3.02-7-1.12-10.83,6-12.07,2.13-2.25,4.18-.56,6.03.34,13.08,6.38,26.79,10.95,40.91,14.35,4.81,1.16,9.75,1.77,14.51,3.16,1.57.46,3.61.65,3.4,3.15Z" style="fill: #fefefe; stroke-width: 0px;"/>
      <path d="M189.66,424.87c-5.2-.33-10.47.79-15.63-.7,5.24,0,10.47,0,15.71,0,.52.29.5.52-.08.69Z" style="fill: #247cb9; stroke-width: 0px;"/>
      <path d="M189.66,424.87c.03-.23.06-.46.08-.69,1.97,0,3.95,0,5.92,0-1.91,1.03-3.98.64-6,.68Z" style="fill: #2270ac; stroke-width: 0px;"/>
      <path d="M209.14,423.42c-1.16.7-2.44.73-3.74.68,1.17-.66,2.45-.7,3.74-.68Z" style="fill: #247cb9; stroke-width: 0px;"/>
      <path d="M149.48,423.56c1.81-.13,3.61-.13,5.35.51-1.81.1-3.62.29-5.35-.51Z" style="fill: #247cb9; stroke-width: 0px;"/>
      <path d="M112,134.52c-4.2-2.04-8.85-2.29-13.31-3.27-16.4-3.61-32.31-8.64-47.39-16.12-1.32-.66-2.77-1.07-4.15-1.6-8.56-5.03-17.06-10.14-23.95-17.46-1.45-1.54-2.94-3.03-3.76-5.03-1.53-3.14-1.17-6.25-.1-9.47,2.53-7.62,7.5-13.41,13.65-18.25,10.39-8.18,22.42-13.32,34.6-18.07,23.58-9.18,48.17-13.9,73.27-16.52,17.72-1.85,35.48-2.69,53.23-1.96,34.19,1.41,67.87,6.1,100.01,18.57,12.98,5.04,25.86,10.5,36.76,19.51,5.47,4.52,9.45,10.17,11.62,17.01.98,3.1,1.04,6.13-.38,9.12-5.4,8.64-13.68,14.03-22.14,19.03-19.85,11.72-41.62,18.26-64.04,22.82-22.6,4.59-45.43,6.82-68.52,7.07-24.06.26-47.95-1.06-71.68-5.14-1.22-.21-2.48-.16-3.72-.23Z" style="fill: #afbdc4; stroke-width: 0px;"/>
      <path d="M342.09,90.97c-.52-11.71-6.14-20.56-15.55-27.09-15.4-10.69-32.69-17.33-50.51-22.58-36.88-10.86-74.65-14-112.92-12.33-22.66.99-45.11,3.71-67.11,9.32-20.92,5.33-41.19,12.46-59.27,24.63-8.62,5.8-15.03,13.38-16.85,24.05-.23,1.34-.29,2.71-.43,4.07-7.08-8.61-7.11-18.95-.03-28.36,5.62-7.47,12.82-13.11,20.83-17.81,23.17-13.59,48.54-20.73,74.76-25.24,30.76-5.29,61.75-6.73,92.87-4.56,33.64,2.35,66.6,7.99,97.7,21.7,11.75,5.18,22.94,11.37,32.06,20.7,2.81,2.87,5.23,5.99,7.05,9.56,4.33,8.53,3.41,16.52-2.6,23.94Z" style="fill: #2167a0; stroke-width: 0px;"/>
      <path d="M245.58,98.12c-.44-4.72,2.19-7.54,6.13-9.16,13.62-5.58,27.33-5.47,40.95,0,3.96,1.59,6.51,4.5,6.18,9.17.06,3.25-1.65,5.38-4.32,6.93-3.82,2.21-7.98,3.58-12.31,3.94-10.76.91-21.56,1.59-31.66-3.6-2.98-1.53-5.05-3.68-4.97-7.29Z" style="fill: #dfdfdf; stroke-width: 0px;"/>
      <path d="M245.58,98.12c.98,2.78,3.15,4.49,5.68,5.55,13.92,5.86,27.91,5.86,41.83,0,2.54-1.07,4.61-2.88,5.75-5.52,1.87,10.68-1.03,15.46-11.26,18.2-10.3,2.77-20.64,2.71-30.96-.02-.36-.1-.71-.22-1.07-.33-9.37-2.89-12.31-8.16-9.97-17.86Z" style="fill: #2167a0; stroke-width: 0px;"/>
      <path d="M83.6,54.81c-.63-3.72,1.72-5.54,4.61-6.65,8.41-3.23,16.92-3.28,25.26.2,2.94,1.23,5.52,3.15,3.91,7.11.02,2.45-1.32,3.92-3.48,4.73-8.85,3.31-17.71,3.38-26.47-.24-2.18-.9-4.31-2.13-3.83-5.15Z" style="fill: #dfdfdf; stroke-width: 0px;"/>
      <path d="M83.6,54.81c1.97,3.33,5.39,4.27,8.76,5,7.31,1.57,14.58,1.48,21.55-1.65,1.33-.6,2.74-1.23,3.47-2.67,2.16,4.5,1.1,8.26-3.18,10.07-8.59,3.63-17.38,3.69-26.09.49-4.95-1.82-6.11-5.11-4.52-11.23Z" style="fill: #2167a1; stroke-width: 0px;"/>
    </g>
  </g>
</svg>