<?xml version="1.0" encoding="UTF-8"?>
<svg id="Layer_2" data-name="Layer 2" xmlns="http://www.w3.org/2000/svg" viewBox="0 0 175.26 224.79">
  <g id="Layer_1-2" data-name="Layer 1">
    <g>
      <path d="M160.06,0c1.75,2.54,3.32,5.24,5.3,7.59,2.52,2.99,1.15,4.99-1.24,6.94-.25.21-.54.4-.85.5-9.23,2.99-13.79,9.76-15.32,18.97-.95,2.55-3.16,2.54-5.27,2.43-3.03-.16-6.17.75-9.07-.86-.17-.25-.35-.5-.52-.76,2.33-7.53,4.68-15.05,6.97-22.59.53-1.73,1.7-2.64,3.21-3.5,4.98-2.83,9.87-5.8,14.79-8.72.67,0,1.33,0,2,0Z" style="fill: #eab916; stroke-width: 0px;"/>
      <path d="M163.68,50.17c-3.21.67-6.33-.02-9.45-.65-9.84-.1-19.67-.11-29.52,0-8.19,1.21-16.38,1.74-24.58-.06-.32-.39-.64-.78-1.01-1.13-1.4-1.68-2.15-3.71-3.04-5.67-3.29-7.24-6.17-14.7-10.08-21.62-4.44-7.84-9.84-14.74-20.15-14.66-11.62,1.72-23.25,1.75-34.87-.05-11.6,1.13-19.9,9.64-20.48,21.02,1.29,6.78,2.38,13.55-.36,20.27-.85,1.86-2.81,2.05-4.34,2.88C1.3,52.96-.23,55.77.3,60.72c.41,1.95.41,3.95.41,5.94,0,46.98,0,93.95,0,140.93,0,2.32.02,4.65-.56,6.93-.69,6.36.97,8.25,9.06,10.27h156.86c7.33-1.85,8.16-2.65,8.51-8.31-.03-49.32-.01-98.65-.01-147.98,0-2.49-.05-4.99.62-7.43.82-7.51-4.01-12.11-11.49-10.91ZM75.46,50.39c-16.05-.25-32.11.62-48.16-.46-1.01-6.61-.96-13.21-.04-19.82,1.17-2.99,3.07-5.34,6-6.77.55-1.24,1.68-.86,2.59-.83,9.07.3,18.17-.71,27.22.52,3.59,1.49,5.68,4.19,7.02,7.81,2.06,5.57,4.47,11.01,6.67,16.53.53,1.33,1.43,3.06-1.3,3.02Z" style="fill: #dc352e; stroke-width: 0px;"/>
      <path d="M137.88,178.55c-.43,1.84-1.89,3.04-3.34,4.09-1.81,1.32-2.68-.57-3.64-1.52-6.75-6.66-13.49-13.33-20.11-20.13-2.11-2.17-4.32-3.26-7.43-3.21-10.48.15-20.97.15-31.45,0-3.11-.04-5.32,1.02-7.44,3.2-6.49,6.68-13.17,13.18-19.71,19.82-1.78,1.81-3.15,3.25-5.6.6-2.24-2.43-2.03-4.1.2-6.28,6.43-6.28,12.61-12.81,19.14-18.98,2.8-2.64,3.82-5.46,3.74-9.24-.2-9.81-.21-19.64,0-29.45.08-3.65-1.1-6.26-3.71-8.74-6.26-5.97-12.24-12.23-18.42-18.29-2.1-2.06-3.61-3.64-.69-6.46,2.77-2.69,4.22-1.09,6.09.8,6.67,6.74,13.45,13.37,20.08,20.16,2.01,2.06,4.16,2.98,7.05,2.94,9.98-.12,19.97-.12,29.95,0,2.89.03,5.04-.87,7.06-2.93,6.74-6.91,13.65-13.64,20.42-20.53,1.9-1.93,3.34-2.8,5.74-.45,2.5,2.44,1.89,3.99-.3,6.11-6.45,6.26-12.67,12.75-19.13,18.99-2.32,2.24-3.42,4.59-3.36,7.88.17,10.31.17,20.63,0,30.95-.06,3.3,1.08,5.63,3.39,7.87,6.46,6.25,12.75,12.66,19.09,19.03,1.03,1.04,2.33,1.95,2.38,3.75Z" style="fill: #af2721; stroke-width: 0px;"/>
      <path d="M174.18,59.89c1.14,1.84.69,3.89.69,5.85.02,48.09.03,96.18,0,144.27,0,2.73.59,5.68-1.77,7.91-.01-50.94-.03-101.88-.03-152.82,0-1.8-.34-3.71,1.12-5.21Z" style="fill: #db2f28; stroke-width: 0px;"/>
      <path d="M1.15,215.82c-1.19-1.82-.77-3.87-.77-5.83-.02-48.41-.02-96.82,0-145.23,0-1.96-.41-4.02.88-5.8,1.38,1.75.93,3.82.93,5.78.02,48.45.02,96.9,0,145.35,0,1.95.47,4.04-1.04,5.74Z" style="fill: #db2f28; stroke-width: 0px;"/>
      <path d="M155.19,49.92c2.82,1.06,5.95-.37,8.73,1.06-2.87.83-5.76.63-8.65.12-10.49.03-20.97.06-31.46.09-8.83.42-17.67.5-26.5-.05-.07-.36-.15-.71-.22-1.07,8.06.09,16.13.1,24.18.31,2.82.08,3.07-1.33,3.21-3.62.23-3.85-1.01-7.8.68-11.55.38.33.71.71.99,1.13,1.18,3.55-.76,7.95,2.96,10.8,5.77,1.32,11.6.33,17.39.63,2.47.13,5.01-.27,7.29,1.09.49.33.96.68,1.41,1.06Z" style="fill: #de413b; stroke-width: 0px;"/>
      <path d="M76.45,51.76H28.86c0-.15,0-.3,0-.45h47.4c.06.15.13.3.19.45Z" style="fill: #db2921; stroke-width: 0px;"/>
      <path d="M30.22,8.15c12.3-.46,24.6-.4,36.9-.03-2.44,1.58-5.18.92-7.75.82-9.71-.38-19.48,1.14-29.15-.78Z" style="fill: #da1e13; stroke-width: 0px;"/>
      <path d="M63.07,23.03c-9.94.1-19.88.21-29.81.31.79-.99,1.85-1.34,3.07-1.34,8.47,0,16.94,0,25.4,0,.66,0,1.36.07,1.34,1.02Z" style="fill: #da1e13; stroke-width: 0px;"/>
      <path d="M97.31,51.14c8.83.01,17.67.03,26.5.04-8.84,1.24-17.67,1.33-26.5-.04Z" style="fill: #db2921; stroke-width: 0px;"/>
      <path d="M12.22,49.96c.04-7.65.08-15.3.12-22.94,1.31,7.65,1.58,15.3-.12,22.94Z" style="fill: #da190b; stroke-width: 0px;"/>
      <path d="M27.26,30.1c.01,6.61.03,13.22.04,19.82-1.78-6.6-1.88-13.21-.04-19.82Z" style="fill: #da2219; stroke-width: 0px;"/>
      <path d="M155.26,51.1c2.88-.04,5.77-.08,8.65-.12.18.28.36.57.54.85-3.07-.16-6.24.91-9.19-.74Z" style="fill: #db2921; stroke-width: 0px;"/>
      <path d="M125.4,35.88c-.06-.23-.14-.46-.25-.67,2.65-.13,5.29-.27,7.94-.4,0,0-.03.35-.03.35.28.55.2,1.05-.25,1.48-1.99,1.56-4.09,1.54-6.26.41-.44-.34-.82-.73-1.16-1.17Z" style="fill: #da1e14; stroke-width: 0px;"/>
      <path d="M133.05,35.95c0-.26,0-.53.01-.79,4.92-.91,10.07.95,14.9-1.17.11.28.16.56.15.86.32.66.22,1.26-.29,1.79-5.03,2.01-10,2.88-14.77-.7Z" style="fill: #dc3232; stroke-width: 0px;"/>
      <path d="M155.19,49.92c-.36,0-.73,0-1.09,0-3.44-4.32-2.71-8.88-.77-13.51.27-.18.54-.35.81-.53,2.48,4.52.56,9.36,1.05,14.03Z" style="fill: #da2219; stroke-width: 0px;"/>
      <path d="M148.11,35.95c0-.37,0-.73,0-1.1,1.97.59,4.29-.86,6.03,1.04l-.12.11c-1.99,1.75-3.96,2.1-5.91-.05Z" style="fill: #da1f14; stroke-width: 0px;"/>
      <path d="M148.11,35.95c1.97.02,3.94.03,5.91.05.03,4.64.05,9.28.08,13.93-9.34,0-18.68,0-28.02,0-.77-4.65-.84-9.3.04-13.94,2.31-.01,4.63-.02,6.94-.04,5.02,0,10.04,0,15.06,0Z" style="fill: #dc352e; stroke-width: 0px;"/>
      <path d="M126.11,35.99c-.01,4.65-.02,9.3-.04,13.94-1.7-4.61-.58-9.36-.67-14.05.24.05.47.08.71.11Z" style="fill: #db2921; stroke-width: 0px;"/>
    </g>
  </g>
</svg>