<?xml version="1.0" encoding="UTF-8"?>
<svg id="Layer_2" data-name="Layer 2" xmlns="http://www.w3.org/2000/svg" viewBox="0 0 317.6 468.96">
  <g id="Layer_1-2" data-name="Layer 1">
    <g>
      <path d="M317.31,230.2c.76,22.48.36,44.52-5.93,65.81-10.57,35.77-21.63,71.36-41.01,103.73-7.11,11.86-17.63,19.76-28.31,27.7-9.55,7.1-19.87,12.83-31.17,16.63-24.6,8.26-48.73,18.26-74.48,22.53-29.42,4.87-58.26,2.97-84.51-12.72-26.21-15.67-44.42-37-49.68-68.71-3.94-23.73-2.39-46.57,2.66-69.73,4.6-21.12,8.87-42.35,12.09-63.72,3.18-21.12,2.12-42.51.91-63.79-1.48-26.05-6.74-51.79-6.54-78.01.06-7.7.7-15.28,2.25-22.8,2.15-10.4,11.32-17.52,21.71-17.2,2.25.07,4.76-.41,6.77-1.4,14.74-7.28,26.3-.77,37.39,8.26,10.09,8.22,15.29,19.62,20,31.21,7.27,17.89,14.27,35.89,18.44,54.85.55,2.49.64,6.07,5.17,4.86,31.95-8.55,62.58-19.72,87.07-43.3,2.51-2.42,3.59-4.93,3.31-8.36-.72-8.86-2.75-17.41-5.6-25.78-6.91-20.34-13.74-40.69-16.99-62.04-.51-3.32-.69-6.64-.46-9.95.52-7.29,6.61-13.13,13.96-12.9,6.09.19,11.84-.35,17.5-2.88,12.94-5.79,23.36-.85,31.48,9.12,18.25,22.38,31.6,47.5,41.01,74.45,9.36,26.83,16.77,54.27,19.39,82.91,1.88,20.56,4.47,41.01,3.55,61.25Z" style="fill: #35393f; stroke-width: 0px;"/>
      <path d="M74.35,166.41c.21-5.42-1.36-10.57-3.03-15.56-6.19-18.45-13.3-36.56-22.85-53.57-4.32-7.69-9.33-14.97-16.49-20.47-1.82-1.4-3.44-2.99.56-3.58,1.99-.57,3.97-.6,5.95.02,4.83-.2,9.16-2.84,14.04-2.8,1.98.65,3.97.63,5.95.02,9.42,1.53,16.17,7.41,22.31,14.05,6.19,6.69,9.95,14.91,13.46,23.2,8.61,20.39,16.6,41,21.3,62.73,1.52,7.03,3.99,13.78,8.68,19.41,4.96,5.95,11.03,10.01,19.06,10.47,1.41.08,2.79.59,4.19.9,3.65-.67,7.31-.65,10.96-.01,10.58-.91,20.04-4.97,28.22-11.42,14.61-11.52,30.59-20.53,47.56-28.02,9.27-4.09,17.46-9.62,21.47-19.68,1.63-4.07,2.66-8.13,2.84-12.54.81-20.36-3.8-39.15-12.51-57.78-10.64-22.74-26.52-40.41-45.83-55.53-3.57-2.79-2.82-4.09.44-5.69,1.17-.57,2.71-1.44,3.73-1.1,8.75,2.84,16.18-2.08,24.13-3.81.64-.14,1.31-.09,1.97-.14,1.99.21,3.94-1.26,5.95-.12,5.45.97,8.98,4.59,12.27,8.67,27.54,34.15,42.96,73.92,53.64,115.86,2.38,9.34,4.83,18.68,5.02,28.42-.46.5-.5,1.12-.39,1.73.12.65.53.89.17.33s.99-.04.37-.28c.86,1.66.9,3.44.74,5.25-.67,1.51,1.18,2.75.45,4.26-.04.21-.07.42-.11.63-.11,1.11,1.36,1.85.73,3.08-.39.49-.49,1.08-.41,1.66.09.66.65.88.26.34-.39-.54.98-.02.36-.26.91,2,.97,4.11.85,6.25-.59.54-.33,1.38-.68,2,.33.05.61-.05.85-.29,1.41,5.84,1.77,11.79,1.81,17.76.09,17.28.05,34.56.14,51.83.04,8.46-1.57,16.7-2.91,24.99-.27.45-.46-1.22-.63-.06-.13.89-.24,1.88.38,2.71-.07,6.76-2.29,13.07-4.21,19.42-4.24,14.01-8.6,27.99-12.92,41.97-6.54,21.14-16.56,40.66-28.19,59.34-7.45,11.97-17.83,21.16-30.68,27.08-31.68,14.6-64.71,25.39-98.62,33.3-15.21,3.55-30.79,2.39-46.24.64-1.39.03-2.43-1.5-3.95-.88-20.17-3.58-36.47-13.99-51.66-27.4-16.52-14.59-23.54-33.29-27.24-53.99-.12-.69-.23-1.28-.96-1.53-.69-1.68.12-3.35.02-5.03-1.48-11.32-1.3-22.65.08-33.96.3-1.33.31-2.7.63-4.03,3.76-19.37,7.26-38.8,11.36-58.11,4.32-20.35,7.85-40.73,6.93-61.65-.06-1.33-.83-3.37.97-3.95,1.49-.48,2.03,1.42,2.75,2.44,5.69,8.06,13.83,12.13,23.15,14.3.2.06.39.11.59.17.38.15.77.27,1.18.34,1.66.08,3.31.17,4.96-.1.2-.07.4-.13.59-.2.2-.05.4-.11.61-.16,9-2.83,14.27-9.16,16.87-17.99-.35-.63-.56-1.23.34-1.6,1.53-12.52,2.07-25.01-1.07-37.39-.37-.24-.51-.58-.43-1.01.54-1.07,1.04-2.14.35-3.33-.07-.18-.13-.36-.19-.54Z" style="fill: #e9e9e9; stroke-width: 0px;"/>
      <path d="M253.98,118c0,4.96.36,9.32-.07,13.59-1.3,13.08-8.88,21.45-20.65,26.43-7.98,3.38-15.83,7.01-23.38,11.28-8.57,4.85-16.56,10.56-24.39,16.5-11.2,8.49-23.5,13.29-37.91,12.48-10.74-.6-24.44-12.12-26.28-22.79-.6-3.49,1.68-3.34,3.75-3.79,24.3-5.19,47.28-13.7,68.19-27.36,6.84-4.47,13.15-9.66,19.46-14.83,3.15-2.58,4.45-5.72,4.74-9.93.77-11.42-1.85-22.16-5.37-32.8-6.47-19.59-13.7-38.97-17.09-59.45-.08-.49-.28-.97-.31-1.46-.1-1.76-1.31-3.99.4-5.13,1.72-1.15,3.45.57,4.88,1.63,13.13,9.74,23.92,21.78,32.56,35.5,6.46,10.26,11.62,21.35,16.47,32.5,3.91,9,5.6,18.42,5.02,27.6Z" style="fill: #819998; stroke-width: 0px;"/>
      <path d="M15.45,113.74c-.5-7.62.93-17.48,3.18-27.25.78-3.4,2.39-6.52,5.87-7.53,3.5-1.01,5.74,1.92,8.15,3.88,1.31,1.07,1.57,2.39.94,4.02-7.55,19.51-2.58,38.76,1.46,57.96,1.61,7.64,4.09,15.1,6.25,22.62,2.44,8.51,6.45,11.35,15.33,10.83,3.15-.18,6.32-.45,9.43-1.01,3.58-.64,4.88,1.05,5.08,4.25.53,8.48.79,16.97.08,25.45-.64,7.65-5.65,12.11-11.68,15.79-1.35.82-2.9,1.03-4.35.69-10.6-2.46-20.17-6.19-26.02-16.56-6.44-11.41-8.2-23.86-9.35-36.46-1.64-18.06-4.36-36.03-4.37-56.68Z" style="fill: #819998; stroke-width: 0px;"/>
      <path d="M34.48,107.59c-.46-4.64.96-9.35,1.17-14.17.06-1.42.15-3.33,2-3.56,1.46-.18,2.1,1.41,2.8,2.52,6.65,10.48,10.52,22.24,15.29,33.57,5.23,12.41,10.74,24.74,13.22,38.12,1.06,5.73.66,6.75-4.9,8.1-2.41.59-4.91,1.02-7.37,1.07-4.65.1-7.67-2.09-9.39-6.65-5.85-15.5-8.78-31.69-11.85-47.86-.69-3.62-1.17-7.22-.98-11.13Z" style="fill: #000; stroke-width: 0px;"/>
      <path d="M158.45,201.22c-3.65.81-7.31.8-10.96.01,3.65-1.44,7.3-1.42,10.96-.01Z" style="fill: #2b2f35; stroke-width: 0px;"/>
      <path d="M308.6,166.34c.91-.33,1.63-.25,1.74.9.14,1.41-.09,2.64-1.75,3.03l-.33.1c-.36-1.38-.85-2.78.35-4.03Z" style="fill: #2b2f35; stroke-width: 0px;"/>
      <path d="M4.68,373.2c1.94,1.68.58,3.36-.02,5.03-1.53-1.68-1.47-3.36.02-5.03Z" style="fill: #2b2f35; stroke-width: 0px;"/>
      <path d="M5.39,335.2c.93,1.52,2.57,3.16-.63,4.03l-.35.07c-.48-1.34-.7-2.67.16-3.95.27-.08.54-.13.82-.15Z" style="fill: #f2f2f1; stroke-width: 0px;"/>
      <path d="M50.56,228.23c2.65-1.38,5.3-1.42,7.93.05l.12.14c-2.73,1.27-5.44,1.33-8.15-.05l.1-.14Z" style="fill: #2a2f35; stroke-width: 0px;"/>
      <path d="M84.51,461.15c1.52-.62,3.3-2.42,3.95.88l.08.35c-1.03.44-2.04.59-3-.16l-1.02-1.06Z" style="fill: #f1f1f0; stroke-width: 0px;"/>
      <path d="M231.5,4.42c1.63-1.71,3.26-1.66,4.9-.02-1.63,1.22-3.26,1.23-4.9.02Z" style="fill: #2a2e34; stroke-width: 0px;"/>
      <path d="M236.43,5.4c-1.96,1.42-3.94,1.32-5.95.12.25-.19.53-.29.84-.32,1.75-.49,3.5-.46,5.25-.02l-.14.21Z" style="fill: #f3f3f3; stroke-width: 0px;"/>
      <path d="M58.49,70.47c-1.99,1.25-3.97,1.27-5.95-.02,1.99-.51,3.97-.51,5.95.02Z" style="fill: #f3f2f2; stroke-width: 0px;"/>
      <path d="M38.5,73.25c-1.99.69-3.97.73-5.95-.02,1.99-1.23,3.97-1.25,5.95.02Z" style="fill: #2c3036; stroke-width: 0px;"/>
      <path d="M309.32,280.28c-.81-.88-.98-1.97-.88-3.1.04-.47-.33-1.37.59-1.25.25.03.36,1.1.54,1.69-.08.88-.17,1.77-.25,2.65Z" style="fill: #f2f2f2; stroke-width: 0px;"/>
      <path d="M308.6,166.34l-.35,4.03c-1.11-1.66-1.16-3.33,0-5,.12.32.24.65.36.97Z" style="fill: #f2f2f1; stroke-width: 0px;"/>
      <path d="M74.69,170.32c-.02.33-.04.65-.07.98-1.48-1.55-1.42-3.19-.27-4.88l.25.08.11-.24c.92,1.36.86,2.71-.02,4.06Z" style="fill: #2a2e34; stroke-width: 0px;"/>
      <path d="M309.52,175.08c-.34.55-.23,2.09-.71,1.63-.95-.91-.34-2.31.5-3.36.07.58.14,1.15.21,1.73Z" style="fill: #f1f1f0; stroke-width: 0px;"/>
      <path d="M310.55,183.04c-.36.55-.27,2.11-.72,1.66-.96-.94-.34-2.33.55-3.36l.17,1.71Z" style="fill: #f2f2f2; stroke-width: 0px;"/>
      <path d="M75.69,208.69c-.11.53-.23,1.07-.34,1.6-.26-.57-.66-1.12-.74-1.72-.08-.57.17-1.18.28-1.77.98.33.48,1.29.8,1.89Z" style="fill: #2c3037; stroke-width: 0px;"/>
      <path d="M4.57,335.36c-.05,1.32-.11,2.63-.16,3.95-.83-1.35-1.65-2.71.16-3.95Z" style="fill: #2b2f35; stroke-width: 0px;"/>
      <path d="M307.51,160.12c-.36.52-.19,2.08-.72,1.57-.91-.88-.33-2.32.57-3.34.05.59.1,1.18.15,1.77Z" style="fill: #f3f2f2; stroke-width: 0px;"/>
      <path d="M236.56,5.18c-1.75,0-3.5.01-5.25.02.04-.27.1-.53.19-.78,1.63,0,3.27-.01,4.9-.02.08.26.13.52.16.78Z" style="fill: #8a8d8f; stroke-width: 0px;"/>
      <path d="M85.53,462.22c1,.05,2,.11,3,.16-.92.76-2.04,1.05-3.13.77-1.33-.35-.4-.67.13-.93Z" style="fill: #2c3036; stroke-width: 0px;"/>
      <path d="M285.41,301.7c2.11,7.53-2.85,12.79-9.04,18.48-13.14,12.08-26.49,23.66-42.24,32.28-22.41,12.25-45.92,14.29-70.48,8.39-9.44-2.27-18.51-5.39-27.05-10.02-5.29-2.87-5.33-6.38-.12-9.52,4.86-2.94,10.47-3.7,15.84-3.87,30.61-.96,58.66-10.66,85.55-24.43,12.91-6.61,24.71-14.99,36.16-23.85,1.3-1,2.71-2.05,4.23-2.52,3.88-1.2,6.95,1.05,7.13,5.1.13,2.82.02,5.66.02,9.95Z" style="fill: #fefefe; stroke-width: 0px;"/>
      <path d="M155.09,240.44c-4.25.13-8.37-.2-12.08-2.46-2.55-1.56-2.87-3.23.23-4.52,1.83-.77,3.71-1.69,5.64-1.92,23.34-2.85,42.55-14.39,60.48-28.62,16.76-13.3,32.37-28.11,51.04-38.9,6.98-4.04,14.34-6.32,22.4-3.69,7.47,2.45,10.12,9.52,6.37,16.39-2.22,4.06-5.58,6.98-9.3,9.56-18.17,12.62-37.22,23.77-56.95,33.72-10.23,5.16-20.57,10.2-31.15,14.59-11.68,4.85-24.4,4.26-36.68,5.86Z" style="fill: #fefefe; stroke-width: 0px;"/>
      <path d="M121.18,453.27c-12.49-.91-27.09-1.6-39.77-9.69-7.12-4.55-12.91-10.54-14.16-19.55-.72-5.17,1.79-8.27,7-8.76,3.94-.37,7.62.52,11.06,2.4,13.17,7.22,27.19,9.95,42.23,9.77,15.47-.18,30.89-1.3,46.36-1.41,5.76-.04,11.58-.84,17.4-.74,1.65.03,4.07-.99,4.69,1.48.47,1.9-1.53,2.71-2.85,3.68-14.63,10.68-30.91,17.52-48.7,20.72-7.03,1.26-14.11,2.13-23.25,2.11Z" style="fill: #fefefe; stroke-width: 0px;"/>
      <path d="M204.7,293.25c-7.35,8.93-17.17,13.22-27.83,15.59-13.09,2.91-26.31,3.66-39.35-.56-8.98-2.91-16.31-8.13-21.45-16.15-.8-1.24-1.26-2.7-1.8-4.09-.87-2.26-1.37-4.7.47-6.58,2.03-2.08,4.64-1.31,7-.45,1.55.57,3.2,1.19,4.45,2.22,9.73,7.97,21.55,9.37,33.31,9.87,14.9.64,29.85.15,45.2.15Z" style="fill: #fefefe; stroke-width: 0px;"/>
      <path d="M196.43,251.18c4.91-.14,9.42-1.85,13.8-3.78,11.83-5.22,23.88-10.04,34.42-17.76.62-.45,1.25-1.16,3-.16-4.54,6.5-9.14,12.74-16.17,16.69-16.03,9-32.95,14.73-51.65,14.2-4.12-.12-8.26.56-12.39.87-.58-.56-1.35-.36-2.04-.5-.09-.02-.06.4.22.63-4.48,1.21-9.05,1.82-13.68,2.12-1.78.64-3.72-.12-5.48.67-15.25.64-29.21-1.93-38.62-15.84,7.02,3.45,13.61,7.96,21.57,9.13.79-.13,1.5.01,2.09.57,7.82.51,15.61.4,23.26-1.58.79-.99,1.73-.67,2.67-.32.35.1.71.19,1.06.29.63.09,1.35,1.06,1.86-.17,4.27-1.31,8.66-1.82,13.1-1.94.55.66,1.4.32,2.06.62.06-.27-.04-.52-.3-.75,5.95-1.72,12.14-1.38,18.2-2.15.89-.66,1.82-1.2,3-.85Z" style="fill: #35393f; stroke-width: 0px;"/>
      <path d="M137.16,403.27c-16.39-.95-32.45-2.88-45.75-14.02-3.35-2.8-6.38-5.81-8.61-9.57-1.23-2.08-2.09-4.43-.68-6.58,1.54-2.37,3.98-1.62,6.33-1.09,5.15,1.16,9.49,3.94,13.84,6.67,11.96,7.51,25.06,12.09,38.58,15.78,2.58.7,7.47-.15,6.97,4.4-.52,4.77-4.92,4.57-8.68,4.41-.66-.03-1.33,0-1.99,0Z" style="fill: #fefefe; stroke-width: 0px;"/>
      <path d="M163.28,323.18c1.94-3.12,5.59-2.8,8.43-3.97,13.35-5.48,27.05-10.14,40.22-16,21.71-9.67,39.69-24.71,56.55-41.17,4.28-4.18,8.37-8.57,12.69-12.7,1.03-.98,2.44-3,4.16-1.28,1.52,1.52.02,3.11-.9,4.42-1.72,2.45-3.38,4.98-5.41,7.15-15.36,16.48-31.96,31.52-51.08,43.6-5.93,3.75-12.24,6.7-19.01,8.59-14.67,4.1-29.14,8.96-44.21,11.55-.55.43-1.02.36-1.43-.2Z" style="fill: #35393f; stroke-width: 0px;"/>
      <path d="M176.89,384.05c-3.11-.79-6.27-.84-9.44-.71-.65.48-1.34.44-2.04.15-.25-2.66,1.56-1.4,2.38-1.69-1.65-.74-3.44,1.3-5.39.6-.98,0-1.97,0-2.95,0-.32.25-.68.31-1.06.16-1.03-.69-2.09-.99-3.26-.33-.19.07-.38.13-.57.2-4.64-2.89-10.06-2.11-15.09-3.16-.64.56-1.24.6-1.8-.11-7.11-1.58-14.12-3.46-21.06-5.7-12.17-3.94-19.3-12.74-24.06-23.99-.15-.35.19-.9.77-3.29,10.08,22.19,29.33,25.66,49.16,28.03.94-.57,1.86-.79,2.69.19,1.66,1.03,3.51.74,5.31.75.97-.49,1.92-.68,2.8.18,1.39.34,2.79.68,4.18,1.02,2.03.95,4.3-.1,6.35.74,1.55.03,3.11.05,4.66.08.96-.53,1.89-.73,2.75.19,1.92,1.22,4.17.43,6.19,1.03.32.26.68.45,1.08.58,3.96-.34,7.92-.34,11.87-.01.41-.12.78-.32,1.11-.6,1.7-.54,3.63.19,5.21-.99.52-.76,1.12-.69,1.75-.15,3.2.66,6.08-.72,8.99-1.55,13.32-3.81,26.83-7.01,39.66-12.37.58-.24,1.31-.13,1.97-.18.99-.23,2.17-.95,2.31.92-10.1,4.63-19.99,9.68-30.37,13.7-7.74,3-15.63,5.21-23.83,6.38-6.77.98-13.54,1.11-20.3-.09Z" style="fill: #373b41; stroke-width: 0px;"/>
      <path d="M126.51,416.12c-7.57-.58-14.89-2.51-22.29-4.01-.09-.02-.23-.31-.19-.39.11-.24.31-.44.47-.66.98-.67,1.98-.78,3.02-.15,1.32.14,2.65.28,3.97.42,2.06.97,4.36-.06,6.44.76,1.19.1,2.37.21,3.56.31,2.08.28,4.32-.78,6.26.72,9.93.29,19.84.05,29.73-.79.49.4,1.07.5,1.66.35.64-.16.82-.69.31-.26-.51.43-.11-.98-.3-.34,9.78-2.23,19.55-4.46,29.33-6.68.75.65,2.84,0,2.06,2.13-11.82,6.33-24.55,9.6-37.8,10.88-8.26.8-16.52.47-24.55-2.03.23-.25.35-.54.37-.87-.63.4-1.47.11-2.08.61Z" style="fill: #373b41; stroke-width: 0px;"/>
      <path d="M176.89,384.05c6.77.03,13.53.06,20.3.09,1.22.32,2.64-.37,3.91.85h-29.02c0-.18-.02-.35-.02-.53,1.61-.14,3.22-.27,4.83-.41Z" style="fill: #e9e9e9; stroke-width: 0px;"/>
      <path d="M163.28,323.18c.48.07.96.13,1.43.2-2.61.81-5.22,1.62-7.75,2.41.55-3.08,2.2-3.8,6.32-2.61Z" style="fill: #3d4146; stroke-width: 0px;"/>
      <path d="M177.52,379.19c-.03-.26-.06-.52-.09-.78l1.08-.33c3.97-.51,7.94-.48,11.9-.02.36.11.72.22,1.08.33-.05.26-.08.52-.11.78-4.62,1.01-9.23.95-13.86.03Z" style="fill: #5d6064; stroke-width: 0px;"/>
      <path d="M190.41,378.05c-3.97,0-7.94.02-11.9.02,3.97-1.28,7.93-1.25,11.9-.02Z" style="fill: #f1f1f0; stroke-width: 0px;"/>
      <path d="M162.39,382.4c1.9-1.85,4.24-.84,6.54-.66-1.16.42-2.32.84-3.49,1.27-.93,1.13-1.93.93-2.96.17-.04-.26-.07-.51-.1-.77Z" style="fill: #2b2f35; stroke-width: 0px;"/>
      <path d="M89.9,342.68c2.79,1.24,3.45,2.59,3.67,4.91-2.71-.93-2.27-2.89-3.67-4.91Z" style="fill: #3f4347; stroke-width: 0px;"/>
      <path d="M74.69,170.32c0-1.35.01-2.71.02-4.06.92-.26,1.64-.14,1.74.99.13,1.42-.14,2.64-1.76,3.07Z" style="fill: #f2f2f1; stroke-width: 0px;"/>
      <path d="M107.52,410.91c-1.01.05-2.01.1-3.02.15.55-1.89,2.09-1.81,3.59-1.78.44,0,1.26-.07,1.02.58-.18.48-1.03.71-1.59,1.06Z" style="fill: #f1f1f1; stroke-width: 0px;"/>
      <path d="M122.49,412.09c2.42-1.47,4.94-.66,7.49-.07-.94.13-1.87.26-2.81.4-1.59.35-3.19.85-4.68-.32Z" style="fill: #f1f1f0; stroke-width: 0px;"/>
      <path d="M58.46,229.14c-2.64,1.69-5.26,1.83-7.85-.11,2.62-.3,5.24-.48,7.85.11Z" style="fill: #f1f1f0; stroke-width: 0px;"/>
      <path d="M58.46,229.14c-2.62.33-5.24.37-7.85-.11-.06-.22-.11-.44-.15-.66l8.15.05c-.05.24-.1.48-.15.71Z" style="fill: #797c7f; stroke-width: 0px;"/>
      <path d="M251.39,364.06c-.77-.31-1.54-.62-2.31-.92.71-.35,1.39-.78,2.13-1.03.8-.27,2.01-1.27,2.38.14.4,1.51-1.25,1.44-2.19,1.81Z" style="fill: #3c3f45; stroke-width: 0px;"/>
      <path d="M131.5,258.03c-.84.35-1.63.48-2.09-.57.66-.36,1.29-.85,2-1.04.52-.14,1.14.13,1.72.21l-1.63,1.4Z" style="fill: #f1f1f1; stroke-width: 0px;"/>
      <path d="M196.43,251.18c-.93.53-1.71,1.61-3,.85-.24-.51-1.4-1.03-.61-1.47,1.16-.65,2.52-.3,3.61.61Z" style="fill: #f1f1f0; stroke-width: 0px;"/>
      <path d="M171.23,377.37c-.92-.06-1.84-.13-2.75-.19.87-.81,1.95-.96,3.06-.89.5.03,1.3-.3,1.34.55,0,.15-1.07.35-1.64.53Z" style="fill: #f3f3f2; stroke-width: 0px;"/>
      <path d="M163.82,377.1c-2.17.25-4.36.58-6.35-.74,2.17-.23,4.29-.02,6.35.74Z" style="fill: #4c5055; stroke-width: 0px;"/>
      <path d="M153.29,375.34c-.93-.06-1.87-.12-2.8-.18.95-.85,2.11-.97,3.28-.85.37.04,1.48-.39.94.74-.13.26-.93.21-1.42.3Z" style="fill: #f2f2f1; stroke-width: 0px;"/>
      <path d="M165.63,261.37c-.93-.12-1.85-.23-3.44-.43,2.32-.92,3.85-.8,5.27.3-.61.04-1.21.09-1.82.13Z" style="fill: #2a2f35; stroke-width: 0px;"/>
      <path d="M175.23,254.19c.95.15,1.89.29,3.31.51-2.13.9-3.66.76-5.08-.39.59-.04,1.18-.08,1.76-.12Z" style="fill: #2a2e35; stroke-width: 0px;"/>
      <path d="M117.94,412.09c-2.2.19-4.42.58-6.44-.76,2.2-.17,4.36-.09,6.44.76Z" style="fill: #494c51; stroke-width: 0px;"/>
      <path d="M145.18,374.41c-.9-.06-1.8-.13-2.69-.19.87-.84,1.96-1,3.08-.92.49.04,1.35-.32,1.29.58-.01.21-1.09.35-1.68.53Z" style="fill: #f2f2f2; stroke-width: 0px;"/>
      <path d="M122.49,412.09c1.56.11,3.12.22,4.68.32.17.26.37.49.59.7-2.13.16-4.3.64-6.26-.72.33-.1.66-.21.99-.31Z" style="fill: #494c51; stroke-width: 0px;"/>
      <path d="M146.47,264.17c1.71-1.2,3.6-.9,5.48-.67-1.73,1.02-3.61.82-5.48.67Z" style="fill: #4c4f54; stroke-width: 0px;"/>
      <path d="M158.47,382.06c.32.11.65.23.97.34-1.62,1.14-3.25,1.16-4.88.03l.09-.24-.23-.11c1.35-.85,2.7-.96,4.06-.02Z" style="fill: #f2f2f1; stroke-width: 0px;"/>
      <path d="M162.49,383.17l2.96-.17c.67.11,1.33.22,2,.34-1.7,1.21-3.35,1.29-4.96-.17Z" style="fill: #f2f2f2; stroke-width: 0px;"/>
      <path d="M157.44,256.14c-.89.11-1.78.21-2.67.32-.26-.32-1.72-.32-.5-.99.96-.54,2.23-.11,3.18.67Z" style="fill: #f2f1f1; stroke-width: 0px;"/>
      <path d="M198.44,377.23c-.58.05-1.17.1-1.75.15-.53-.36-2.1-.21-1.6-.73.9-.94,2.33-.33,3.35.58Z" style="fill: #f3f3f3; stroke-width: 0px;"/>
      <path d="M190.56,407.53c-.69-.71-1.38-1.42-2.06-2.13,1.21-.44,2.75-.62,3.48.21.64.71-.61,1.48-1.42,1.92Z" style="fill: #2a2f34; stroke-width: 0px;"/>
      <path d="M126.51,416.12c.56-.27,1.1-.69,1.68-.75.6-.07,1.49-.56,1.81.53-.59.16-1.19.32-1.78.48-.57-.09-1.14-.17-1.7-.26Z" style="fill: #2b2f35; stroke-width: 0px;"/>
      <path d="M160.36,256.25c.57.17,1.14.33,1.7.5-1.29,1.02-2.44.46-3.56-.33.62-.06,1.24-.12,1.86-.17Z" style="fill: #2b2f35; stroke-width: 0px;"/>
      <path d="M137.67,379.17c.6.04,1.2.07,1.8.11-.7.31-1.37.73-2.11.89-.47.11-1.19.32-1.45-.49.58-.17,1.17-.34,1.75-.51Z" style="fill: #f2f2f2; stroke-width: 0px;"/>
      <path d="M159.17,412.09c.55.38,2.09.33,1.7.73-.98.97-2.32.36-3.37-.48.56-.08,1.12-.16,1.67-.25Z" style="fill: #2a2f34; stroke-width: 0px;"/>
      <path d="M177.52,379.19c4.62-.01,9.24-.02,13.86-.03-4.61,1.87-9.23,1.8-13.86.03Z" style="fill: #2e3339; stroke-width: 0px;"/>
      <path d="M158.47,382.06c-1.35,0-2.71.01-4.06.02.99-2.32,2.92-2.11,4.71-1.46.62.23-.39.94-.65,1.44Z" style="fill: #2b2f35; stroke-width: 0px;"/>
    </g>
  </g>
</svg>