<?xml version="1.0" encoding="UTF-8"?>
<svg id="Layer_1" data-name="Layer 1" xmlns="http://www.w3.org/2000/svg" viewBox="0 0 74.42 20.14">
  <defs>
    <style>
      .cls-1 {
        fill: #000;
        stroke: #000;
        stroke-linecap: round;
        stroke-linejoin: round;
        stroke-width: .25px;
      }
    </style>
  </defs>
  <path class="cls-1" d="M14.24,11.45c-.17.51-5.78,3.99-5.96,4.47,5.5-1.16,8.67-4.04,11.93-3.46,1.53.27,2.87,1.12,4.38,1.57.19.06-2,1.62-2.26,2.02,1.34.06,5.97-1.04,6.08-1.02,4.97,1.1,11.13,1.51,16.37,1.57.28,0-2.31,2.52-2.99,3.38-.2.26,8.99-2.76,9.8-3.42.06-.05.14-.08.22-.08,1.96-.13,3.75-.26,5.45-.39,1.04.39,2.08.78,3.11,1.21,1.23.52,2.47,1.09,3.42,2.03-.17-1.36-.76-2.65-1.63-3.7,4.09-.47,7.21-1.07,9.32-1.99.3-.13,2.97-2.61,2.81-3.31-.09-.43-.54-.7-.95-.92-2.87-1.52-8.74-4.73-19.14-6.15-.07,0-.13-.02-.19-.05-.82-.5-5.11-2.9-10.68-3.08-.36-.01.99,2.24,1.72,3.18.16.2.02.49-.25.52-2.11.26-4.34.62-6.7,1.09-2.41.48-5.92,1.21-9.48,1.96-.12.03-.25,0-.34-.09-.79-.7-3.21-2.83-4.07-2.77.13.48.87,2.48,1.17,3.15.08.19-.05.4-.27.45-1.39.29-2.71.66-3.94.83-.43.06-2.29.32-3.29-.37C5.45-.5-.14.29.13.5c2.59,1.96,12.37,8.31,14.1,10.96Z"/>
</svg>