<?xml version="1.0" encoding="UTF-8"?>
<svg id="Layer_2" data-name="Layer 2" xmlns="http://www.w3.org/2000/svg" viewBox="0 0 383.04 625.64">
  <g id="Layer_1-2" data-name="Layer 1">
    <path d="M374.08,124.67h-73.73l8.97-35.57,18.61-73.8c1.21-4.79-1.68-9.71-6.46-10.99l-14.96-4c-4.77-1.28-9.61,1.58-10.8,6.38l-20.44,82.42-8.82,35.57H8.95c-4.94,0-8.95,4.01-8.95,8.95v24.76c0,4.94,4.01,8.95,8.95,8.95h18.41l63.69,449.44c.69,4.89,5.26,8.86,10.21,8.86h180.29c4.94,0,9.51-3.97,10.21-8.86l63.92-449.44h18.42c4.94,0,8.95-4.01,8.95-8.95v-24.76c0-4.95-4.01-8.95-8.95-8.95Z" style="fill: #000; stroke-width: 0px;"/>
  </g>
</svg>