<?xml version="1.0" encoding="UTF-8"?>
<svg id="Layer_1" data-name="Layer 1" xmlns="http://www.w3.org/2000/svg" viewBox="0 0 16.71 8.15">
  <defs>
    <style>
      .cls-1 {
        fill: #000;
        stroke: #000;
        stroke-linecap: round;
        stroke-linejoin: round;
        stroke-width: .25px;
      }
    </style>
  </defs>
  <path class="cls-1" d="M1.48,2.18c.12.35.13.72.25,1.07.13.35.37.65.69.85-.31.28-.52.67-.59,1.07-.07.41-.01.86-.2,1.23-.15.3-.44.51-.72.71.08.06.18.08.28.08.52.02,1.02-.21,1.43-.54.4-.33.72-.75,1.04-1.16.25-.33.5-.66.71-1.02,1.68.72,2.8,1.38,4.72,1.81,0,.06.02.11.03.17.07.48-.01,1.13-.22,1.57.58-.19,1.17-.39,1.66-.75.32-.23.59-.53.76-.87.18-.02.36-.04.54-.07,1.39-.23,3.78-1.58,4.61-2.73.06-.08.12-.17.12-.27.01-.23-2.3-1.77-5.87-2.28-.9-.54-1.93-.87-2.97-.92.51.2.84,1.37.52,1.46-1.46.42-3.12,1.05-4.01,1.42-.05-.06-1.24-1.41-2.25-1.9-.58-.28-1.24-.44-1.88-.33.2.26.53.4.79.61.26.21.46.49.57.81Z"/>
</svg>