<?xml version="1.0" encoding="UTF-8"?>
<svg id="Layer_2" data-name="Layer 2" xmlns="http://www.w3.org/2000/svg" viewBox="0 0 599.8 599.8">
  <g id="Layer_1-2" data-name="Layer 1">
    <g>
      <path d="M315.9,599.8h-28.99c-2.54-1.09-5.21-.22-7.8-.5-38.26.8-73.89-9.55-108.16-25.61-35.43-16.6-66.48-39.33-92.99-68-33-35.69-56.13-77.03-69.55-123.87-5.54-19.34-7.69-38.98-7.9-58.96-.25-2.32.56-4.71-.5-6.97v-31.99c1.06-2.25.25-4.63.5-6.93-.58-33.62,7.88-65.27,21.07-95.84,13.37-30.97,31.21-59.04,54.01-84.02C120.61,47.79,175.72,16.36,241.18,3.28c13.09-2.62,26.53-2.59,39.88-2.78,2.61-.28,5.29.6,7.85-.5h19.99c3.47,1.07,7.03.23,10.53.5,36.94-.66,71.61,8.65,104.98,23.84,24.09,10.97,46.52,24.62,66.85,41.53,30.91,25.71,56.36,55.96,75.28,91.62,12.73,23.99,22.18,49.1,28.34,75.53,2.6,11.14,3.27,22.41,3.88,33.72.3,5.61.88,11.24.55,16.88.27,5.09-.58,10.22.5,15.28v2c-1.08,5.04-.23,10.14-.5,15.21.94,38.4-8.35,74.48-24.23,109.2-12.15,26.55-27.67,50.91-46.84,72.84-29.21,33.42-63.91,59.61-104.53,77.79-20.61,9.23-41.92,16.25-64.07,20.54-12.39,2.4-25.05,2.42-37.63,2.83-2.03.26-4.15-.56-6.11.5Z" style="fill: #1a1a1a; stroke-width: 0px;"/>
      <path d="M598.86,282.83c.31.03.63.06.94.08v15.99c-1.84-5.27-.71-10.71-.94-16.08Z" style="fill: #121212; stroke-width: 0px;"/>
      <path d="M599.8,316.9c-.32.02-.63.04-.95.07.24-5.36-.89-10.8.95-16.07v15.99Z" style="fill: #121212; stroke-width: 0px;"/>
      <path d="M319.9,0c0,.32.02.64.05.95-3.7-.09-7.47.58-11.04-.95h11Z" style="fill: #0e0e0e; stroke-width: 0px;"/>
      <path d="M280.84.91c.03-.3.05-.61.07-.91h8c-2.58,1.23-5.34.98-8.07.91Z" style="fill: #0c0c0c; stroke-width: 0px;"/>
      <path d="M.92,322.96c-.31-.02-.61-.04-.92-.06v-7c1.11,2.25,1.02,4.65.92,7.06Z" style="fill: #0c0c0c; stroke-width: 0px;"/>
      <path d="M0,276.91c.31-.01.63-.03.94-.05.08,2.4.19,4.81-.94,7.05v-7Z" style="fill: #0c0c0c; stroke-width: 0px;"/>
      <path d="M544.61,310.2c-2.4,69.93-36.29,133.52-100.72,180.4-46.48,33.81-99.16,48.85-156.51,46.06-105.98-5.16-197.45-77.57-224.15-177.16-19.71-73.53-5.07-141.2,41.14-201.29,40.05-52.08,93.64-82.87,158.49-92.91,108.94-16.88,215.73,41.05,261.67,141.33,13.57,29.63,19.94,60.95,20.08,103.58Z" style="fill: #929292; stroke-width: 0px;"/>
      <path d="M447.93,447.67c-16.74-22.5-32.02-45.84-41.62-72.44-2.89-8.02-4.83-16.24-5.44-24.78-.99-13.82,3.77-25.44,13.23-35.33,13.61-14.23,30.57-23.4,48.1-31.62,15.08-7.07,30.66-12.89,46.63-17.63,2.84-.33,3.07,1.72,3.55,3.72,1.18,4.88,1.47,9.91,1.75,14.85,1.92,34.4-2.93,67.66-17.26,99.3-10.48,23.14-24.37,43.85-42.57,61.63-1.73,1.69-3.37,3.99-6.38,2.32Z" style="fill: #333; stroke-width: 0px;"/>
      <path d="M90.97,265.87c26.73,8.45,52.73,18.52,76.24,34.12,3.6,2.39,7.02,5.05,10.42,7.72,18.93,14.86,25.22,33.84,18.85,57.15-6.36,23.28-18.06,43.89-31.27,63.77-4.4,6.62-8.64,13.4-14.24,19.14-2.7.57-4.3-1.25-5.92-2.84-18.13-17.83-32.1-38.53-42.54-61.67-9.54-21.15-15.21-43.38-16.72-66.44-.97-14.73-1.17-29.61,1.03-44.32.37-2.49-.5-6.52,4.16-6.62Z" style="fill: #333; stroke-width: 0px;"/>
      <path d="M487.45,204.75c-19.41,5.99-38.89,11.67-59.05,14.6-15.04,2.19-30.07,3.45-45.22.69-14.72-2.68-25.74-10.3-32.98-23.41-8.45-15.3-11.9-32.04-14.28-49.08-2.33-16.69-2.72-33.51-2.86-50.33,1.22-4.53,4.79-2.86,7.4-2.43,12.18,2.01,24.08,5.19,35.68,9.45,24.48,8.99,46.84,21.73,66.46,38.88,18.15,15.87,33.82,33.96,45.58,55.2,1.31,2.37,2.06,4.57-.72,6.44Z" style="fill: #333; stroke-width: 0px;"/>
      <path d="M265.87,96.05c1.16,17.85-.11,35.6-2.42,53.3-1.32,10.09-3.45,20.01-6.51,29.72-9.53,30.32-25.53,42.35-57.25,42.58-22.16.15-43.67-4.42-64.93-10.2-7.54-2.05-15-4.43-22.49-6.66-2.98-2.16-1.73-4.48-.39-6.93,6.52-11.86,14.28-22.86,23.26-32.94,33.21-37.26,74.18-60.98,123.43-70.03,2.48-.46,5.26-1.72,7.29,1.16Z" style="fill: #333; stroke-width: 0px;"/>
      <path d="M206.68,484.84c15.8-22.37,33.07-43.42,54.77-60.46,5.65-4.44,11.71-8.19,18.18-11.32,13.47-6.52,26.91-6.5,40.38.01,17.44,8.42,31.07,21.56,44.04,35.5,10.56,11.35,20.04,23.58,28.93,36.27.26,4.32-3.38,4.98-6.12,6.15-13.97,5.95-28.4,10.54-43.34,13.29-44.63,8.23-88.1,4.53-130.13-13.1-2.93-1.23-6.67-1.92-6.72-6.34Z" style="fill: #333; stroke-width: 0px;"/>
      <path d="M90.97,265.87c-3.2,11.68-3.34,23.66-3.19,35.61.7,55.58,20.87,103.06,59.79,142.64,1.16,1.18,2.26,2.43,3.39,3.65-6.82,12.2-7.48,12.37-16.78,2.86-33.28-34.02-52.47-74.92-59.15-121.85-2.83-19.89-2.76-39.81.23-59.69,1.09-7.29,1.39-7.48,8.57-5.47,2.4.67,4.76,1.49,7.13,2.24Z" style="fill: #7d7d7d; stroke-width: 0px;"/>
      <path d="M447.93,447.67c13.43-11.46,24.13-25.24,33.35-40.13,26.45-42.76,35.39-89.2,28.44-138.84-.14-.97-.58-1.89-.88-2.83,3.01-.94,6.05-1.8,9.03-2.83,3.74-1.3,5.51-.1,6.15,3.86,1.86,11.36,2.78,22.86,2.58,34.28-.41,23.39-3.93,46.38-11.57,68.61-11.24,32.68-29.11,61.14-53.8,85.35-3.15,3.09-5.3,3.44-7.86-.32-1.68-2.47-3.61-4.77-5.43-7.15Z" style="fill: #7d7d7d; stroke-width: 0px;"/>
      <path d="M265.87,96.05c-22.74,3.9-44.63,10.43-65.22,21-37.07,19.03-66.16,46.44-86.88,82.65-.89,1.56-2.1,3.06-1.5,5.08-3.13-1.13-6.21-2.44-9.4-3.35-4.16-1.19-4.78-3.28-2.74-6.98,7.18-13.03,15.61-25.2,25.33-36.43,26.06-30.11,57.99-51.68,95.47-65.05,12.57-4.48,25.47-7.78,38.65-9.95,5.79-.95,6.24-.5,6.35,5.53.04,2.5-.03,4.99-.06,7.49Z" style="fill: #7d7d7d; stroke-width: 0px;"/>
      <path d="M487.45,204.75c.59-2.03-.64-3.53-1.55-5.08-33.23-56.48-82.52-90.04-146.53-102.51-2.04-.4-4.22-1.28-6.31.05.25-3.31.69-6.63.71-9.94.01-4.15,1.94-5.03,5.72-4.4,15.17,2.52,29.87,6.7,44.27,12.03,29.66,10.99,55.6,27.95,78.11,49.94,15.05,14.71,27.62,31.52,37.87,50,1.9,3.42,1.04,5.17-2.44,6.32-3.32,1.1-6.57,2.38-9.85,3.58Z" style="fill: #7d7d7d; stroke-width: 0px;"/>
      <path d="M206.68,484.84c8.87,5.42,18.7,8.58,28.55,11.46,52.03,15.22,103.09,12.5,153.05-8.78,1.65-.7,3.49-1.16,4.7-2.69,1.8,2.59,3.52,5.25,5.42,7.77,2.39,3.18,1.91,5.16-1.89,6.82-20.7,9.02-42.16,15.34-64.57,18.33-37.05,4.95-73.31,1.42-108.72-10.45-6.77-2.27-13.3-5.24-19.96-7.82-3.75-1.45-4.35-3.71-2.06-6.91,1.84-2.57,3.65-5.15,5.48-7.72Z" style="fill: #7d7d7d; stroke-width: 0px;"/>
      <path d="M362.93,339.79c6.01,4.7,9.14,10.62,7,18.32-1.91,6.9-6.65,11.06-13.74,12.15-6.3.97-11.38-1.52-15.43-6.29-5.22-2.86-7-6.67-5.81-12.71.58-2.93,1.41-5.8,2.34-8.65,4.19-3.73,8.39-7.44,14.45-7.6,3.79-.95,7.14-.27,9.86,2.7.52.64.8,1.44,1.32,2.07Z" style="fill: #5e5b51; stroke-width: 0px;"/>
      <path d="M235.65,261.01c-7.64-3.53-11.47-9.76-10.65-17.33.74-6.87,5.9-12.58,12.87-14.26,7.03-1.7,13.58,1.31,18.13,8.3,4.4,2.24,5.92,8.09,3.59,14.24-.87,2.31-2.24,4.38-3.66,6.39-3.71,2.21-6.62,6-11.51,5.93-3.28-.12-6.96.79-8.77-3.28Z" style="fill: #5e5b51; stroke-width: 0px;"/>
      <path d="M339.99,236.05c.96-.91,1.89-1.85,2.88-2.73,6.88-6.06,16.44-5.77,22.83.66,6.34,6.38,6.53,16.06.41,22.85-.99,1.1-2.16,2.05-3.24,3.06-.3.76-.27,1.67-1.07,2.18-1.85.7-3.05,2.55-5.12,2.84-5.13.52-9.66-1.11-13.7-4.11-1.44-1.07-2.78-2.25-4.46-2.95-2.88-5.16-4.67-10.51-3.12-16.54.67-2.59,1.87-4.55,4.59-5.28Z" style="fill: #5e5b51; stroke-width: 0px;"/>
      <path d="M255.91,361.84c-4.57,6.91-10.66,9.78-17.63,8.31-6.67-1.41-11.99-6.85-13.15-13.42-1.22-6.98,1.97-13.45,8.69-17.57.71-.43,1.44-.83,2.16-1.24,1.48-3.61,4.38-3.45,7.46-2.78,4.65-.11,8.17,2.33,11.53,5.12,3.9,4.19,5.69,9.1,5.47,14.87-.13,3.34-1.16,5.72-4.52,6.71Z" style="fill: #5e5b51; stroke-width: 0px;"/>
      <path d="M361.74,260.55c.38-.21.75-.43,1.13-.64,12.9,25.34,14.08,50.86,1.25,76.62-.51,1.03-.8,2.18-1.19,3.27-.37-.24-.74-.49-1.11-.73-1.81-2.2-2.4-4.76-2.41-7.57-.04-21.25-.03-42.49,0-63.74,0-2.66.49-5.14,2.33-7.2Z" style="fill: #868686; stroke-width: 0px;"/>
      <path d="M234.18,333.76c-10.94-23.1-11.11-46.14.46-69.09,2.1-.8,3.12.52,3.84,2.1.61,1.34.88,2.82.89,4.32.09,18.57.24,37.14-.14,55.7-.06,2.88.79,7.7-5.04,6.98Z" style="fill: #606060; stroke-width: 0px;"/>
      <path d="M234.18,333.76c2.12-2.19,2.66-4.95,2.67-7.81.04-17.92.03-35.85.02-53.77,0-2.71-.6-5.27-2.24-7.51.34-1.22.67-2.44,1.01-3.66,3.02.97,6.15.93,9.27.93.91,1.28,1.09,2.7,1.02,4.25-.93,22.26-.69,44.53-.11,66.79.05,1.83-.03,3.21-1.91,3.92-2.64.33-5.29.67-7.93,1-.6-1.38-1.2-2.77-1.8-4.15Z" style="fill: #616161; stroke-width: 0px;"/>
      <path d="M340.07,344.08c-3.43,6.76-3.9,13.41.69,19.9-4.94.51-8.38,4.38-12.93,5.75-3.18-.76-3.28-3.3-3.4-5.85-.28-5.8.38-11.6-.02-17.4,2.71-5.11,7.78-7.67,12.07-11.07.61-.48,1.58.08,2.27.58,3.38,2.21.79,5.41,1.33,8.09Z" style="fill: #7c7c7c; stroke-width: 0px;"/>
      <path d="M306.88,224.03c4.54.05,8.78,1.44,13.01,2.9.53.77,1.46,1.11,1.64,2.29,1.11,7.26,1.98,14.48-.8,21.6-4.25,1.64-12.81-1.03-15.34-4.77-1.59-5.93-.97-11.96-.77-17.97.06-1.73.9-3.03,2.25-4.04Z" style="fill: #777; stroke-width: 0px;"/>
      <path d="M253.92,256.93c4.52-5.99,5.29-12.38,2.07-19.21,2.97-1.61,5.93-3.21,8.9-4.82,3.3-.45,3.3,2.05,3.42,4.1.25,4.42.02,8.85.18,13.28.07,1.97.17,3.94.97,5.78-.27,3.32-10.5,14.83-13.63,15.3-.48.07-.93-.28-1.4-.47-3.74-3.86-3.86-7.11-.51-13.96Z" style="fill: #686868; stroke-width: 0px;"/>
      <path d="M255.91,361.84c3.55-7.34,2.52-14-2.98-19.99-2.36-3.68-1.45-7.68-1.16-11.62.13-1.78,1.32-2.56,2.92-2.89,1.15-.43,2.27-.55,3.15.52,3.38,4.06,6.82,8.06,10.38,11.95.74.81.74,1.78.4,2.78-.97,5.72.17,11.46-.22,17.19-.19,2.73-.24,5.39-3.53,6.31-3.2-.97-5.49-3.85-8.96-4.26Z" style="fill: #686867; stroke-width: 0px;"/>
      <path d="M307.89,374.82c-4.35.45-8.69,1.77-13.07.16-2.1-7.39-2.35-14.76.15-22.12,4.76-1.9,9.61-2.67,14.63-1.14,1.55,6.47.71,13.01.49,19.52-.05,1.47-.95,2.7-2.2,3.58Z" style="fill: #747474; stroke-width: 0px;"/>
      <path d="M267.58,256.9c-2.09-3.32-1.51-7.05-1.68-10.68-.21-4.45.77-8.99-1-13.32,2.71-1.93,5.61-3.44,8.92-4.04,4.05-1.17,4.33,1.71,4.5,4.38.37,5.7-.19,11.42.15,17.12-.73,4.57-5.89,7.67-10.89,6.54Z" style="fill: #6b6b6b; stroke-width: 0px;"/>
      <path d="M307.89,374.82c.46-7.23-1-14.55,1.02-21.71,2.36-4.22,8.08-6.04,12.03-3.82.23,7.9,2.4,15.98-2.06,23.47-3.6,1-7.17,2.19-10.99,2.06Z" style="fill: #777; stroke-width: 0px;"/>
      <path d="M319.91,249.76c0-7.61,0-15.21-.01-22.82,4.01.39,7.51,2.19,10.99,4.03,2.52,8.09,2.04,16.22.4,24.38-4.36,2.27-10.2-.6-11.37-5.59Z" style="fill: #7b7b7b; stroke-width: 0px;"/>
      <path d="M295.91,353.94c-.5,7.01,1.1,14.12-1.08,21.04-4.12-.02-8.22-.19-12.07-1.93-.26-7.41-1.79-14.9,1.47-22.07,5.98-1.75,9.85-.76,11.68,2.96Z" style="fill: #707070; stroke-width: 0px;"/>
      <path d="M306.88,224.03c0,7.32,0,14.63.01,21.95-3.58,3.94-7.67,2.55-11.77,1.14-2.81-6.33-1.55-12.99-1.45-19.54.02-1.47.99-2.72,2.22-3.63,3.66.03,7.32.06,10.98.09Z" style="fill: #737373; stroke-width: 0px;"/>
      <path d="M277.01,250.95c-2.03-4.97-.76-10.17-1.09-15.26-.16-2.46.25-5.06-2.1-6.83,3.09-1.78,6.43-2.72,9.96-3.06,3.53-.26,4.55,1.81,4.56,4.86.02,5.41.06,10.82,1.01,16.17-1.55,4.08-7.55,6.08-12.34,4.11Z" style="fill: #6d6d6d; stroke-width: 0px;"/>
      <path d="M329.76,255.29c.63-8.1-.8-16.29,1.12-24.33,3.04,1.7,6.07,3.39,9.11,5.09-3.43,6.8-3.56,13.47.78,19.97.13,2.68,2.4,6.01-2.19,7.27-5.39-.3-8.97-3.55-8.82-8.01Z" style="fill: #7d7d7d; stroke-width: 0px;"/>
      <path d="M284.91,351.86c0,4.76-.03,9.52-.03,14.29,0,2.52-.44,4.9-2.13,6.9-3.49-.42-6.81-1.36-9.86-3.15-.55-7.63-1.61-15.29.97-22.79,4.91-1.74,10.51.66,11.06,4.74Z" style="fill: #6d6d6d; stroke-width: 0px;"/>
      <path d="M287.97,246.94c-2.93-2.41-1.76-5.77-2.07-8.8-.42-4.16,1.29-8.69-2.12-12.34,3.9-1.56,7.97-1.97,12.12-1.85,0,7.28,0,14.56,0,21.83-2.8,3.94-4.5,4.19-7.94,1.16Z" style="fill: #707070; stroke-width: 0px;"/>
      <path d="M274.97,347.6c-.03,5.11-.06,10.22-.08,15.33,0,2.52-.33,4.94-2.01,6.97-2.96-.67-5.54-2.13-8.01-3.81,1.66-6.02.8-12.18,1.07-18.28.09-1.97.42-3.93.64-5.9,5.04-1.02,8.76,1.5,8.4,5.69Z" style="fill: #6a6a6a; stroke-width: 0px;"/>
      <path d="M318.88,372.76c.47-7.6-.99-15.29,1.02-22.83,1.06-4.3,3.26-5.49,7.01-3.79.39,7.86-.96,15.79.92,23.59-2.98,1.01-5.96,2.02-8.94,3.03Z" style="fill: #7a7a7a; stroke-width: 0px;"/>
      <path d="M361.74,260.55c.02,26.17.05,52.34.07,78.51-3.17-1.25-6.43-2.08-9.86-2.08-2.43.14-3.06-1.44-3.35-3.44-.35-2.47-.78-5.21-.07-7.36,1.11-3.35-.27-5.68-1.61-8.25.15-3.97,1.56-7.72,2.1-11.63,1.12-8.15-.39-16.05-2.11-23.94,1.91-3.16,2.05-6.41,1.67-10.12-.91-8.9-.37-9.24,8.19-10.15,1.66-.51,3.32-1.03,4.98-1.54Z" style="fill: #848484; stroke-width: 0px;"/>
      <path d="M349.81,316.71c1.48,4.77,1,9.68,1.08,14.56.03,1.97.18,3.9,1.06,5.71-4.39,1.65-9.16,2.65-11.88,7.1-.72-2.38-1.45-4.76-2.17-7.14-1.34-1.33-1.03-2.63,0-3.97,3.37-4.37,5.75-9.32,8.18-14.24.78-1.57,1.52-3.1,3.71-2.02Z" style="fill: gray; stroke-width: 0px;"/>
      <path d="M255.62,328.92c-2.94,3.89-1.24,8.74-2.68,12.93-2.66-2.28-5.81-3.66-9.02-4.94-1.74-8.74-.87-17.57-.96-26.37-.13-12.64,0-25.27-.05-37.91-.01-3.71.42-7.3,2.01-10.69,3.47-.84,6.24-2.92,9.01-5.02.28,4.37-.93,8.96,1.85,12.97,2.69,1.19,1.28,3.11.58,4.57-8,16.74-8.04,33.48-.2,50.28.66,1.42,1.81,3.06-.53,4.17Z" style="fill: #646464; stroke-width: 0px;"/>
      <path d="M356.76,262.09c-4.67.69-6.34,3.43-5.93,8.03.38,4.32-.08,8.64-.99,12.89-1.76.96-2.79.12-3.47-1.46-2.4-5.64-5.45-10.89-9.25-15.7-1.1-1.39-1.13-2.68.37-3.82,1.82-1.61,2.26-3.96,3.27-6.01,4.37,4.55,9.74,6.5,16,6.06Z" style="fill: gray; stroke-width: 0px;"/>
      <path d="M337.49,262.03c5.34,6.27,9.27,13.38,12.35,20.98,2.89,11.24,2.86,22.47-.04,33.7-3.02,7.3-6.67,14.23-11.9,20.23-3.67,3.07-7.33,6.14-11,9.2-2.34,1.26-4.67,2.53-7.01,3.79-3.66,1.06-7.33,2.12-10.99,3.18-4.33.28-8.67.55-13,.83-3.67-.69-7.33-1.39-11-2.08-3.31-1.42-6.62-2.84-9.94-4.26-2.8-1.9-5.6-3.79-8.4-5.69-3.85-4.16-7.81-8.24-10.96-12.99-11.12-19.7-10.33-39.37.16-59.02,3.93-4.33,7.87-8.67,11.8-13,3.15-1.98,6.29-3.97,9.44-5.95,3.65-1.33,7.3-2.67,10.95-4,2.65-.39,5.29-.78,7.94-1.16,3.66.07,7.32.14,10.98.2,4.34,1.26,8.68,2.52,13.01,3.78,3.28,1.84,6.57,3.69,9.85,5.53,2.58,2.25,5.16,4.5,7.74,6.74Z" style="fill: #2c2b2a; stroke-width: 0px;"/>
      <path d="M299.89,343.89c-24.6,0-43-19.19-42.97-44.81.03-24.43,19.13-44.09,42.89-44.14,23.8-.05,43.11,19.93,43.08,44.58-.03,24.96-18.84,44.37-43,44.37Z" style="fill: #302d2c; stroke-width: 0px;"/>
      <path d="M299.86,263.92c19.21,0,35.08,16.16,34.96,35.62-.12,19.45-16.01,36.04-34.71,36.25-18.85.21-35.1-16.56-35.17-36.27-.07-19.69,15.53-35.6,34.92-35.6Z" style="fill: #3b3229; stroke-width: 0px;"/>
      <path d="M299.94,332.89c-18.02,1.69-33.12-15.9-33-32.77.14-19.46,14.31-34.18,32.91-34.2,18.09-.02,33.01,15.17,32.9,33.89-.1,18.1-15.96,34.81-32.81,33.08Z" style="fill: #423526; stroke-width: 0px;"/>
      <path d="M299.96,268.91c14.64-1.39,30,13.41,29.94,30.33-.07,17.38-13.96,31.77-30.7,31.51-16.17-.26-29.02-14.54-29.36-31.85-.29-14.8,13.68-31.54,30.12-29.98Z" style="fill: #543d1f; stroke-width: 0px;"/>
      <path d="M324.98,300.24c.25,18.7-14.59,26.81-25.82,26.17-15.51-.89-26.01-11.63-24.94-30.34.73-12.8,14.4-23.88,28.03-22.91,12.84.91,23.57,13.7,22.73,27.09Z" style="fill: #5c3e1c; stroke-width: 0px;"/>
      <path d="M277.92,299.14c.06-13.03,9.41-22.33,22.35-22.22,12.61.11,21.66,9.79,21.61,23.13-.04,12.22-10.13,22.63-21.96,22.64-12.16.02-22.06-10.58-22-23.56Z" style="fill: #623f19; stroke-width: 0px;"/>
      <path d="M318.88,298.82c.85,12.11-10,20.56-19.15,20.81-9.33.26-19.18-9.25-19.33-18.16-.22-12.59,7.97-21.45,19.87-21.5,9.97-.05,18.58,8.67,18.61,18.85Z" style="fill: #673f16; stroke-width: 0px;"/>
      <path d="M283.92,299.75c.04-9.42,6.74-16.72,15.41-16.78,9.6-.07,16.63,7.02,16.54,16.71-.09,9.62-7.4,17.12-16.55,16.96-8.59-.15-15.44-7.65-15.41-16.88Z" style="fill: #6c4013; stroke-width: 0px;"/>
      <path d="M299.9,313.86c-7.96,0-13.98-6.26-13.94-14.49.04-7.78,6.24-14.19,13.81-14.27,7.49-.08,14.03,6.77,14.04,14.7,0,7.53-6.45,14.06-13.91,14.06Z" style="fill: #6d3e12; stroke-width: 0px;"/>
      <path d="M293.32,298.84c.56-3.22,2.69-5.6,6.5-5.66,4.06-.06,5.92,2.6,5.98,6.44.06,3.98-2.23,6.18-6.03,6.54-3.45.33-6.49-3.05-6.45-7.32Z" style="fill: #3d2d1e; stroke-width: 0px;"/>
      <path d="M301.32,299.41c-.02.99-.43,1.7-1.42,1.7-.99,0-1.44-.71-1.41-1.65.03-.72.41-1.32,1.15-1.43,1.01-.14,1.5.49,1.67,1.38Z" style="fill: #312921; stroke-width: 0px;"/>
    </g>
  </g>
</svg>